<svg version="1.1" xmlns="http://www.w3.org/2000/svg" xmlns:xlink="http://www.w3.org/1999/xlink" stroke-linecap="round" stroke-linejoin="round" stroke-width="0" fill-rule="evenodd" width="79.865mm" height="70.5mm" viewBox="37685 -95950 79865 70500" id="xxDKoyGAvSIxWM88nJmp"><defs><rect x="-800" y="-800" width="1600" height="1600" rx="800" ry="800" id="xxDKoyGAvSIxWM88nJmp_pad-10"/><circle cx="0" cy="0" r="800" id="xxDKoyGAvSIxWM88nJmp_pad-11"/><rect x="-850" y="-850" width="1700" height="1700" rx="850" ry="850" id="xxDKoyGAvSIxWM88nJmp_pad-12"/><rect x="-850" y="-850" width="1700" height="1700" id="xxDKoyGAvSIxWM88nJmp_pad-13"/><circle cx="0" cy="0" r="1000" id="xxDKoyGAvSIxWM88nJmp_pad-14"/><rect x="-1000" y="-1000" width="2000" height="2000" id="xxDKoyGAvSIxWM88nJmp_pad-15"/><circle cx="0" cy="0" r="720" id="xxDKoyGAvSIxWM88nJmp_pad-16"/><rect x="-700" y="-700" width="1400" height="1400" rx="700" ry="700" id="xxDKoyGAvSIxWM88nJmp_pad-17"/><circle cx="0" cy="0" r="700" id="xxDKoyGAvSIxWM88nJmp_pad-18"/><rect x="-1300" y="-1300" width="2600" height="2600" id="xxDKoyGAvSIxWM88nJmp_pad-19"/><circle cx="0" cy="0" r="1300" id="xxDKoyGAvSIxWM88nJmp_pad-20"/><circle cx="0" cy="0" r="850" id="xxDKoyGAvSIxWM88nJmp_pad-21"/><rect x="-900" y="-535" width="1800" height="1070" id="xxDKoyGAvSIxWM88nJmp_pad-22"/><rect x="-900" y="-535" width="1800" height="1070" rx="535" ry="535" id="xxDKoyGAvSIxWM88nJmp_pad-23"/><circle cx="0" cy="0" r="1750" id="xxDKoyGAvSIxWM88nJmp_pad-24"/></defs><g transform="translate(0,-121400) scale(1,-1)" fill="currentColor" stroke="currentColor"><use xlink:href="#xxDKoyGAvSIxWM88nJmp_pad-10" x="113985" y="-49650"/><use xlink:href="#xxDKoyGAvSIxWM88nJmp_pad-11" x="113985" y="-57270"/><use xlink:href="#xxDKoyGAvSIxWM88nJmp_pad-12" x="72147.5" y="-58717.5"/><use xlink:href="#xxDKoyGAvSIxWM88nJmp_pad-12" x="69607.5" y="-58717.5"/><use xlink:href="#xxDKoyGAvSIxWM88nJmp_pad-13" x="77227.5" y="-58717.5"/><use xlink:href="#xxDKoyGAvSIxWM88nJmp_pad-12" x="54367.5" y="-58717.5"/><use xlink:href="#xxDKoyGAvSIxWM88nJmp_pad-12" x="56907.5" y="-58717.5"/><use xlink:href="#xxDKoyGAvSIxWM88nJmp_pad-12" x="59447.5" y="-58717.5"/><use xlink:href="#xxDKoyGAvSIxWM88nJmp_pad-12" x="61987.5" y="-58717.5"/><use xlink:href="#xxDKoyGAvSIxWM88nJmp_pad-12" x="74687.5" y="-58717.5"/><use xlink:href="#xxDKoyGAvSIxWM88nJmp_pad-12" x="64527.5" y="-58717.5"/><use xlink:href="#xxDKoyGAvSIxWM88nJmp_pad-12" x="67067.5" y="-58717.5"/><use xlink:href="#xxDKoyGAvSIxWM88nJmp_pad-14" x="113485" y="-87260"/><use xlink:href="#xxDKoyGAvSIxWM88nJmp_pad-15" x="113485" y="-79660"/><use xlink:href="#xxDKoyGAvSIxWM88nJmp_pad-16" x="41330" y="-62170"/><use xlink:href="#xxDKoyGAvSIxWM88nJmp_pad-16" x="46410" y="-64710"/><use xlink:href="#xxDKoyGAvSIxWM88nJmp_pad-16" x="41330" y="-67250"/><use xlink:href="#xxDKoyGAvSIxWM88nJmp_pad-17" x="38485" y="-48780"/><use xlink:href="#xxDKoyGAvSIxWM88nJmp_pad-18" x="38485" y="-46240"/><use xlink:href="#xxDKoyGAvSIxWM88nJmp_pad-14" x="102735" y="-62710"/><use xlink:href="#xxDKoyGAvSIxWM88nJmp_pad-14" x="96235" y="-62710"/><use xlink:href="#xxDKoyGAvSIxWM88nJmp_pad-14" x="102735" y="-58210"/><use xlink:href="#xxDKoyGAvSIxWM88nJmp_pad-14" x="96235" y="-58210"/><use xlink:href="#xxDKoyGAvSIxWM88nJmp_pad-19" x="45430" y="-81915"/><use xlink:href="#xxDKoyGAvSIxWM88nJmp_pad-20" x="45430" y="-86995"/><use xlink:href="#xxDKoyGAvSIxWM88nJmp_pad-21" x="100945" y="-82840"/><use xlink:href="#xxDKoyGAvSIxWM88nJmp_pad-21" x="100945" y="-85380"/><use xlink:href="#xxDKoyGAvSIxWM88nJmp_pad-21" x="100945" y="-87920"/><use xlink:href="#xxDKoyGAvSIxWM88nJmp_pad-21" x="100945" y="-90460"/><use xlink:href="#xxDKoyGAvSIxWM88nJmp_pad-21" x="57765" y="-82840"/><use xlink:href="#xxDKoyGAvSIxWM88nJmp_pad-21" x="57765" y="-85380"/><use xlink:href="#xxDKoyGAvSIxWM88nJmp_pad-21" x="57765" y="-87920"/><use xlink:href="#xxDKoyGAvSIxWM88nJmp_pad-21" x="57765" y="-90460"/><use xlink:href="#xxDKoyGAvSIxWM88nJmp_pad-22" x="115000" y="-35980"/><use xlink:href="#xxDKoyGAvSIxWM88nJmp_pad-23" x="115000" y="-37250"/><use xlink:href="#xxDKoyGAvSIxWM88nJmp_pad-23" x="115000" y="-38520"/><use xlink:href="#xxDKoyGAvSIxWM88nJmp_pad-23" x="115000" y="-39790"/><use xlink:href="#xxDKoyGAvSIxWM88nJmp_pad-12" x="83365" y="-58460"/><use xlink:href="#xxDKoyGAvSIxWM88nJmp_pad-12" x="85905" y="-58460"/><use xlink:href="#xxDKoyGAvSIxWM88nJmp_pad-12" x="88445" y="-58460"/><use xlink:href="#xxDKoyGAvSIxWM88nJmp_pad-13" x="90985" y="-58460"/><use xlink:href="#xxDKoyGAvSIxWM88nJmp_pad-12" x="51445" y="-53000"/><use xlink:href="#xxDKoyGAvSIxWM88nJmp_pad-13" x="51445" y="-50460"/><use xlink:href="#xxDKoyGAvSIxWM88nJmp_pad-12" x="53985" y="-53000"/><use xlink:href="#xxDKoyGAvSIxWM88nJmp_pad-12" x="53985" y="-50460"/><use xlink:href="#xxDKoyGAvSIxWM88nJmp_pad-12" x="56525" y="-53000"/><use xlink:href="#xxDKoyGAvSIxWM88nJmp_pad-12" x="56525" y="-50460"/><use xlink:href="#xxDKoyGAvSIxWM88nJmp_pad-12" x="59065" y="-53000"/><use xlink:href="#xxDKoyGAvSIxWM88nJmp_pad-12" x="59065" y="-50460"/><use xlink:href="#xxDKoyGAvSIxWM88nJmp_pad-12" x="61605" y="-53000"/><use xlink:href="#xxDKoyGAvSIxWM88nJmp_pad-12" x="61605" y="-50460"/><use xlink:href="#xxDKoyGAvSIxWM88nJmp_pad-12" x="64145" y="-53000"/><use xlink:href="#xxDKoyGAvSIxWM88nJmp_pad-12" x="64145" y="-50460"/><use xlink:href="#xxDKoyGAvSIxWM88nJmp_pad-12" x="66685" y="-53000"/><use xlink:href="#xxDKoyGAvSIxWM88nJmp_pad-12" x="66685" y="-50460"/><use xlink:href="#xxDKoyGAvSIxWM88nJmp_pad-12" x="69225" y="-53000"/><use xlink:href="#xxDKoyGAvSIxWM88nJmp_pad-12" x="69225" y="-50460"/><use xlink:href="#xxDKoyGAvSIxWM88nJmp_pad-12" x="71765" y="-53000"/><use xlink:href="#xxDKoyGAvSIxWM88nJmp_pad-12" x="71765" y="-50460"/><use xlink:href="#xxDKoyGAvSIxWM88nJmp_pad-12" x="74305" y="-53000"/><use xlink:href="#xxDKoyGAvSIxWM88nJmp_pad-12" x="74305" y="-50460"/><use xlink:href="#xxDKoyGAvSIxWM88nJmp_pad-12" x="76845" y="-53000"/><use xlink:href="#xxDKoyGAvSIxWM88nJmp_pad-12" x="76845" y="-50460"/><use xlink:href="#xxDKoyGAvSIxWM88nJmp_pad-12" x="79385" y="-53000"/><use xlink:href="#xxDKoyGAvSIxWM88nJmp_pad-12" x="79385" y="-50460"/><use xlink:href="#xxDKoyGAvSIxWM88nJmp_pad-12" x="81925" y="-53000"/><use xlink:href="#xxDKoyGAvSIxWM88nJmp_pad-12" x="81925" y="-50460"/><use xlink:href="#xxDKoyGAvSIxWM88nJmp_pad-12" x="84465" y="-53000"/><use xlink:href="#xxDKoyGAvSIxWM88nJmp_pad-12" x="84465" y="-50460"/><use xlink:href="#xxDKoyGAvSIxWM88nJmp_pad-12" x="87005" y="-53000"/><use xlink:href="#xxDKoyGAvSIxWM88nJmp_pad-12" x="87005" y="-50460"/><use xlink:href="#xxDKoyGAvSIxWM88nJmp_pad-12" x="89545" y="-53000"/><use xlink:href="#xxDKoyGAvSIxWM88nJmp_pad-12" x="89545" y="-50460"/><use xlink:href="#xxDKoyGAvSIxWM88nJmp_pad-12" x="92085" y="-53000"/><use xlink:href="#xxDKoyGAvSIxWM88nJmp_pad-12" x="92085" y="-50460"/><use xlink:href="#xxDKoyGAvSIxWM88nJmp_pad-12" x="94625" y="-53000"/><use xlink:href="#xxDKoyGAvSIxWM88nJmp_pad-12" x="94625" y="-50460"/><use xlink:href="#xxDKoyGAvSIxWM88nJmp_pad-12" x="97165" y="-53000"/><use xlink:href="#xxDKoyGAvSIxWM88nJmp_pad-12" x="97165" y="-50460"/><use xlink:href="#xxDKoyGAvSIxWM88nJmp_pad-12" x="99705" y="-53000"/><use xlink:href="#xxDKoyGAvSIxWM88nJmp_pad-12" x="99705" y="-50460"/><use xlink:href="#xxDKoyGAvSIxWM88nJmp_pad-12" x="109485" y="-71000"/><use xlink:href="#xxDKoyGAvSIxWM88nJmp_pad-12" x="109485" y="-68460"/><use xlink:href="#xxDKoyGAvSIxWM88nJmp_pad-12" x="109485" y="-65920"/><use xlink:href="#xxDKoyGAvSIxWM88nJmp_pad-12" x="109485" y="-63380"/><use xlink:href="#xxDKoyGAvSIxWM88nJmp_pad-13" x="109485" y="-60840"/><use xlink:href="#xxDKoyGAvSIxWM88nJmp_pad-11" x="38485" y="-37960"/><use xlink:href="#xxDKoyGAvSIxWM88nJmp_pad-11" x="38485" y="-40960"/><use xlink:href="#xxDKoyGAvSIxWM88nJmp_pad-24" x="39500" y="-27200"/><use xlink:href="#xxDKoyGAvSIxWM88nJmp_pad-24" x="115800" y="-27200"/><use xlink:href="#xxDKoyGAvSIxWM88nJmp_pad-24" x="115800" y="-94200"/><use xlink:href="#xxDKoyGAvSIxWM88nJmp_pad-24" x="39500" y="-94200"/><path d="M 83365 -58460 83235 -58330 M 85905 -58460 85805 -58360" fill="none" stroke-width="300"/></g></svg>