<svg version="1.1" xmlns="http://www.w3.org/2000/svg" xmlns:xlink="http://www.w3.org/1999/xlink" stroke-linecap="round" stroke-linejoin="round" stroke-width="0" fill-rule="evenodd" width="67.215mm" height="17.215mm" viewBox="40723 -52413 67215 17215" id="bFiuARJa_XsVDJRzFkYZ"><defs><g id="bFiuARJa_XsVDJRzFkYZ_pad-10"><polygon points="381,-762 381,762 -381,762 -381,-762"/><circle cx="381" cy="-762" r="381"/><circle cx="381" cy="762" r="381"/><circle cx="-381" cy="762" r="381"/><circle cx="-381" cy="-762" r="381"/><polygon points="762,-762 762,762 0,762 0,-762"/><polygon points="381,381 -381,381 -381,1143 381,1143"/><polygon points="0,762 0,-762 -762,-762 -762,762"/><polygon points="-381,-1143 381,-1143 381,-381 -381,-381"/></g><g id="bFiuARJa_XsVDJRzFkYZ_pad-11"><polygon points="-762,-381 762,-381 762,381 -762,381"/><circle cx="-762" cy="-381" r="381"/><circle cx="762" cy="-381" r="381"/><circle cx="762" cy="381" r="381"/><circle cx="-762" cy="381" r="381"/><polygon points="-762,-762 762,-762 762,0 -762,0"/><polygon points="1143,-381 1143,381 381,381 381,-381"/><polygon points="762,0 -762,0 -762,762 762,762"/><polygon points="-381,381 -381,-381 -1143,-381 -1143,381"/></g></defs><g transform="translate(0,-87611) scale(1,-1)" fill="currentColor" stroke="currentColor"><use xlink:href="#bFiuARJa_XsVDJRzFkYZ_pad-10" x="45485" y="-43650"/><use xlink:href="#bFiuARJa_XsVDJRzFkYZ_pad-10" x="45485" y="-51270"/><use xlink:href="#bFiuARJa_XsVDJRzFkYZ_pad-11" x="106795" y="-35960"/><use xlink:href="#bFiuARJa_XsVDJRzFkYZ_pad-11" x="99175" y="-35960"/><use xlink:href="#bFiuARJa_XsVDJRzFkYZ_pad-10" x="41485" y="-43650"/><use xlink:href="#bFiuARJa_XsVDJRzFkYZ_pad-10" x="41485" y="-51270"/><use xlink:href="#bFiuARJa_XsVDJRzFkYZ_pad-11" x="106795" y="-39580"/><use xlink:href="#bFiuARJa_XsVDJRzFkYZ_pad-11" x="99175" y="-39580"/><use xlink:href="#bFiuARJa_XsVDJRzFkYZ_pad-11" x="106795" y="-43210"/><use xlink:href="#bFiuARJa_XsVDJRzFkYZ_pad-11" x="99175" y="-43210"/></g></svg>