<svg version="1.1" xmlns="http://www.w3.org/2000/svg" xmlns:xlink="http://www.w3.org/1999/xlink" stroke-linecap="round" stroke-linejoin="round" stroke-width="0" fill-rule="evenodd" width="78.215mm" height="56.112mm" viewBox="37685 -91310 78215 56112" id="mpMItkh0Cwakt_Cry45H"><defs><rect x="-800" y="-800" width="1600" height="1600" rx="800" ry="800" id="mpMItkh0Cwakt_Cry45H_pad-10"/><circle cx="0" cy="0" r="800" id="mpMItkh0Cwakt_Cry45H_pad-11"/><rect x="-850" y="-850" width="1700" height="1700" rx="850" ry="850" id="mpMItkh0Cwakt_Cry45H_pad-12"/><rect x="-850" y="-850" width="1700" height="1700" id="mpMItkh0Cwakt_Cry45H_pad-13"/><circle cx="0" cy="0" r="1000" id="mpMItkh0Cwakt_Cry45H_pad-14"/><rect x="-1000" y="-1000" width="2000" height="2000" id="mpMItkh0Cwakt_Cry45H_pad-15"/><circle cx="0" cy="0" r="720" id="mpMItkh0Cwakt_Cry45H_pad-16"/><rect x="-700" y="-700" width="1400" height="1400" rx="700" ry="700" id="mpMItkh0Cwakt_Cry45H_pad-17"/><circle cx="0" cy="0" r="700" id="mpMItkh0Cwakt_Cry45H_pad-18"/><rect x="-1300" y="-1300" width="2600" height="2600" id="mpMItkh0Cwakt_Cry45H_pad-19"/><circle cx="0" cy="0" r="1300" id="mpMItkh0Cwakt_Cry45H_pad-20"/><circle cx="0" cy="0" r="850" id="mpMItkh0Cwakt_Cry45H_pad-21"/><rect x="-900" y="-535" width="1800" height="1070" id="mpMItkh0Cwakt_Cry45H_pad-22"/><rect x="-900" y="-535" width="1800" height="1070" rx="535" ry="535" id="mpMItkh0Cwakt_Cry45H_pad-23"/><g id="mpMItkh0Cwakt_Cry45H_pad-24"><polygon points="381,-762 381,762 -381,762 -381,-762"/><circle cx="381" cy="-762" r="381"/><circle cx="381" cy="762" r="381"/><circle cx="-381" cy="762" r="381"/><circle cx="-381" cy="-762" r="381"/><polygon points="762,-762 762,762 0,762 0,-762"/><polygon points="381,381 -381,381 -381,1143 381,1143"/><polygon points="0,762 0,-762 -762,-762 -762,762"/><polygon points="-381,-1143 381,-1143 381,-381 -381,-381"/></g><g id="mpMItkh0Cwakt_Cry45H_pad-25"><polygon points="-762,-381 762,-381 762,381 -762,381"/><circle cx="-762" cy="-381" r="381"/><circle cx="762" cy="-381" r="381"/><circle cx="762" cy="381" r="381"/><circle cx="-762" cy="381" r="381"/><polygon points="-762,-762 762,-762 762,0 -762,0"/><polygon points="1143,-381 1143,381 381,381 381,-381"/><polygon points="762,0 -762,0 -762,762 762,762"/><polygon points="-381,381 -381,-381 -1143,-381 -1143,381"/></g></defs><g transform="translate(0,-126508) scale(1,-1)" fill="currentColor" stroke="currentColor"><use xlink:href="#mpMItkh0Cwakt_Cry45H_pad-10" x="113985" y="-49650"/><use xlink:href="#mpMItkh0Cwakt_Cry45H_pad-11" x="113985" y="-57270"/><use xlink:href="#mpMItkh0Cwakt_Cry45H_pad-12" x="72147.5" y="-58717.5"/><use xlink:href="#mpMItkh0Cwakt_Cry45H_pad-12" x="69607.5" y="-58717.5"/><use xlink:href="#mpMItkh0Cwakt_Cry45H_pad-13" x="77227.5" y="-58717.5"/><use xlink:href="#mpMItkh0Cwakt_Cry45H_pad-12" x="54367.5" y="-58717.5"/><use xlink:href="#mpMItkh0Cwakt_Cry45H_pad-12" x="56907.5" y="-58717.5"/><use xlink:href="#mpMItkh0Cwakt_Cry45H_pad-12" x="59447.5" y="-58717.5"/><use xlink:href="#mpMItkh0Cwakt_Cry45H_pad-12" x="61987.5" y="-58717.5"/><use xlink:href="#mpMItkh0Cwakt_Cry45H_pad-12" x="74687.5" y="-58717.5"/><use xlink:href="#mpMItkh0Cwakt_Cry45H_pad-12" x="64527.5" y="-58717.5"/><use xlink:href="#mpMItkh0Cwakt_Cry45H_pad-12" x="67067.5" y="-58717.5"/><use xlink:href="#mpMItkh0Cwakt_Cry45H_pad-14" x="113485" y="-87260"/><use xlink:href="#mpMItkh0Cwakt_Cry45H_pad-15" x="113485" y="-79660"/><use xlink:href="#mpMItkh0Cwakt_Cry45H_pad-16" x="41330" y="-62170"/><use xlink:href="#mpMItkh0Cwakt_Cry45H_pad-16" x="46410" y="-64710"/><use xlink:href="#mpMItkh0Cwakt_Cry45H_pad-16" x="41330" y="-67250"/><use xlink:href="#mpMItkh0Cwakt_Cry45H_pad-17" x="38485" y="-48780"/><use xlink:href="#mpMItkh0Cwakt_Cry45H_pad-18" x="38485" y="-46240"/><use xlink:href="#mpMItkh0Cwakt_Cry45H_pad-14" x="102735" y="-62710"/><use xlink:href="#mpMItkh0Cwakt_Cry45H_pad-14" x="96235" y="-62710"/><use xlink:href="#mpMItkh0Cwakt_Cry45H_pad-14" x="102735" y="-58210"/><use xlink:href="#mpMItkh0Cwakt_Cry45H_pad-14" x="96235" y="-58210"/><use xlink:href="#mpMItkh0Cwakt_Cry45H_pad-19" x="45430" y="-81915"/><use xlink:href="#mpMItkh0Cwakt_Cry45H_pad-20" x="45430" y="-86995"/><use xlink:href="#mpMItkh0Cwakt_Cry45H_pad-21" x="100945" y="-82840"/><use xlink:href="#mpMItkh0Cwakt_Cry45H_pad-21" x="100945" y="-85380"/><use xlink:href="#mpMItkh0Cwakt_Cry45H_pad-21" x="100945" y="-87920"/><use xlink:href="#mpMItkh0Cwakt_Cry45H_pad-21" x="100945" y="-90460"/><use xlink:href="#mpMItkh0Cwakt_Cry45H_pad-21" x="57765" y="-82840"/><use xlink:href="#mpMItkh0Cwakt_Cry45H_pad-21" x="57765" y="-85380"/><use xlink:href="#mpMItkh0Cwakt_Cry45H_pad-21" x="57765" y="-87920"/><use xlink:href="#mpMItkh0Cwakt_Cry45H_pad-21" x="57765" y="-90460"/><use xlink:href="#mpMItkh0Cwakt_Cry45H_pad-22" x="115000" y="-35980"/><use xlink:href="#mpMItkh0Cwakt_Cry45H_pad-23" x="115000" y="-37250"/><use xlink:href="#mpMItkh0Cwakt_Cry45H_pad-23" x="115000" y="-38520"/><use xlink:href="#mpMItkh0Cwakt_Cry45H_pad-23" x="115000" y="-39790"/><use xlink:href="#mpMItkh0Cwakt_Cry45H_pad-12" x="83365" y="-58460"/><use xlink:href="#mpMItkh0Cwakt_Cry45H_pad-12" x="85905" y="-58460"/><use xlink:href="#mpMItkh0Cwakt_Cry45H_pad-12" x="88445" y="-58460"/><use xlink:href="#mpMItkh0Cwakt_Cry45H_pad-13" x="90985" y="-58460"/><use xlink:href="#mpMItkh0Cwakt_Cry45H_pad-12" x="51445" y="-53000"/><use xlink:href="#mpMItkh0Cwakt_Cry45H_pad-13" x="51445" y="-50460"/><use xlink:href="#mpMItkh0Cwakt_Cry45H_pad-12" x="53985" y="-53000"/><use xlink:href="#mpMItkh0Cwakt_Cry45H_pad-12" x="53985" y="-50460"/><use xlink:href="#mpMItkh0Cwakt_Cry45H_pad-12" x="56525" y="-53000"/><use xlink:href="#mpMItkh0Cwakt_Cry45H_pad-12" x="56525" y="-50460"/><use xlink:href="#mpMItkh0Cwakt_Cry45H_pad-12" x="59065" y="-53000"/><use xlink:href="#mpMItkh0Cwakt_Cry45H_pad-12" x="59065" y="-50460"/><use xlink:href="#mpMItkh0Cwakt_Cry45H_pad-12" x="61605" y="-53000"/><use xlink:href="#mpMItkh0Cwakt_Cry45H_pad-12" x="61605" y="-50460"/><use xlink:href="#mpMItkh0Cwakt_Cry45H_pad-12" x="64145" y="-53000"/><use xlink:href="#mpMItkh0Cwakt_Cry45H_pad-12" x="64145" y="-50460"/><use xlink:href="#mpMItkh0Cwakt_Cry45H_pad-12" x="66685" y="-53000"/><use xlink:href="#mpMItkh0Cwakt_Cry45H_pad-12" x="66685" y="-50460"/><use xlink:href="#mpMItkh0Cwakt_Cry45H_pad-12" x="69225" y="-53000"/><use xlink:href="#mpMItkh0Cwakt_Cry45H_pad-12" x="69225" y="-50460"/><use xlink:href="#mpMItkh0Cwakt_Cry45H_pad-12" x="71765" y="-53000"/><use xlink:href="#mpMItkh0Cwakt_Cry45H_pad-12" x="71765" y="-50460"/><use xlink:href="#mpMItkh0Cwakt_Cry45H_pad-12" x="74305" y="-53000"/><use xlink:href="#mpMItkh0Cwakt_Cry45H_pad-12" x="74305" y="-50460"/><use xlink:href="#mpMItkh0Cwakt_Cry45H_pad-12" x="76845" y="-53000"/><use xlink:href="#mpMItkh0Cwakt_Cry45H_pad-12" x="76845" y="-50460"/><use xlink:href="#mpMItkh0Cwakt_Cry45H_pad-12" x="79385" y="-53000"/><use xlink:href="#mpMItkh0Cwakt_Cry45H_pad-12" x="79385" y="-50460"/><use xlink:href="#mpMItkh0Cwakt_Cry45H_pad-12" x="81925" y="-53000"/><use xlink:href="#mpMItkh0Cwakt_Cry45H_pad-12" x="81925" y="-50460"/><use xlink:href="#mpMItkh0Cwakt_Cry45H_pad-12" x="84465" y="-53000"/><use xlink:href="#mpMItkh0Cwakt_Cry45H_pad-12" x="84465" y="-50460"/><use xlink:href="#mpMItkh0Cwakt_Cry45H_pad-12" x="87005" y="-53000"/><use xlink:href="#mpMItkh0Cwakt_Cry45H_pad-12" x="87005" y="-50460"/><use xlink:href="#mpMItkh0Cwakt_Cry45H_pad-12" x="89545" y="-53000"/><use xlink:href="#mpMItkh0Cwakt_Cry45H_pad-12" x="89545" y="-50460"/><use xlink:href="#mpMItkh0Cwakt_Cry45H_pad-12" x="92085" y="-53000"/><use xlink:href="#mpMItkh0Cwakt_Cry45H_pad-12" x="92085" y="-50460"/><use xlink:href="#mpMItkh0Cwakt_Cry45H_pad-12" x="94625" y="-53000"/><use xlink:href="#mpMItkh0Cwakt_Cry45H_pad-12" x="94625" y="-50460"/><use xlink:href="#mpMItkh0Cwakt_Cry45H_pad-12" x="97165" y="-53000"/><use xlink:href="#mpMItkh0Cwakt_Cry45H_pad-12" x="97165" y="-50460"/><use xlink:href="#mpMItkh0Cwakt_Cry45H_pad-12" x="99705" y="-53000"/><use xlink:href="#mpMItkh0Cwakt_Cry45H_pad-12" x="99705" y="-50460"/><use xlink:href="#mpMItkh0Cwakt_Cry45H_pad-12" x="109485" y="-71000"/><use xlink:href="#mpMItkh0Cwakt_Cry45H_pad-12" x="109485" y="-68460"/><use xlink:href="#mpMItkh0Cwakt_Cry45H_pad-12" x="109485" y="-65920"/><use xlink:href="#mpMItkh0Cwakt_Cry45H_pad-12" x="109485" y="-63380"/><use xlink:href="#mpMItkh0Cwakt_Cry45H_pad-13" x="109485" y="-60840"/><use xlink:href="#mpMItkh0Cwakt_Cry45H_pad-11" x="38485" y="-37960"/><use xlink:href="#mpMItkh0Cwakt_Cry45H_pad-11" x="38485" y="-40960"/><use xlink:href="#mpMItkh0Cwakt_Cry45H_pad-24" x="45485" y="-43650"/><use xlink:href="#mpMItkh0Cwakt_Cry45H_pad-24" x="45485" y="-51270"/><use xlink:href="#mpMItkh0Cwakt_Cry45H_pad-25" x="106795" y="-35960"/><use xlink:href="#mpMItkh0Cwakt_Cry45H_pad-25" x="99175" y="-35960"/><use xlink:href="#mpMItkh0Cwakt_Cry45H_pad-24" x="41485" y="-43650"/><use xlink:href="#mpMItkh0Cwakt_Cry45H_pad-24" x="41485" y="-51270"/><use xlink:href="#mpMItkh0Cwakt_Cry45H_pad-25" x="106795" y="-39580"/><use xlink:href="#mpMItkh0Cwakt_Cry45H_pad-25" x="99175" y="-39580"/><use xlink:href="#mpMItkh0Cwakt_Cry45H_pad-25" x="106795" y="-43210"/><use xlink:href="#mpMItkh0Cwakt_Cry45H_pad-25" x="99175" y="-43210"/></g></svg>