<svg version="1.1" xmlns="http://www.w3.org/2000/svg" xmlns:xlink="http://www.w3.org/1999/xlink" stroke-linecap="round" stroke-linejoin="round" stroke-width="0" fill-rule="evenodd" width="78.215mm" height="66.10476200000001mm" viewBox="37685 -91310 78215 66104.762" id="TSXsulkxjFdWNH-TfcCf"><defs><rect x="-800" y="-800" width="1600" height="1600" rx="800" ry="800" id="TSXsulkxjFdWNH-TfcCf_pad-13"/><circle cx="0" cy="0" r="800" id="TSXsulkxjFdWNH-TfcCf_pad-14"/><rect x="-850" y="-850" width="1700" height="1700" rx="850" ry="850" id="TSXsulkxjFdWNH-TfcCf_pad-15"/><rect x="-850" y="-850" width="1700" height="1700" id="TSXsulkxjFdWNH-TfcCf_pad-16"/><circle cx="0" cy="0" r="1000" id="TSXsulkxjFdWNH-TfcCf_pad-17"/><rect x="-1000" y="-1000" width="2000" height="2000" id="TSXsulkxjFdWNH-TfcCf_pad-18"/><circle cx="0" cy="0" r="720" id="TSXsulkxjFdWNH-TfcCf_pad-19"/><rect x="-700" y="-700" width="1400" height="1400" rx="700" ry="700" id="TSXsulkxjFdWNH-TfcCf_pad-20"/><circle cx="0" cy="0" r="700" id="TSXsulkxjFdWNH-TfcCf_pad-21"/><rect x="-1300" y="-1300" width="2600" height="2600" id="TSXsulkxjFdWNH-TfcCf_pad-22"/><circle cx="0" cy="0" r="1300" id="TSXsulkxjFdWNH-TfcCf_pad-23"/><circle cx="0" cy="0" r="850" id="TSXsulkxjFdWNH-TfcCf_pad-24"/><rect x="-900" y="-535" width="1800" height="1070" id="TSXsulkxjFdWNH-TfcCf_pad-25"/><rect x="-900" y="-535" width="1800" height="1070" rx="535" ry="535" id="TSXsulkxjFdWNH-TfcCf_pad-26"/><g id="TSXsulkxjFdWNH-TfcCf_pad-27"><polygon points="381,-762 381,762 -381,762 -381,-762"/><circle cx="381" cy="-762" r="381"/><circle cx="381" cy="762" r="381"/><circle cx="-381" cy="762" r="381"/><circle cx="-381" cy="-762" r="381"/><polygon points="762,-762 762,762 0,762 0,-762"/><polygon points="381,381 -381,381 -381,1143 381,1143"/><polygon points="0,762 0,-762 -762,-762 -762,762"/><polygon points="-381,-1143 381,-1143 381,-381 -381,-381"/></g><g id="TSXsulkxjFdWNH-TfcCf_pad-28"><polygon points="-762,-381 762,-381 762,381 -762,381"/><circle cx="-762" cy="-381" r="381"/><circle cx="762" cy="-381" r="381"/><circle cx="762" cy="381" r="381"/><circle cx="-762" cy="381" r="381"/><polygon points="-762,-762 762,-762 762,0 -762,0"/><polygon points="1143,-381 1143,381 381,381 381,-381"/><polygon points="762,0 -762,0 -762,762 762,762"/><polygon points="-381,381 -381,-381 -1143,-381 -1143,381"/></g><mask id="TSXsulkxjFdWNH-TfcCf_clear-1" fill="#000" stroke="#000"><g><rect x="38137.619" y="-50790" width="68177.381" height="25584.762" fill="#fff"/><use xlink:href="#TSXsulkxjFdWNH-TfcCf_pad-13" x="113985" y="-49650"/><use xlink:href="#TSXsulkxjFdWNH-TfcCf_pad-14" x="113985" y="-57270"/><use xlink:href="#TSXsulkxjFdWNH-TfcCf_pad-15" x="72147.5" y="-58717.5"/><use xlink:href="#TSXsulkxjFdWNH-TfcCf_pad-15" x="69607.5" y="-58717.5"/><use xlink:href="#TSXsulkxjFdWNH-TfcCf_pad-16" x="77227.5" y="-58717.5"/><use xlink:href="#TSXsulkxjFdWNH-TfcCf_pad-15" x="54367.5" y="-58717.5"/><use xlink:href="#TSXsulkxjFdWNH-TfcCf_pad-15" x="56907.5" y="-58717.5"/><use xlink:href="#TSXsulkxjFdWNH-TfcCf_pad-15" x="59447.5" y="-58717.5"/><use xlink:href="#TSXsulkxjFdWNH-TfcCf_pad-15" x="61987.5" y="-58717.5"/><use xlink:href="#TSXsulkxjFdWNH-TfcCf_pad-15" x="74687.5" y="-58717.5"/><use xlink:href="#TSXsulkxjFdWNH-TfcCf_pad-15" x="64527.5" y="-58717.5"/><use xlink:href="#TSXsulkxjFdWNH-TfcCf_pad-15" x="67067.5" y="-58717.5"/><use xlink:href="#TSXsulkxjFdWNH-TfcCf_pad-17" x="113485" y="-87260"/><use xlink:href="#TSXsulkxjFdWNH-TfcCf_pad-18" x="113485" y="-79660"/><use xlink:href="#TSXsulkxjFdWNH-TfcCf_pad-19" x="41330" y="-62170"/><use xlink:href="#TSXsulkxjFdWNH-TfcCf_pad-19" x="46410" y="-64710"/><use xlink:href="#TSXsulkxjFdWNH-TfcCf_pad-19" x="41330" y="-67250"/><use xlink:href="#TSXsulkxjFdWNH-TfcCf_pad-20" x="38485" y="-48780"/><use xlink:href="#TSXsulkxjFdWNH-TfcCf_pad-21" x="38485" y="-46240"/><use xlink:href="#TSXsulkxjFdWNH-TfcCf_pad-17" x="102735" y="-62710"/><use xlink:href="#TSXsulkxjFdWNH-TfcCf_pad-17" x="96235" y="-62710"/><use xlink:href="#TSXsulkxjFdWNH-TfcCf_pad-17" x="102735" y="-58210"/><use xlink:href="#TSXsulkxjFdWNH-TfcCf_pad-17" x="96235" y="-58210"/><use xlink:href="#TSXsulkxjFdWNH-TfcCf_pad-22" x="45430" y="-81915"/><use xlink:href="#TSXsulkxjFdWNH-TfcCf_pad-23" x="45430" y="-86995"/><use xlink:href="#TSXsulkxjFdWNH-TfcCf_pad-24" x="100945" y="-82840"/><use xlink:href="#TSXsulkxjFdWNH-TfcCf_pad-24" x="100945" y="-85380"/><use xlink:href="#TSXsulkxjFdWNH-TfcCf_pad-24" x="100945" y="-87920"/><use xlink:href="#TSXsulkxjFdWNH-TfcCf_pad-24" x="100945" y="-90460"/><use xlink:href="#TSXsulkxjFdWNH-TfcCf_pad-24" x="57765" y="-82840"/><use xlink:href="#TSXsulkxjFdWNH-TfcCf_pad-24" x="57765" y="-85380"/><use xlink:href="#TSXsulkxjFdWNH-TfcCf_pad-24" x="57765" y="-87920"/><use xlink:href="#TSXsulkxjFdWNH-TfcCf_pad-24" x="57765" y="-90460"/><use xlink:href="#TSXsulkxjFdWNH-TfcCf_pad-25" x="115000" y="-35980"/><use xlink:href="#TSXsulkxjFdWNH-TfcCf_pad-26" x="115000" y="-37250"/><use xlink:href="#TSXsulkxjFdWNH-TfcCf_pad-26" x="115000" y="-38520"/><use xlink:href="#TSXsulkxjFdWNH-TfcCf_pad-26" x="115000" y="-39790"/><use xlink:href="#TSXsulkxjFdWNH-TfcCf_pad-15" x="83365" y="-58460"/><use xlink:href="#TSXsulkxjFdWNH-TfcCf_pad-15" x="85905" y="-58460"/><use xlink:href="#TSXsulkxjFdWNH-TfcCf_pad-15" x="88445" y="-58460"/><use xlink:href="#TSXsulkxjFdWNH-TfcCf_pad-16" x="90985" y="-58460"/><use xlink:href="#TSXsulkxjFdWNH-TfcCf_pad-15" x="51445" y="-53000"/><use xlink:href="#TSXsulkxjFdWNH-TfcCf_pad-16" x="51445" y="-50460"/><use xlink:href="#TSXsulkxjFdWNH-TfcCf_pad-15" x="53985" y="-53000"/><use xlink:href="#TSXsulkxjFdWNH-TfcCf_pad-15" x="53985" y="-50460"/><use xlink:href="#TSXsulkxjFdWNH-TfcCf_pad-15" x="56525" y="-53000"/><use xlink:href="#TSXsulkxjFdWNH-TfcCf_pad-15" x="56525" y="-50460"/><use xlink:href="#TSXsulkxjFdWNH-TfcCf_pad-15" x="59065" y="-53000"/><use xlink:href="#TSXsulkxjFdWNH-TfcCf_pad-15" x="59065" y="-50460"/><use xlink:href="#TSXsulkxjFdWNH-TfcCf_pad-15" x="61605" y="-53000"/><use xlink:href="#TSXsulkxjFdWNH-TfcCf_pad-15" x="61605" y="-50460"/><use xlink:href="#TSXsulkxjFdWNH-TfcCf_pad-15" x="64145" y="-53000"/><use xlink:href="#TSXsulkxjFdWNH-TfcCf_pad-15" x="64145" y="-50460"/><use xlink:href="#TSXsulkxjFdWNH-TfcCf_pad-15" x="66685" y="-53000"/><use xlink:href="#TSXsulkxjFdWNH-TfcCf_pad-15" x="66685" y="-50460"/><use xlink:href="#TSXsulkxjFdWNH-TfcCf_pad-15" x="69225" y="-53000"/><use xlink:href="#TSXsulkxjFdWNH-TfcCf_pad-15" x="69225" y="-50460"/><use xlink:href="#TSXsulkxjFdWNH-TfcCf_pad-15" x="71765" y="-53000"/><use xlink:href="#TSXsulkxjFdWNH-TfcCf_pad-15" x="71765" y="-50460"/><use xlink:href="#TSXsulkxjFdWNH-TfcCf_pad-15" x="74305" y="-53000"/><use xlink:href="#TSXsulkxjFdWNH-TfcCf_pad-15" x="74305" y="-50460"/><use xlink:href="#TSXsulkxjFdWNH-TfcCf_pad-15" x="76845" y="-53000"/><use xlink:href="#TSXsulkxjFdWNH-TfcCf_pad-15" x="76845" y="-50460"/><use xlink:href="#TSXsulkxjFdWNH-TfcCf_pad-15" x="79385" y="-53000"/><use xlink:href="#TSXsulkxjFdWNH-TfcCf_pad-15" x="79385" y="-50460"/><use xlink:href="#TSXsulkxjFdWNH-TfcCf_pad-15" x="81925" y="-53000"/><use xlink:href="#TSXsulkxjFdWNH-TfcCf_pad-15" x="81925" y="-50460"/><use xlink:href="#TSXsulkxjFdWNH-TfcCf_pad-15" x="84465" y="-53000"/><use xlink:href="#TSXsulkxjFdWNH-TfcCf_pad-15" x="84465" y="-50460"/><use xlink:href="#TSXsulkxjFdWNH-TfcCf_pad-15" x="87005" y="-53000"/><use xlink:href="#TSXsulkxjFdWNH-TfcCf_pad-15" x="87005" y="-50460"/><use xlink:href="#TSXsulkxjFdWNH-TfcCf_pad-15" x="89545" y="-53000"/><use xlink:href="#TSXsulkxjFdWNH-TfcCf_pad-15" x="89545" y="-50460"/><use xlink:href="#TSXsulkxjFdWNH-TfcCf_pad-15" x="92085" y="-53000"/><use xlink:href="#TSXsulkxjFdWNH-TfcCf_pad-15" x="92085" y="-50460"/><use xlink:href="#TSXsulkxjFdWNH-TfcCf_pad-15" x="94625" y="-53000"/><use xlink:href="#TSXsulkxjFdWNH-TfcCf_pad-15" x="94625" y="-50460"/><use xlink:href="#TSXsulkxjFdWNH-TfcCf_pad-15" x="97165" y="-53000"/><use xlink:href="#TSXsulkxjFdWNH-TfcCf_pad-15" x="97165" y="-50460"/><use xlink:href="#TSXsulkxjFdWNH-TfcCf_pad-15" x="99705" y="-53000"/><use xlink:href="#TSXsulkxjFdWNH-TfcCf_pad-15" x="99705" y="-50460"/><use xlink:href="#TSXsulkxjFdWNH-TfcCf_pad-15" x="109485" y="-71000"/><use xlink:href="#TSXsulkxjFdWNH-TfcCf_pad-15" x="109485" y="-68460"/><use xlink:href="#TSXsulkxjFdWNH-TfcCf_pad-15" x="109485" y="-65920"/><use xlink:href="#TSXsulkxjFdWNH-TfcCf_pad-15" x="109485" y="-63380"/><use xlink:href="#TSXsulkxjFdWNH-TfcCf_pad-16" x="109485" y="-60840"/><use xlink:href="#TSXsulkxjFdWNH-TfcCf_pad-14" x="38485" y="-37960"/><use xlink:href="#TSXsulkxjFdWNH-TfcCf_pad-14" x="38485" y="-40960"/><use xlink:href="#TSXsulkxjFdWNH-TfcCf_pad-27" x="45485" y="-43650"/><use xlink:href="#TSXsulkxjFdWNH-TfcCf_pad-27" x="45485" y="-51270"/><use xlink:href="#TSXsulkxjFdWNH-TfcCf_pad-28" x="106795" y="-35960"/><use xlink:href="#TSXsulkxjFdWNH-TfcCf_pad-28" x="99175" y="-35960"/><use xlink:href="#TSXsulkxjFdWNH-TfcCf_pad-27" x="41485" y="-43650"/><use xlink:href="#TSXsulkxjFdWNH-TfcCf_pad-27" x="41485" y="-51270"/><use xlink:href="#TSXsulkxjFdWNH-TfcCf_pad-28" x="106795" y="-39580"/><use xlink:href="#TSXsulkxjFdWNH-TfcCf_pad-28" x="99175" y="-39580"/><use xlink:href="#TSXsulkxjFdWNH-TfcCf_pad-28" x="106795" y="-43210"/><use xlink:href="#TSXsulkxjFdWNH-TfcCf_pad-28" x="99175" y="-43210"/></g></mask></defs><g transform="translate(0,-116515.238) scale(1,-1)" fill="currentColor" stroke="currentColor"><g mask="url(#TSXsulkxjFdWNH-TfcCf_clear-1)"><path d="M 101923.809 -31455.238 101923.809 -29455.238 101161.904 -29455.238 100971.428 -29550.476 100876.19 -29645.714 100780.952 -29836.19 100780.952 -30121.904 100876.19 -30312.38 100971.428 -30407.619 101161.904 -30502.857 101923.809 -30502.857 M 99638.095 -31455.238 99828.571 -31360 99923.809 -31169.523 99923.809 -29455.238 M 98019.047 -31455.238 98019.047 -30407.619 98114.285 -30217.142 98304.761 -30121.904 98685.714 -30121.904 98876.19 -30217.142 M 98019.047 -31360 98209.523 -31455.238 98685.714 -31455.238 98876.19 -31360 98971.428 -31169.523 98971.428 -30979.047 98876.19 -30788.571 98685.714 -30693.333 98209.523 -30693.333 98019.047 -30598.095 M 96209.523 -31360 96399.999 -31455.238 96780.952 -31455.238 96971.428 -31360 97066.666 -31264.761 97161.904 -31074.285 97161.904 -30502.857 97066.666 -30312.38 96971.428 -30217.142 96780.952 -30121.904 96399.999 -30121.904 96209.523 -30217.142 M 94495.237 -31455.238 94495.237 -30407.619 94590.475 -30217.142 94780.951 -30121.904 95161.904 -30121.904 95352.38 -30217.142 M 94495.237 -31360 94685.713 -31455.238 95161.904 -31455.238 95352.38 -31360 95447.618 -31169.523 95447.618 -30979.047 95352.38 -30788.571 95161.904 -30693.333 94685.713 -30693.333 94495.237 -30598.095 M 91161.903 -31455.238 91161.903 -29455.238 M 91161.903 -31360 91352.379 -31455.238 91733.332 -31455.238 91923.808 -31360 92019.046 -31264.761 92114.284 -31074.285 92114.284 -30502.857 92019.046 -30312.38 91923.808 -30217.142 91733.332 -30121.904 91352.379 -30121.904 91161.903 -30217.142 M 89447.617 -31360 89638.093 -31455.238 90019.046 -31455.238 90209.522 -31360 90304.76 -31169.523 90304.76 -30407.619 90209.522 -30217.142 90019.046 -30121.904 89638.093 -30121.904 89447.617 -30217.142 89352.379 -30407.619 89352.379 -30598.095 90304.76 -30788.571 M 86114.283 -31455.238 86114.283 -29455.238 M 86114.283 -31360 86304.759 -31455.238 86685.712 -31455.238 86876.188 -31360 86971.426 -31264.761 87066.664 -31074.285 87066.664 -30502.857 86971.426 -30312.38 86876.188 -30217.142 86685.712 -30121.904 86304.759 -30121.904 86114.283 -30217.142 M 84399.997 -31360 84590.473 -31455.238 84971.426 -31455.238 85161.902 -31360 85257.14 -31169.523 85257.14 -30407.619 85161.902 -30217.142 84971.426 -30121.904 84590.473 -30121.904 84399.997 -30217.142 84304.759 -30407.619 84304.759 -30598.095 85257.14 -30788.571 M 83542.854 -31360 83352.378 -31455.238 82971.426 -31455.238 82780.949 -31360 82685.711 -31169.523 82685.711 -31074.285 82780.949 -30883.809 82971.426 -30788.571 83257.14 -30788.571 83447.616 -30693.333 83542.854 -30502.857 83542.854 -30407.619 83447.616 -30217.142 83257.14 -30121.904 82971.426 -30121.904 82780.949 -30217.142 M 80971.425 -31455.238 80971.425 -30407.619 81066.663 -30217.142 81257.139 -30121.904 81638.092 -30121.904 81828.568 -30217.142 M 80971.425 -31360 81161.901 -31455.238 81638.092 -31455.238 81828.568 -31360 81923.806 -31169.523 81923.806 -30979.047 81828.568 -30788.571 81638.092 -30693.333 81161.901 -30693.333 80971.425 -30598.095 M 80019.044 -31455.238 80019.044 -30121.904 M 80019.044 -30502.857 79923.806 -30312.38 79828.568 -30217.142 79638.092 -30121.904 79447.615 -30121.904 M 78780.949 -31455.238 78780.949 -30121.904 M 78780.949 -30502.857 78685.711 -30312.38 78590.473 -30217.142 78399.997 -30121.904 78209.52 -30121.904 M 77257.14 -31455.238 77447.616 -31360 77542.854 -31264.761 77638.092 -31074.285 77638.092 -30502.857 77542.854 -30312.38 77447.616 -30217.142 77257.14 -30121.904 76971.425 -30121.904 76780.949 -30217.142 76685.711 -30312.38 76590.473 -30502.857 76590.473 -31074.285 76685.711 -31264.761 76780.949 -31360 76971.425 -31455.238 77257.14 -31455.238 M 75447.616 -31455.238 75638.092 -31360 75733.33 -31169.523 75733.33 -29455.238 M 74399.997 -31455.238 74590.473 -31360 74685.711 -31169.523 74685.711 -29455.238 M 73352.378 -31455.238 73542.854 -31360 73638.092 -31264.761 73733.33 -31074.285 73733.33 -30502.857 73638.092 -30312.38 73542.854 -30217.142 73352.378 -30121.904 73066.663 -30121.904 72876.187 -30217.142 72780.949 -30312.38 72685.711 -30502.857 72685.711 -31074.285 72780.949 -31264.761 72876.187 -31360 73066.663 -31455.238 73352.378 -31455.238 M 69161.901 -31455.238 69828.568 -30502.857 M 70304.758 -31455.238 70304.758 -29455.238 69542.853 -29455.238 69352.377 -29550.476 69257.139 -29645.714 69161.901 -29836.19 69161.901 -30121.904 69257.139 -30312.38 69352.377 -30407.619 69542.853 -30502.857 70304.758 -30502.857 M 68304.758 -31455.238 68304.758 -29455.238 67542.853 -29455.238 67352.377 -29550.476 67257.139 -29645.714 67161.901 -29836.19 67161.901 -30121.904 67257.139 -30312.38 67352.377 -30407.619 67542.853 -30502.857 68304.758 -30502.857 M 66304.758 -31455.238 66304.758 -30121.904 M 66304.758 -29455.238 66399.996 -29550.476 66304.758 -29645.714 66209.52 -29550.476 66304.758 -29455.238 66304.758 -29645.714 M 65542.853 -29455.238 64209.52 -29455.238 65542.853 -31455.238 64209.52 -31455.238 M 62685.71 -31360 62876.186 -31455.238 63257.139 -31455.238 63447.615 -31360 63542.853 -31169.523 63542.853 -30407.619 63447.615 -30217.142 63257.139 -30121.904 62876.186 -30121.904 62685.71 -30217.142 62590.472 -30407.619 62590.472 -30598.095 63542.853 -30788.571 M 61733.329 -31455.238 61733.329 -30121.904 M 61733.329 -30502.857 61638.091 -30312.38 61542.853 -30217.142 61352.377 -30121.904 61161.9 -30121.904 M 60209.52 -31455.238 60399.996 -31360 60495.234 -31264.761 60590.472 -31074.285 60590.472 -30502.857 60495.234 -30312.38 60399.996 -30217.142 60209.52 -30121.904 59923.805 -30121.904 59733.329 -30217.142 59638.091 -30312.38 59542.853 -30502.857 59542.853 -31074.285 59638.091 -31264.761 59733.329 -31360 59923.805 -31455.238 60209.52 -31455.238 M 58876.186 -29455.238 58399.996 -31455.238 58019.043 -30026.666 57638.091 -31455.238 57161.901 -29455.238 M 55066.662 -30121.904 54590.472 -31455.238 54114.281 -30121.904 M 53447.614 -29645.714 53352.376 -29550.476 53161.9 -29455.238 52685.709 -29455.238 52495.233 -29550.476 52399.995 -29645.714 52304.757 -29836.19 52304.757 -30026.666 52399.995 -30312.38 53542.852 -31455.238 52304.757 -31455.238 M 97380.952 -27164.761 97476.19 -27260 97761.904 -27355.238 97952.38 -27355.238 98238.095 -27260 98428.571 -27069.523 98523.809 -26879.047 98619.047 -26498.095 98619.047 -26212.38 98523.809 -25831.428 98428.571 -25640.952 98238.095 -25450.476 97952.38 -25355.238 97761.904 -25355.238 97476.19 -25450.476 97380.952 -25545.714 M 96238.095 -27355.238 96428.571 -27260 96523.809 -27164.761 96619.047 -26974.285 96619.047 -26402.857 96523.809 -26212.38 96428.571 -26117.142 96238.095 -26021.904 95952.38 -26021.904 95761.904 -26117.142 95666.666 -26212.38 95571.428 -26402.857 95571.428 -26974.285 95666.666 -27164.761 95761.904 -27260 95952.38 -27355.238 96238.095 -27355.238 M 94714.285 -27355.238 94714.285 -26021.904 M 94714.285 -26212.38 94619.047 -26117.142 94428.571 -26021.904 94142.856 -26021.904 93952.38 -26117.142 93857.142 -26307.619 93857.142 -27355.238 M 93857.142 -26307.619 93761.904 -26117.142 93571.428 -26021.904 93285.714 -26021.904 93095.237 -26117.142 92999.999 -26307.619 92999.999 -27355.238 M 92047.618 -26021.904 92047.618 -28021.904 M 92047.618 -26117.142 91857.142 -26021.904 91476.189 -26021.904 91285.713 -26117.142 91190.475 -26212.38 91095.237 -26402.857 91095.237 -26974.285 91190.475 -27164.761 91285.713 -27260 91476.189 -27355.238 91857.142 -27355.238 92047.618 -27260 M 89380.951 -26021.904 89380.951 -27355.238 M 90238.094 -26021.904 90238.094 -27069.523 90142.856 -27260 89952.38 -27355.238 89666.665 -27355.238 89476.189 -27260 89380.951 -27164.761 M 88714.284 -26021.904 87952.38 -26021.904 M 88428.57 -25355.238 88428.57 -27069.523 88333.332 -27260 88142.856 -27355.238 87952.38 -27355.238 M 86428.57 -27355.238 86428.57 -26307.619 86523.808 -26117.142 86714.284 -26021.904 87095.237 -26021.904 87285.713 -26117.142 M 86428.57 -27260 86619.046 -27355.238 87095.237 -27355.238 87285.713 -27260 87380.951 -27069.523 87380.951 -26879.047 87285.713 -26688.571 87095.237 -26593.333 86619.046 -26593.333 86428.57 -26498.095 M 84619.046 -27355.238 84619.046 -25355.238 M 84619.046 -27260 84809.522 -27355.238 85190.475 -27355.238 85380.951 -27260 85476.189 -27164.761 85571.427 -26974.285 85571.427 -26402.857 85476.189 -26212.38 85380.951 -26117.142 85190.475 -26021.904 84809.522 -26021.904 84619.046 -26117.142 M 83380.951 -27355.238 83571.427 -27260 83666.665 -27164.761 83761.903 -26974.285 83761.903 -26402.857 83666.665 -26212.38 83571.427 -26117.142 83380.951 -26021.904 83095.236 -26021.904 82904.76 -26117.142 82809.522 -26212.38 82714.284 -26402.857 82714.284 -26974.285 82809.522 -27164.761 82904.76 -27260 83095.236 -27355.238 83380.951 -27355.238 M 81857.141 -27355.238 81857.141 -26021.904 M 81857.141 -26402.857 81761.903 -26212.38 81666.665 -26117.142 81476.189 -26021.904 81285.712 -26021.904 M 79761.903 -27355.238 79761.903 -26307.619 79857.141 -26117.142 80047.617 -26021.904 80428.57 -26021.904 80619.046 -26117.142 M 79761.903 -27260 79952.379 -27355.238 80428.57 -27355.238 80619.046 -27260 80714.284 -27069.523 80714.284 -26879.047 80619.046 -26688.571 80428.57 -26593.333 79952.379 -26593.333 79761.903 -26498.095 M 78904.76 -27260 78714.284 -27355.238 78333.332 -27355.238 78142.855 -27260 78047.617 -27069.523 78047.617 -26974.285 78142.855 -26783.809 78333.332 -26688.571 78619.046 -26688.571 78809.522 -26593.333 78904.76 -26402.857 78904.76 -26307.619 78809.522 -26117.142 78619.046 -26021.904 78333.332 -26021.904 78142.855 -26117.142 M 74809.521 -27355.238 74809.521 -25355.238 M 74809.521 -27260 74999.997 -27355.238 75380.95 -27355.238 75571.426 -27260 75666.664 -27164.761 75761.902 -26974.285 75761.902 -26402.857 75666.664 -26212.38 75571.426 -26117.142 75380.95 -26021.904 74999.997 -26021.904 74809.521 -26117.142 M 73095.235 -27260 73285.711 -27355.238 73666.664 -27355.238 73857.14 -27260 73952.378 -27069.523 73952.378 -26307.619 73857.14 -26117.142 73666.664 -26021.904 73285.711 -26021.904 73095.235 -26117.142 72999.997 -26307.619 72999.997 -26498.095 73952.378 -26688.571 M 70714.282 -26783.809 69761.901 -26783.809 M 70904.758 -27355.238 70238.092 -25355.238 69571.425 -27355.238 M 68142.853 -27260 68333.329 -27355.238 68714.282 -27355.238 68904.758 -27260 68999.996 -27069.523 68999.996 -26307.619 68904.758 -26117.142 68714.282 -26021.904 68333.329 -26021.904 68142.853 -26117.142 68047.615 -26307.619 68047.615 -26498.095 68999.996 -26688.571 M 67190.472 -27355.238 67190.472 -26021.904 M 67190.472 -26402.857 67095.234 -26212.38 66999.996 -26117.142 66809.52 -26021.904 66619.043 -26021.904 M 65666.663 -27355.238 65857.139 -27260 65952.377 -27164.761 66047.615 -26974.285 66047.615 -26402.857 65952.377 -26212.38 65857.139 -26117.142 65666.663 -26021.904 65380.948 -26021.904 65190.472 -26117.142 65095.234 -26212.38 64999.996 -26402.857 64999.996 -26974.285 65095.234 -27164.761 65190.472 -27260 65380.948 -27355.238 65666.663 -27355.238 M 64142.853 -26021.904 64142.853 -27355.238 M 64142.853 -26212.38 64047.615 -26117.142 63857.139 -26021.904 63571.424 -26021.904 63380.948 -26117.142 63285.71 -26307.619 63285.71 -27355.238 M 61476.186 -27355.238 61476.186 -26307.619 61571.424 -26117.142 61761.9 -26021.904 62142.853 -26021.904 62333.329 -26117.142 M 61476.186 -27260 61666.662 -27355.238 62142.853 -27355.238 62333.329 -27260 62428.567 -27069.523 62428.567 -26879.047 62333.329 -26688.571 62142.853 -26593.333 61666.662 -26593.333 61476.186 -26498.095 M 60714.281 -26021.904 60238.091 -27355.238 59761.9 -26021.904 M 58238.09 -27260 58428.566 -27355.238 58809.519 -27355.238 58999.995 -27260 59095.233 -27069.523 59095.233 -26307.619 58999.995 -26117.142 58809.519 -26021.904 58428.566 -26021.904 58238.09 -26117.142 58142.852 -26307.619 58142.852 -26498.095 59095.233 -26688.571 M 57380.947 -27260 57190.471 -27355.238 56809.519 -27355.238 56619.042 -27260 56523.804 -27069.523 56523.804 -26974.285 56619.042 -26783.809 56809.519 -26688.571 57095.233 -26688.571 57285.709 -26593.333 57380.947 -26402.857 57380.947 -26307.619 57285.709 -26117.142 57095.233 -26021.904 56809.519 -26021.904 56619.042 -26117.142" fill="none" stroke-width="300"/><path d="M 48317.619 -47293.333 47841.428 -46960 M 48317.619 -46721.905 47317.619 -46721.905 47317.619 -47102.857 47365.238 -47198.095 47412.857 -47245.714 47508.095 -47293.333 47650.952 -47293.333 47746.19 -47245.714 47793.809 -47198.095 47841.428 -47102.857 47841.428 -46721.905 M 48317.619 -48245.714 48317.619 -47674.286 M 48317.619 -47960 47317.619 -47960 47460.476 -47864.762 47555.714 -47769.524 47603.333 -47674.286 M 96916.666 -36462.619 97249.999 -35986.428 M 97488.094 -36462.619 97488.094 -35462.619 97107.142 -35462.619 97011.904 -35510.238 96964.285 -35557.857 96916.666 -35653.095 96916.666 -35795.952 96964.285 -35891.19 97011.904 -35938.809 97107.142 -35986.428 97488.094 -35986.428 M 96011.904 -35462.619 96488.094 -35462.619 96535.713 -35938.809 96488.094 -35891.19 96392.856 -35843.571 96154.761 -35843.571 96059.523 -35891.19 96011.904 -35938.809 95964.285 -36034.047 95964.285 -36272.142 96011.904 -36367.38 96059.523 -36415 96154.761 -36462.619 96392.856 -36462.619 96488.094 -36415 96535.713 -36367.38 M 39212.619 -47083.333 38736.428 -46750 M 39212.619 -46511.905 38212.619 -46511.905 38212.619 -46892.857 38260.238 -46988.095 38307.857 -47035.714 38403.095 -47083.333 38545.952 -47083.333 38641.19 -47035.714 38688.809 -46988.095 38736.428 -46892.857 38736.428 -46511.905 M 38307.857 -47464.286 38260.238 -47511.905 38212.619 -47607.143 38212.619 -47845.238 38260.238 -47940.476 38307.857 -47988.095 38403.095 -48035.714 38498.333 -48035.714 38641.19 -47988.095 39212.619 -47416.667 39212.619 -48035.714 M 96916.666 -39962.619 97249.999 -39486.428 M 97488.094 -39962.619 97488.094 -38962.619 97107.142 -38962.619 97011.904 -39010.238 96964.285 -39057.857 96916.666 -39153.095 96916.666 -39295.952 96964.285 -39391.19 97011.904 -39438.809 97107.142 -39486.428 97488.094 -39486.428 M 96059.523 -39295.952 96059.523 -39962.619 M 96297.618 -38915 96535.713 -39629.285 95916.666 -39629.285 M 96916.666 -43712.619 97249.999 -43236.428 M 97488.094 -43712.619 97488.094 -42712.619 97107.142 -42712.619 97011.904 -42760.238 96964.285 -42807.857 96916.666 -42903.095 96916.666 -43045.952 96964.285 -43141.19 97011.904 -43188.809 97107.142 -43236.428 97488.094 -43236.428 M 96583.332 -42712.619 95964.285 -42712.619 96297.618 -43093.571 96154.761 -43093.571 96059.523 -43141.19 96011.904 -43188.809 95964.285 -43284.047 95964.285 -43522.142 96011.904 -43617.38 96059.523 -43665 96154.761 -43712.619 96440.475 -43712.619 96535.713 -43665 96583.332 -43617.38" fill="none" stroke-width="150"/><path d="M 46855 -44190 46525 -44190 M 44115 -44190 44445 -44190 M 46855 -50730 46855 -44190 M 46525 -50730 46855 -50730 M 44445 -50730 44115 -50730 44115 -44190 M 106255 -37330 106255 -37000 M 106255 -34590 106255 -34920 M 99715 -37330 106255 -37330 M 99715 -37000 99715 -37330 M 99715 -34920 99715 -34590 106255 -34590 M 42855 -44190 42525 -44190 M 40115 -44190 40445 -44190 M 42855 -50730 42855 -44190 M 42525 -50730 42855 -50730 M 40445 -50730 40115 -50730 40115 -44190 M 106255 -40950 106255 -40620 M 106255 -38210 106255 -38540 M 99715 -40950 106255 -40950 M 99715 -40620 99715 -40950 M 99715 -38540 99715 -38210 106255 -38210 M 106255 -44580 106255 -44250 M 106255 -41840 106255 -42170 M 99715 -44580 106255 -44580 M 99715 -44250 99715 -44580 M 99715 -42170 99715 -41840 106255 -41840" fill="none" stroke-width="120"/></g></g></svg>