<svg version="1.1" xmlns="http://www.w3.org/2000/svg" xmlns:xlink="http://www.w3.org/1999/xlink" stroke-linecap="round" stroke-linejoin="round" stroke-width="0" fill-rule="evenodd" width="79.3mm" height="70mm" viewBox="38000 -95700 79300 70000" id="sreN-_sSd5cgbdoCxJsh"><defs><circle cx="0" cy="0" r="350" id="sreN-_sSd5cgbdoCxJsh_pad-1"/><circle cx="0" cy="0" r="400" id="sreN-_sSd5cgbdoCxJsh_pad-2"/><circle cx="0" cy="0" r="450" id="sreN-_sSd5cgbdoCxJsh_pad-3"/><circle cx="0" cy="0" r="500" id="sreN-_sSd5cgbdoCxJsh_pad-4"/><circle cx="0" cy="0" r="550" id="sreN-_sSd5cgbdoCxJsh_pad-5"/><circle cx="0" cy="0" r="650" id="sreN-_sSd5cgbdoCxJsh_pad-6"/><circle cx="0" cy="0" r="1500" id="sreN-_sSd5cgbdoCxJsh_pad-7"/></defs><g transform="translate(0,-121400) scale(1,-1)" fill="currentColor" stroke="currentColor"><use xlink:href="#sreN-_sSd5cgbdoCxJsh_pad-1" x="38485" y="-46240"/><use xlink:href="#sreN-_sSd5cgbdoCxJsh_pad-1" x="38485" y="-48780"/><use xlink:href="#sreN-_sSd5cgbdoCxJsh_pad-2" x="38485" y="-37960"/><use xlink:href="#sreN-_sSd5cgbdoCxJsh_pad-2" x="38485" y="-40960"/><use xlink:href="#sreN-_sSd5cgbdoCxJsh_pad-2" x="41330" y="-62170"/><use xlink:href="#sreN-_sSd5cgbdoCxJsh_pad-2" x="41330" y="-67250"/><use xlink:href="#sreN-_sSd5cgbdoCxJsh_pad-2" x="46410" y="-64710"/><use xlink:href="#sreN-_sSd5cgbdoCxJsh_pad-2" x="113985" y="-49650"/><use xlink:href="#sreN-_sSd5cgbdoCxJsh_pad-2" x="113985" y="-57270"/><use xlink:href="#sreN-_sSd5cgbdoCxJsh_pad-3" x="115000" y="-35980"/><use xlink:href="#sreN-_sSd5cgbdoCxJsh_pad-3" x="115000" y="-37250"/><use xlink:href="#sreN-_sSd5cgbdoCxJsh_pad-3" x="115000" y="-38520"/><use xlink:href="#sreN-_sSd5cgbdoCxJsh_pad-3" x="115000" y="-39790"/><use xlink:href="#sreN-_sSd5cgbdoCxJsh_pad-4" x="51445" y="-50460"/><use xlink:href="#sreN-_sSd5cgbdoCxJsh_pad-4" x="51445" y="-53000"/><use xlink:href="#sreN-_sSd5cgbdoCxJsh_pad-4" x="53985" y="-50460"/><use xlink:href="#sreN-_sSd5cgbdoCxJsh_pad-4" x="53985" y="-53000"/><use xlink:href="#sreN-_sSd5cgbdoCxJsh_pad-4" x="54367" y="-58717"/><use xlink:href="#sreN-_sSd5cgbdoCxJsh_pad-4" x="56525" y="-50460"/><use xlink:href="#sreN-_sSd5cgbdoCxJsh_pad-4" x="56525" y="-53000"/><use xlink:href="#sreN-_sSd5cgbdoCxJsh_pad-4" x="56907" y="-58717"/><use xlink:href="#sreN-_sSd5cgbdoCxJsh_pad-4" x="57765" y="-82840"/><use xlink:href="#sreN-_sSd5cgbdoCxJsh_pad-4" x="57765" y="-85380"/><use xlink:href="#sreN-_sSd5cgbdoCxJsh_pad-4" x="57765" y="-87920"/><use xlink:href="#sreN-_sSd5cgbdoCxJsh_pad-4" x="57765" y="-90460"/><use xlink:href="#sreN-_sSd5cgbdoCxJsh_pad-4" x="59065" y="-50460"/><use xlink:href="#sreN-_sSd5cgbdoCxJsh_pad-4" x="59065" y="-53000"/><use xlink:href="#sreN-_sSd5cgbdoCxJsh_pad-4" x="59447" y="-58717"/><use xlink:href="#sreN-_sSd5cgbdoCxJsh_pad-4" x="61605" y="-50460"/><use xlink:href="#sreN-_sSd5cgbdoCxJsh_pad-4" x="61605" y="-53000"/><use xlink:href="#sreN-_sSd5cgbdoCxJsh_pad-4" x="61987" y="-58717"/><use xlink:href="#sreN-_sSd5cgbdoCxJsh_pad-4" x="64145" y="-50460"/><use xlink:href="#sreN-_sSd5cgbdoCxJsh_pad-4" x="64145" y="-53000"/><use xlink:href="#sreN-_sSd5cgbdoCxJsh_pad-4" x="64528" y="-58717"/><use xlink:href="#sreN-_sSd5cgbdoCxJsh_pad-4" x="66685" y="-50460"/><use xlink:href="#sreN-_sSd5cgbdoCxJsh_pad-4" x="66685" y="-53000"/><use xlink:href="#sreN-_sSd5cgbdoCxJsh_pad-4" x="67067" y="-58717"/><use xlink:href="#sreN-_sSd5cgbdoCxJsh_pad-4" x="69225" y="-50460"/><use xlink:href="#sreN-_sSd5cgbdoCxJsh_pad-4" x="69225" y="-53000"/><use xlink:href="#sreN-_sSd5cgbdoCxJsh_pad-4" x="69608" y="-58717"/><use xlink:href="#sreN-_sSd5cgbdoCxJsh_pad-4" x="71765" y="-50460"/><use xlink:href="#sreN-_sSd5cgbdoCxJsh_pad-4" x="71765" y="-53000"/><use xlink:href="#sreN-_sSd5cgbdoCxJsh_pad-4" x="72147" y="-58717"/><use xlink:href="#sreN-_sSd5cgbdoCxJsh_pad-4" x="74305" y="-50460"/><use xlink:href="#sreN-_sSd5cgbdoCxJsh_pad-4" x="74305" y="-53000"/><use xlink:href="#sreN-_sSd5cgbdoCxJsh_pad-4" x="74688" y="-58717"/><use xlink:href="#sreN-_sSd5cgbdoCxJsh_pad-4" x="76845" y="-50460"/><use xlink:href="#sreN-_sSd5cgbdoCxJsh_pad-4" x="76845" y="-53000"/><use xlink:href="#sreN-_sSd5cgbdoCxJsh_pad-4" x="77227" y="-58717"/><use xlink:href="#sreN-_sSd5cgbdoCxJsh_pad-4" x="79385" y="-50460"/><use xlink:href="#sreN-_sSd5cgbdoCxJsh_pad-4" x="79385" y="-53000"/><use xlink:href="#sreN-_sSd5cgbdoCxJsh_pad-4" x="81925" y="-50460"/><use xlink:href="#sreN-_sSd5cgbdoCxJsh_pad-4" x="81925" y="-53000"/><use xlink:href="#sreN-_sSd5cgbdoCxJsh_pad-4" x="83365" y="-58460"/><use xlink:href="#sreN-_sSd5cgbdoCxJsh_pad-4" x="84465" y="-50460"/><use xlink:href="#sreN-_sSd5cgbdoCxJsh_pad-4" x="84465" y="-53000"/><use xlink:href="#sreN-_sSd5cgbdoCxJsh_pad-4" x="85905" y="-58460"/><use xlink:href="#sreN-_sSd5cgbdoCxJsh_pad-4" x="87005" y="-50460"/><use xlink:href="#sreN-_sSd5cgbdoCxJsh_pad-4" x="87005" y="-53000"/><use xlink:href="#sreN-_sSd5cgbdoCxJsh_pad-4" x="88445" y="-58460"/><use xlink:href="#sreN-_sSd5cgbdoCxJsh_pad-4" x="89545" y="-50460"/><use xlink:href="#sreN-_sSd5cgbdoCxJsh_pad-4" x="89545" y="-53000"/><use xlink:href="#sreN-_sSd5cgbdoCxJsh_pad-4" x="90985" y="-58460"/><use xlink:href="#sreN-_sSd5cgbdoCxJsh_pad-4" x="92085" y="-50460"/><use xlink:href="#sreN-_sSd5cgbdoCxJsh_pad-4" x="92085" y="-53000"/><use xlink:href="#sreN-_sSd5cgbdoCxJsh_pad-4" x="94625" y="-50460"/><use xlink:href="#sreN-_sSd5cgbdoCxJsh_pad-4" x="94625" y="-53000"/><use xlink:href="#sreN-_sSd5cgbdoCxJsh_pad-4" x="97165" y="-50460"/><use xlink:href="#sreN-_sSd5cgbdoCxJsh_pad-4" x="97165" y="-53000"/><use xlink:href="#sreN-_sSd5cgbdoCxJsh_pad-4" x="99705" y="-50460"/><use xlink:href="#sreN-_sSd5cgbdoCxJsh_pad-4" x="99705" y="-53000"/><use xlink:href="#sreN-_sSd5cgbdoCxJsh_pad-4" x="100945" y="-82840"/><use xlink:href="#sreN-_sSd5cgbdoCxJsh_pad-4" x="100945" y="-85380"/><use xlink:href="#sreN-_sSd5cgbdoCxJsh_pad-4" x="100945" y="-87920"/><use xlink:href="#sreN-_sSd5cgbdoCxJsh_pad-4" x="100945" y="-90460"/><use xlink:href="#sreN-_sSd5cgbdoCxJsh_pad-4" x="109485" y="-60840"/><use xlink:href="#sreN-_sSd5cgbdoCxJsh_pad-4" x="109485" y="-63380"/><use xlink:href="#sreN-_sSd5cgbdoCxJsh_pad-4" x="109485" y="-65920"/><use xlink:href="#sreN-_sSd5cgbdoCxJsh_pad-4" x="109485" y="-68460"/><use xlink:href="#sreN-_sSd5cgbdoCxJsh_pad-4" x="109485" y="-71000"/><use xlink:href="#sreN-_sSd5cgbdoCxJsh_pad-4" x="113485" y="-79660"/><use xlink:href="#sreN-_sSd5cgbdoCxJsh_pad-4" x="113485" y="-87260"/><use xlink:href="#sreN-_sSd5cgbdoCxJsh_pad-5" x="96235" y="-58210"/><use xlink:href="#sreN-_sSd5cgbdoCxJsh_pad-5" x="96235" y="-62710"/><use xlink:href="#sreN-_sSd5cgbdoCxJsh_pad-5" x="102735" y="-58210"/><use xlink:href="#sreN-_sSd5cgbdoCxJsh_pad-5" x="102735" y="-62710"/><use xlink:href="#sreN-_sSd5cgbdoCxJsh_pad-6" x="45430" y="-81915"/><use xlink:href="#sreN-_sSd5cgbdoCxJsh_pad-6" x="45430" y="-86995"/><use xlink:href="#sreN-_sSd5cgbdoCxJsh_pad-7" x="39500" y="-27200"/><use xlink:href="#sreN-_sSd5cgbdoCxJsh_pad-7" x="39500" y="-94200"/><use xlink:href="#sreN-_sSd5cgbdoCxJsh_pad-7" x="115800" y="-27200"/><use xlink:href="#sreN-_sSd5cgbdoCxJsh_pad-7" x="115800" y="-94200"/></g></svg>