<svg version="1.1" xmlns="http://www.w3.org/2000/svg" xmlns:xlink="http://www.w3.org/1999/xlink" stroke-linecap="round" stroke-linejoin="round" stroke-width="0" fill-rule="evenodd" clip-rule="evenodd" id="dPuIM4XFvyMTnnreA2wb_top" viewBox="35500 -98200 84300 75000" width="84.3mm" height="75mm" class="w-100 h-100"><defs><style>.dPuIM4XFvyMTnnreA2wb_fr4 {color: #666666;}
.dPuIM4XFvyMTnnreA2wb_cu {color: #cccccc;}
.dPuIM4XFvyMTnnreA2wb_cf {color: #cc9933;}
.dPuIM4XFvyMTnnreA2wb_sm {color: #004200; opacity: 0.75;}
.dPuIM4XFvyMTnnreA2wb_ss {color: #ffffff;}
.dPuIM4XFvyMTnnreA2wb_sp {color: #999999;}
.dPuIM4XFvyMTnnreA2wb_out {color: #000000;}</style><rect x="-800" y="-800" width="1600" height="1600" rx="800" ry="800" id="LcGlvPa2f3tY90oxqjSV_pad-12"/><circle cx="0" cy="0" r="800" id="LcGlvPa2f3tY90oxqjSV_pad-13"/><rect x="-850" y="-850" width="1700" height="1700" rx="850" ry="850" id="LcGlvPa2f3tY90oxqjSV_pad-14"/><rect x="-850" y="-850" width="1700" height="1700" id="LcGlvPa2f3tY90oxqjSV_pad-15"/><circle cx="0" cy="0" r="1000" id="LcGlvPa2f3tY90oxqjSV_pad-16"/><rect x="-1000" y="-1000" width="2000" height="2000" id="LcGlvPa2f3tY90oxqjSV_pad-17"/><circle cx="0" cy="0" r="720" id="LcGlvPa2f3tY90oxqjSV_pad-18"/><rect x="-700" y="-700" width="1400" height="1400" rx="700" ry="700" id="LcGlvPa2f3tY90oxqjSV_pad-19"/><circle cx="0" cy="0" r="700" id="LcGlvPa2f3tY90oxqjSV_pad-20"/><rect x="-1300" y="-1300" width="2600" height="2600" id="LcGlvPa2f3tY90oxqjSV_pad-21"/><circle cx="0" cy="0" r="1300" id="LcGlvPa2f3tY90oxqjSV_pad-22"/><circle cx="0" cy="0" r="850" id="LcGlvPa2f3tY90oxqjSV_pad-23"/><rect x="-900" y="-535" width="1800" height="1070" id="LcGlvPa2f3tY90oxqjSV_pad-24"/><rect x="-900" y="-535" width="1800" height="1070" rx="535" ry="535" id="LcGlvPa2f3tY90oxqjSV_pad-25"/><mask id="LcGlvPa2f3tY90oxqjSV_clear-1" fill="#000" stroke="#000"><g><rect x="36315.759" y="-98075" width="83329.241" height="74765" fill="#fff"/><use xlink:href="#LcGlvPa2f3tY90oxqjSV_pad-12" x="113985" y="-49650"/><use xlink:href="#LcGlvPa2f3tY90oxqjSV_pad-13" x="113985" y="-57270"/><use xlink:href="#LcGlvPa2f3tY90oxqjSV_pad-14" x="72147.5" y="-58717.5"/><use xlink:href="#LcGlvPa2f3tY90oxqjSV_pad-14" x="69607.5" y="-58717.5"/><use xlink:href="#LcGlvPa2f3tY90oxqjSV_pad-15" x="77227.5" y="-58717.5"/><use xlink:href="#LcGlvPa2f3tY90oxqjSV_pad-14" x="54367.5" y="-58717.5"/><use xlink:href="#LcGlvPa2f3tY90oxqjSV_pad-14" x="56907.5" y="-58717.5"/><use xlink:href="#LcGlvPa2f3tY90oxqjSV_pad-14" x="59447.5" y="-58717.5"/><use xlink:href="#LcGlvPa2f3tY90oxqjSV_pad-14" x="61987.5" y="-58717.5"/><use xlink:href="#LcGlvPa2f3tY90oxqjSV_pad-14" x="74687.5" y="-58717.5"/><use xlink:href="#LcGlvPa2f3tY90oxqjSV_pad-14" x="64527.5" y="-58717.5"/><use xlink:href="#LcGlvPa2f3tY90oxqjSV_pad-14" x="67067.5" y="-58717.5"/><use xlink:href="#LcGlvPa2f3tY90oxqjSV_pad-16" x="113485" y="-87260"/><use xlink:href="#LcGlvPa2f3tY90oxqjSV_pad-17" x="113485" y="-79660"/><use xlink:href="#LcGlvPa2f3tY90oxqjSV_pad-18" x="41330" y="-62170"/><use xlink:href="#LcGlvPa2f3tY90oxqjSV_pad-18" x="46410" y="-64710"/><use xlink:href="#LcGlvPa2f3tY90oxqjSV_pad-18" x="41330" y="-67250"/><use xlink:href="#LcGlvPa2f3tY90oxqjSV_pad-19" x="38485" y="-48780"/><use xlink:href="#LcGlvPa2f3tY90oxqjSV_pad-20" x="38485" y="-46240"/><use xlink:href="#LcGlvPa2f3tY90oxqjSV_pad-16" x="102735" y="-62710"/><use xlink:href="#LcGlvPa2f3tY90oxqjSV_pad-16" x="96235" y="-62710"/><use xlink:href="#LcGlvPa2f3tY90oxqjSV_pad-16" x="102735" y="-58210"/><use xlink:href="#LcGlvPa2f3tY90oxqjSV_pad-16" x="96235" y="-58210"/><use xlink:href="#LcGlvPa2f3tY90oxqjSV_pad-21" x="45430" y="-81915"/><use xlink:href="#LcGlvPa2f3tY90oxqjSV_pad-22" x="45430" y="-86995"/><use xlink:href="#LcGlvPa2f3tY90oxqjSV_pad-23" x="100945" y="-82840"/><use xlink:href="#LcGlvPa2f3tY90oxqjSV_pad-23" x="100945" y="-85380"/><use xlink:href="#LcGlvPa2f3tY90oxqjSV_pad-23" x="100945" y="-87920"/><use xlink:href="#LcGlvPa2f3tY90oxqjSV_pad-23" x="100945" y="-90460"/><use xlink:href="#LcGlvPa2f3tY90oxqjSV_pad-23" x="57765" y="-82840"/><use xlink:href="#LcGlvPa2f3tY90oxqjSV_pad-23" x="57765" y="-85380"/><use xlink:href="#LcGlvPa2f3tY90oxqjSV_pad-23" x="57765" y="-87920"/><use xlink:href="#LcGlvPa2f3tY90oxqjSV_pad-23" x="57765" y="-90460"/><use xlink:href="#LcGlvPa2f3tY90oxqjSV_pad-24" x="115000" y="-35980"/><use xlink:href="#LcGlvPa2f3tY90oxqjSV_pad-25" x="115000" y="-37250"/><use xlink:href="#LcGlvPa2f3tY90oxqjSV_pad-25" x="115000" y="-38520"/><use xlink:href="#LcGlvPa2f3tY90oxqjSV_pad-25" x="115000" y="-39790"/><use xlink:href="#LcGlvPa2f3tY90oxqjSV_pad-14" x="83365" y="-58460"/><use xlink:href="#LcGlvPa2f3tY90oxqjSV_pad-14" x="85905" y="-58460"/><use xlink:href="#LcGlvPa2f3tY90oxqjSV_pad-14" x="88445" y="-58460"/><use xlink:href="#LcGlvPa2f3tY90oxqjSV_pad-15" x="90985" y="-58460"/><use xlink:href="#LcGlvPa2f3tY90oxqjSV_pad-14" x="51445" y="-53000"/><use xlink:href="#LcGlvPa2f3tY90oxqjSV_pad-15" x="51445" y="-50460"/><use xlink:href="#LcGlvPa2f3tY90oxqjSV_pad-14" x="53985" y="-53000"/><use xlink:href="#LcGlvPa2f3tY90oxqjSV_pad-14" x="53985" y="-50460"/><use xlink:href="#LcGlvPa2f3tY90oxqjSV_pad-14" x="56525" y="-53000"/><use xlink:href="#LcGlvPa2f3tY90oxqjSV_pad-14" x="56525" y="-50460"/><use xlink:href="#LcGlvPa2f3tY90oxqjSV_pad-14" x="59065" y="-53000"/><use xlink:href="#LcGlvPa2f3tY90oxqjSV_pad-14" x="59065" y="-50460"/><use xlink:href="#LcGlvPa2f3tY90oxqjSV_pad-14" x="61605" y="-53000"/><use xlink:href="#LcGlvPa2f3tY90oxqjSV_pad-14" x="61605" y="-50460"/><use xlink:href="#LcGlvPa2f3tY90oxqjSV_pad-14" x="64145" y="-53000"/><use xlink:href="#LcGlvPa2f3tY90oxqjSV_pad-14" x="64145" y="-50460"/><use xlink:href="#LcGlvPa2f3tY90oxqjSV_pad-14" x="66685" y="-53000"/><use xlink:href="#LcGlvPa2f3tY90oxqjSV_pad-14" x="66685" y="-50460"/><use xlink:href="#LcGlvPa2f3tY90oxqjSV_pad-14" x="69225" y="-53000"/><use xlink:href="#LcGlvPa2f3tY90oxqjSV_pad-14" x="69225" y="-50460"/><use xlink:href="#LcGlvPa2f3tY90oxqjSV_pad-14" x="71765" y="-53000"/><use xlink:href="#LcGlvPa2f3tY90oxqjSV_pad-14" x="71765" y="-50460"/><use xlink:href="#LcGlvPa2f3tY90oxqjSV_pad-14" x="74305" y="-53000"/><use xlink:href="#LcGlvPa2f3tY90oxqjSV_pad-14" x="74305" y="-50460"/><use xlink:href="#LcGlvPa2f3tY90oxqjSV_pad-14" x="76845" y="-53000"/><use xlink:href="#LcGlvPa2f3tY90oxqjSV_pad-14" x="76845" y="-50460"/><use xlink:href="#LcGlvPa2f3tY90oxqjSV_pad-14" x="79385" y="-53000"/><use xlink:href="#LcGlvPa2f3tY90oxqjSV_pad-14" x="79385" y="-50460"/><use xlink:href="#LcGlvPa2f3tY90oxqjSV_pad-14" x="81925" y="-53000"/><use xlink:href="#LcGlvPa2f3tY90oxqjSV_pad-14" x="81925" y="-50460"/><use xlink:href="#LcGlvPa2f3tY90oxqjSV_pad-14" x="84465" y="-53000"/><use xlink:href="#LcGlvPa2f3tY90oxqjSV_pad-14" x="84465" y="-50460"/><use xlink:href="#LcGlvPa2f3tY90oxqjSV_pad-14" x="87005" y="-53000"/><use xlink:href="#LcGlvPa2f3tY90oxqjSV_pad-14" x="87005" y="-50460"/><use xlink:href="#LcGlvPa2f3tY90oxqjSV_pad-14" x="89545" y="-53000"/><use xlink:href="#LcGlvPa2f3tY90oxqjSV_pad-14" x="89545" y="-50460"/><use xlink:href="#LcGlvPa2f3tY90oxqjSV_pad-14" x="92085" y="-53000"/><use xlink:href="#LcGlvPa2f3tY90oxqjSV_pad-14" x="92085" y="-50460"/><use xlink:href="#LcGlvPa2f3tY90oxqjSV_pad-14" x="94625" y="-53000"/><use xlink:href="#LcGlvPa2f3tY90oxqjSV_pad-14" x="94625" y="-50460"/><use xlink:href="#LcGlvPa2f3tY90oxqjSV_pad-14" x="97165" y="-53000"/><use xlink:href="#LcGlvPa2f3tY90oxqjSV_pad-14" x="97165" y="-50460"/><use xlink:href="#LcGlvPa2f3tY90oxqjSV_pad-14" x="99705" y="-53000"/><use xlink:href="#LcGlvPa2f3tY90oxqjSV_pad-14" x="99705" y="-50460"/><use xlink:href="#LcGlvPa2f3tY90oxqjSV_pad-14" x="109485" y="-71000"/><use xlink:href="#LcGlvPa2f3tY90oxqjSV_pad-14" x="109485" y="-68460"/><use xlink:href="#LcGlvPa2f3tY90oxqjSV_pad-14" x="109485" y="-65920"/><use xlink:href="#LcGlvPa2f3tY90oxqjSV_pad-14" x="109485" y="-63380"/><use xlink:href="#LcGlvPa2f3tY90oxqjSV_pad-15" x="109485" y="-60840"/><use xlink:href="#LcGlvPa2f3tY90oxqjSV_pad-13" x="38485" y="-37960"/><use xlink:href="#LcGlvPa2f3tY90oxqjSV_pad-13" x="38485" y="-40960"/></g></mask><rect x="-800" y="-800" width="1600" height="1600" rx="800" ry="800" id="r171R0hu25jbCLuNpegS_pad-10"/><circle cx="0" cy="0" r="800" id="r171R0hu25jbCLuNpegS_pad-11"/><rect x="-850" y="-850" width="1700" height="1700" rx="850" ry="850" id="r171R0hu25jbCLuNpegS_pad-12"/><rect x="-850" y="-850" width="1700" height="1700" id="r171R0hu25jbCLuNpegS_pad-13"/><circle cx="0" cy="0" r="1000" id="r171R0hu25jbCLuNpegS_pad-14"/><rect x="-1000" y="-1000" width="2000" height="2000" id="r171R0hu25jbCLuNpegS_pad-15"/><circle cx="0" cy="0" r="720" id="r171R0hu25jbCLuNpegS_pad-16"/><rect x="-700" y="-700" width="1400" height="1400" rx="700" ry="700" id="r171R0hu25jbCLuNpegS_pad-17"/><circle cx="0" cy="0" r="700" id="r171R0hu25jbCLuNpegS_pad-18"/><rect x="-1300" y="-1300" width="2600" height="2600" id="r171R0hu25jbCLuNpegS_pad-19"/><circle cx="0" cy="0" r="1300" id="r171R0hu25jbCLuNpegS_pad-20"/><circle cx="0" cy="0" r="850" id="r171R0hu25jbCLuNpegS_pad-21"/><rect x="-900" y="-535" width="1800" height="1070" id="r171R0hu25jbCLuNpegS_pad-22"/><rect x="-900" y="-535" width="1800" height="1070" rx="535" ry="535" id="r171R0hu25jbCLuNpegS_pad-23"/><rect x="-800" y="-800" width="1600" height="1600" rx="800" ry="800" id="xxDKoyGAvSIxWM88nJmp_pad-10"/><circle cx="0" cy="0" r="800" id="xxDKoyGAvSIxWM88nJmp_pad-11"/><rect x="-850" y="-850" width="1700" height="1700" rx="850" ry="850" id="xxDKoyGAvSIxWM88nJmp_pad-12"/><rect x="-850" y="-850" width="1700" height="1700" id="xxDKoyGAvSIxWM88nJmp_pad-13"/><circle cx="0" cy="0" r="1000" id="xxDKoyGAvSIxWM88nJmp_pad-14"/><rect x="-1000" y="-1000" width="2000" height="2000" id="xxDKoyGAvSIxWM88nJmp_pad-15"/><circle cx="0" cy="0" r="720" id="xxDKoyGAvSIxWM88nJmp_pad-16"/><rect x="-700" y="-700" width="1400" height="1400" rx="700" ry="700" id="xxDKoyGAvSIxWM88nJmp_pad-17"/><circle cx="0" cy="0" r="700" id="xxDKoyGAvSIxWM88nJmp_pad-18"/><rect x="-1300" y="-1300" width="2600" height="2600" id="xxDKoyGAvSIxWM88nJmp_pad-19"/><circle cx="0" cy="0" r="1300" id="xxDKoyGAvSIxWM88nJmp_pad-20"/><circle cx="0" cy="0" r="850" id="xxDKoyGAvSIxWM88nJmp_pad-21"/><rect x="-900" y="-535" width="1800" height="1070" id="xxDKoyGAvSIxWM88nJmp_pad-22"/><rect x="-900" y="-535" width="1800" height="1070" rx="535" ry="535" id="xxDKoyGAvSIxWM88nJmp_pad-23"/><circle cx="0" cy="0" r="1750" id="xxDKoyGAvSIxWM88nJmp_pad-24"/><circle cx="0" cy="0" r="350" id="sreN-_sSd5cgbdoCxJsh_pad-1"/><circle cx="0" cy="0" r="400" id="sreN-_sSd5cgbdoCxJsh_pad-2"/><circle cx="0" cy="0" r="450" id="sreN-_sSd5cgbdoCxJsh_pad-3"/><circle cx="0" cy="0" r="500" id="sreN-_sSd5cgbdoCxJsh_pad-4"/><circle cx="0" cy="0" r="550" id="sreN-_sSd5cgbdoCxJsh_pad-5"/><circle cx="0" cy="0" r="650" id="sreN-_sSd5cgbdoCxJsh_pad-6"/><circle cx="0" cy="0" r="1500" id="sreN-_sSd5cgbdoCxJsh_pad-7"/><g id="dPuIM4XFvyMTnnreA2wb_top_silkscreen"><g mask="url(#LcGlvPa2f3tY90oxqjSV_clear-1)"><path d="M 51750 -57000 79000 -57000 79000 -74000 51750 -74000 51750 -57000 M 81500 -56750 93000 -56750 93000 -69250 81500 -69250 81500 -56750 M 56000 -75250 103000 -75250 103000 -98000 56000 -98000 56000 -75250 M 112077.619 -53626.666 111601.428 -53959.999 M 112077.619 -54198.094 111077.619 -54198.094 111077.619 -53817.142 111125.238 -53721.904 111172.857 -53674.285 111268.095 -53626.666 111410.952 -53626.666 111506.19 -53674.285 111553.809 -53721.904 111601.428 -53817.142 111601.428 -54198.094 M 111077.619 -52769.523 111077.619 -52959.999 111125.238 -53055.237 111172.857 -53102.856 111315.714 -53198.094 111506.19 -53245.713 111887.142 -53245.713 111982.38 -53198.094 112030 -53150.475 112077.619 -53055.237 112077.619 -52864.761 112030 -52769.523 111982.38 -52721.904 111887.142 -52674.285 111649.047 -52674.285 111553.809 -52721.904 111506.19 -52769.523 111458.571 -52864.761 111458.571 -53055.237 111506.19 -53150.475 111553.809 -53198.094 111649.047 -53245.713 M 50676.904 -69904.762 50676.904 -69428.572 M 50962.619 -70000 49962.619 -69666.667 50962.619 -69333.334 M 50962.619 -69000 49962.619 -69000 49962.619 -68761.905 50010.238 -68619.048 50105.476 -68523.81 50200.714 -68476.191 50391.19 -68428.572 50534.047 -68428.572 50724.523 -68476.191 50819.761 -68523.81 50915 -68619.048 50962.619 -68761.905 50962.619 -69000 M 50867.38 -67428.572 50915 -67476.191 50962.619 -67619.048 50962.619 -67714.286 50915 -67857.143 50819.761 -67952.381 50724.523 -68000 50534.047 -68047.619 50391.19 -68047.619 50200.714 -68000 50105.476 -67952.381 50010.238 -67857.143 49962.619 -67714.286 49962.619 -67619.048 50010.238 -67476.191 50057.857 -67428.572 M 50438.809 -66238.095 50438.809 -65904.762 M 50962.619 -65761.905 50962.619 -66238.095 49962.619 -66238.095 49962.619 -65761.905 M 50962.619 -65428.571 50295.952 -64904.762 M 50295.952 -65428.571 50962.619 -64904.762 M 50295.952 -64666.666 50295.952 -64285.714 M 49962.619 -64523.809 50819.761 -64523.809 50915 -64476.19 50962.619 -64380.952 50962.619 -64285.714 M 50915 -63571.428 50962.619 -63666.666 50962.619 -63857.142 50915 -63952.38 50819.761 -63999.999 50438.809 -63999.999 50343.571 -63952.38 50295.952 -63857.142 50295.952 -63666.666 50343.571 -63571.428 50438.809 -63523.809 50534.047 -63523.809 50629.285 -63999.999 M 50962.619 -63095.237 50295.952 -63095.237 M 50486.428 -63095.237 50391.19 -63047.618 50343.571 -62999.999 50295.952 -62904.761 50295.952 -62809.523 M 50295.952 -62476.189 50962.619 -62476.189 M 50391.19 -62476.189 50343.571 -62428.57 50295.952 -62333.332 50295.952 -62190.475 50343.571 -62095.237 50438.809 -62047.618 50962.619 -62047.618 M 50962.619 -61428.57 50915 -61523.808 50867.38 -61571.427 50772.142 -61619.046 50486.428 -61619.046 50391.19 -61571.427 50343.571 -61523.808 50295.952 -61428.57 50295.952 -61285.713 50343.571 -61190.475 50391.19 -61142.856 50486.428 -61095.237 50772.142 -61095.237 50867.38 -61142.856 50915 -61190.475 50962.619 -61285.713 50962.619 -61428.57 M 111821.428 -75688.809 111964.285 -75736.428 112011.904 -75784.047 112059.523 -75879.285 112059.523 -76022.142 112011.904 -76117.38 111964.285 -76165 111869.047 -76212.619 111488.095 -76212.619 111488.095 -75212.619 111821.428 -75212.619 111916.666 -75260.238 111964.285 -75307.857 112011.904 -75403.095 112011.904 -75498.333 111964.285 -75593.571 111916.666 -75641.19 111821.428 -75688.809 111488.095 -75688.809 M 112916.666 -75545.952 112916.666 -76212.619 M 112488.095 -75545.952 112488.095 -76069.761 112535.714 -76165 112630.952 -76212.619 112773.809 -76212.619 112869.047 -76165 112916.666 -76117.38 M 113297.619 -75545.952 113821.428 -75545.952 113297.619 -76212.619 113821.428 -76212.619 M 114107.143 -75545.952 114630.952 -75545.952 114107.143 -76212.619 114630.952 -76212.619 M 115392.857 -76165 115297.619 -76212.619 115107.143 -76212.619 115011.905 -76165 114964.286 -76069.761 114964.286 -75688.809 115011.905 -75593.571 115107.143 -75545.952 115297.619 -75545.952 115392.857 -75593.571 115440.476 -75688.809 115440.476 -75784.047 114964.286 -75879.285 M 115869.048 -76212.619 115869.048 -75545.952 M 115869.048 -75736.428 115916.667 -75641.19 115964.286 -75593.571 116059.524 -75545.952 116154.762 -75545.952 M 116106.666 -80030.951 116106.666 -79269.047 M 116487.619 -79649.999 115725.714 -79649.999 M 43865.952 -59157.619 43532.619 -58681.428 M 43294.524 -59157.619 43294.524 -58157.619 43675.476 -58157.619 43770.714 -58205.238 43818.333 -58252.857 43865.952 -58348.095 43865.952 -58490.952 43818.333 -58586.19 43770.714 -58633.809 43675.476 -58681.428 43294.524 -58681.428 M 44151.667 -58157.619 44485 -59157.619 44818.333 -58157.619 M 40867.619 -48676.666 39867.619 -48676.666 40867.619 -48105.238 39867.619 -48105.238 M 39867.619 -47771.904 39867.619 -47200.476 M 40867.619 -47486.19 39867.619 -47486.19 M 40772.38 -46295.714 40820 -46343.333 40867.619 -46486.19 40867.619 -46581.428 40820 -46724.285 40724.761 -46819.523 40629.523 -46867.142 40439.047 -46914.761 40296.19 -46914.761 40105.714 -46867.142 40010.476 -46819.523 39915.238 -46724.285 39867.619 -46581.428 39867.619 -46486.19 39915.238 -46343.333 39962.857 -46295.714 M 98392.857 -65665 98535.714 -65712.619 98773.809 -65712.619 98869.047 -65665 98916.666 -65617.38 98964.285 -65522.142 98964.285 -65426.904 98916.666 -65331.666 98869.047 -65284.047 98773.809 -65236.428 98583.333 -65188.809 98488.095 -65141.19 98440.476 -65093.571 98392.857 -64998.333 98392.857 -64903.095 98440.476 -64807.857 98488.095 -64760.238 98583.333 -64712.619 98821.428 -64712.619 98964.285 -64760.238 M 99297.619 -64712.619 99535.714 -65712.619 99726.19 -64998.333 99916.666 -65712.619 100154.762 -64712.619 M 45416.666 -76962.619 45416.666 -77676.904 45369.047 -77819.761 45273.809 -77915 45130.952 -77962.619 45035.714 -77962.619 M 45845.238 -77057.857 45892.857 -77010.238 45988.095 -76962.619 46226.19 -76962.619 46321.428 -77010.238 46369.047 -77057.857 46416.666 -77153.095 46416.666 -77248.333 46369.047 -77391.19 45797.619 -77962.619 46416.666 -77962.619 M 88047.618 -73795.952 88047.618 -74462.619 M 87809.523 -73415 87571.428 -74129.285 88190.475 -74129.285 M 88571.428 -74081.666 89333.333 -74081.666 M 89809.523 -74462.619 89809.523 -73462.619 90047.618 -73462.619 90190.475 -73510.238 90285.713 -73605.476 90333.332 -73700.714 90380.951 -73891.19 90380.951 -74034.047 90333.332 -74224.523 90285.713 -74319.761 90190.475 -74415 90047.618 -74462.619 89809.523 -74462.619 M 90809.523 -74462.619 90809.523 -73795.952 M 90809.523 -73462.619 90761.904 -73510.238 90809.523 -73557.857 90857.142 -73510.238 90809.523 -73462.619 90809.523 -73557.857 M 91714.284 -73795.952 91714.284 -74605.476 91666.665 -74700.714 91619.046 -74748.333 91523.808 -74795.952 91380.951 -74795.952 91285.713 -74748.333 M 91714.284 -74415 91619.046 -74462.619 91428.57 -74462.619 91333.332 -74415 91285.713 -74367.38 91238.094 -74272.142 91238.094 -73986.428 91285.713 -73891.19 91333.332 -73843.571 91428.57 -73795.952 91619.046 -73795.952 91714.284 -73843.571 M 92190.475 -74462.619 92190.475 -73795.952 M 92190.475 -73462.619 92142.856 -73510.238 92190.475 -73557.857 92238.094 -73510.238 92190.475 -73462.619 92190.475 -73557.857 M 92523.808 -73795.952 92904.76 -73795.952 M 92666.665 -73462.619 92666.665 -74319.761 92714.284 -74415 92809.522 -74462.619 92904.76 -74462.619 M 94476.189 -74462.619 93999.999 -74462.619 93999.999 -73462.619 M 94809.523 -73938.809 95142.856 -73938.809 M 95285.713 -74462.619 94809.523 -74462.619 94809.523 -73462.619 95285.713 -73462.619 M 95714.285 -74462.619 95714.285 -73462.619 95952.38 -73462.619 96095.237 -73510.238 96190.475 -73605.476 96238.094 -73700.714 96285.713 -73891.19 96285.713 -74034.047 96238.094 -74224.523 96190.475 -74319.761 96095.237 -74415 95952.38 -74462.619 95714.285 -74462.619 M 97476.19 -74462.619 97476.19 -73462.619 97714.285 -73462.619 97857.142 -73510.238 97952.38 -73605.476 97999.999 -73700.714 98047.618 -73891.19 98047.618 -74034.047 97999.999 -74224.523 97952.38 -74319.761 97857.142 -74415 97714.285 -74462.619 97476.19 -74462.619 M 98476.19 -74462.619 98476.19 -73795.952 M 98476.19 -73462.619 98428.571 -73510.238 98476.19 -73557.857 98523.809 -73510.238 98476.19 -73462.619 98476.19 -73557.857 M 98904.761 -74415 98999.999 -74462.619 99190.475 -74462.619 99285.713 -74415 99333.332 -74319.761 99333.332 -74272.142 99285.713 -74176.904 99190.475 -74129.285 99047.618 -74129.285 98952.38 -74081.666 98904.761 -73986.428 98904.761 -73938.809 98952.38 -73843.571 99047.618 -73795.952 99190.475 -73795.952 99285.713 -73843.571 M 99761.904 -73795.952 99761.904 -74795.952 M 99761.904 -73843.571 99857.142 -73795.952 100047.618 -73795.952 100142.856 -73843.571 100190.475 -73891.19 100238.094 -73986.428 100238.094 -74272.142 100190.475 -74367.38 100142.856 -74415 100047.618 -74462.619 99857.142 -74462.619 99761.904 -74415 M 100809.523 -74462.619 100714.285 -74415 100666.666 -74319.761 100666.666 -73462.619 M 101619.047 -74462.619 101619.047 -73938.809 101571.428 -73843.571 101476.19 -73795.952 101285.714 -73795.952 101190.476 -73843.571 M 101619.047 -74415 101523.809 -74462.619 101285.714 -74462.619 101190.476 -74415 101142.857 -74319.761 101142.857 -74224.523 101190.476 -74129.285 101285.714 -74081.666 101523.809 -74081.666 101619.047 -74034.047 M 102000 -73795.952 102238.095 -74462.619 M 102476.19 -73795.952 102238.095 -74462.619 102142.857 -74700.714 102095.238 -74748.333 102000 -74795.952 M 114309.523 -42712.619 113976.19 -42236.428 M 113738.095 -42712.619 113738.095 -41712.619 114119.047 -41712.619 114214.285 -41760.238 114261.904 -41807.857 114309.523 -41903.095 114309.523 -42045.952 114261.904 -42141.19 114214.285 -42188.809 114119.047 -42236.428 113738.095 -42236.428 M 115261.904 -41760.238 115166.666 -41712.619 115023.809 -41712.619 114880.952 -41760.238 114785.714 -41855.476 114738.095 -41950.714 114690.476 -42141.19 114690.476 -42284.047 114738.095 -42474.523 114785.714 -42569.761 114880.952 -42665 115023.809 -42712.619 115119.047 -42712.619 115261.904 -42665 115309.523 -42617.38 115309.523 -42284.047 115119.047 -42284.047 M 116071.428 -42188.809 116214.285 -42236.428 116261.904 -42284.047 116309.523 -42379.285 116309.523 -42522.142 116261.904 -42617.38 116214.285 -42665 116119.047 -42712.619 115738.095 -42712.619 115738.095 -41712.619 116071.428 -41712.619 116166.666 -41760.238 116214.285 -41807.857 116261.904 -41903.095 116261.904 -41998.333 116214.285 -42093.571 116166.666 -42141.19 116071.428 -42188.809 115738.095 -42188.809 M 84821.428 -70438.809 84964.285 -70486.428 85011.904 -70534.047 85059.523 -70629.285 85059.523 -70772.142 85011.904 -70867.38 84964.285 -70915 84869.047 -70962.619 84488.095 -70962.619 84488.095 -69962.619 84821.428 -69962.619 84916.666 -70010.238 84964.285 -70057.857 85011.904 -70153.095 85011.904 -70248.333 84964.285 -70343.571 84916.666 -70391.19 84821.428 -70438.809 84488.095 -70438.809 M 85488.095 -70962.619 85488.095 -69962.619 85821.428 -70676.904 86154.761 -69962.619 86154.761 -70962.619 M 86630.952 -70962.619 86630.952 -69962.619 87011.904 -69962.619 87107.142 -70010.238 87154.761 -70057.857 87202.38 -70153.095 87202.38 -70295.952 87154.761 -70391.19 87107.142 -70438.809 87011.904 -70486.428 86630.952 -70486.428 M 88154.761 -70962.619 87583.333 -70962.619 M 87869.047 -70962.619 87869.047 -69962.619 87773.809 -70105.476 87678.571 -70200.714 87583.333 -70248.333 M 88726.19 -70391.19 88630.952 -70343.571 88583.333 -70295.952 88535.714 -70200.714 88535.714 -70153.095 88583.333 -70057.857 88630.952 -70010.238 88726.19 -69962.619 88916.666 -69962.619 89011.904 -70010.238 89059.523 -70057.857 89107.142 -70153.095 89107.142 -70200.714 89059.523 -70295.952 89011.904 -70343.571 88916.666 -70391.19 88726.19 -70391.19 88630.952 -70438.809 88583.333 -70486.428 88535.714 -70581.666 88535.714 -70772.142 88583.333 -70867.38 88630.952 -70915 88726.19 -70962.619 88916.666 -70962.619 89011.904 -70915 89059.523 -70867.38 89107.142 -70772.142 89107.142 -70581.666 89059.523 -70486.428 89011.904 -70438.809 88916.666 -70391.19 M 89726.19 -69962.619 89821.428 -69962.619 89916.666 -70010.238 89964.285 -70057.857 90011.904 -70153.095 90059.523 -70343.571 90059.523 -70581.666 90011.904 -70772.142 89964.285 -70867.38 89916.666 -70915 89821.428 -70962.619 89726.19 -70962.619 89630.952 -70915 89583.333 -70867.38 89535.714 -70772.142 89488.095 -70581.666 89488.095 -70343.571 89535.714 -70153.095 89583.333 -70057.857 89630.952 -70010.238 89726.19 -69962.619 M 109712.619 -30166.666 109236.428 -30499.999 M 109712.619 -30738.094 108712.619 -30738.094 108712.619 -30357.142 108760.238 -30261.904 108807.857 -30214.285 108903.095 -30166.666 109045.952 -30166.666 109141.19 -30214.285 109188.809 -30261.904 109236.428 -30357.142 109236.428 -30738.094 M 109712.619 -29738.094 108712.619 -29738.094 108712.619 -29357.142 108760.238 -29261.904 108807.857 -29214.285 108903.095 -29166.666 109045.952 -29166.666 109141.19 -29214.285 109188.809 -29261.904 109236.428 -29357.142 109236.428 -29738.094 M 109712.619 -28738.094 109045.952 -28738.094 M 108712.619 -28738.094 108760.238 -28785.713 108807.857 -28738.094 108760.238 -28690.475 108712.619 -28738.094 108807.857 -28738.094 M 108712.619 -28357.142 108712.619 -27690.476 109712.619 -28357.142 109712.619 -27690.476 M 109665 -26928.571 109712.619 -27023.809 109712.619 -27214.285 109665 -27309.523 109569.761 -27357.142 109188.809 -27357.142 109093.571 -27309.523 109045.952 -27214.285 109045.952 -27023.809 109093.571 -26928.571 109188.809 -26880.952 109284.047 -26880.952 109379.285 -27357.142 M 109712.619 -26452.38 109045.952 -26452.38 M 109236.428 -26452.38 109141.19 -26404.761 109093.571 -26357.142 109045.952 -26261.904 109045.952 -26166.666 M 109712.619 -25690.475 109665 -25785.713 109617.38 -25833.332 109522.142 -25880.951 109236.428 -25880.951 109141.19 -25833.332 109093.571 -25785.713 109045.952 -25690.475 109045.952 -25547.618 109093.571 -25452.38 109141.19 -25404.761 109236.428 -25357.142 109522.142 -25357.142 109617.38 -25404.761 109665 -25452.38 109712.619 -25547.618 109712.619 -25690.475 M 108712.619 -25023.808 109712.619 -24785.713 108998.333 -24595.237 109712.619 -24404.761 108712.619 -24166.666 M 105962.619 -72464.285 106772.142 -72464.285 106867.38 -72416.666 106915 -72369.047 106962.619 -72273.809 106962.619 -72083.333 106915 -71988.095 106867.38 -71940.476 106772.142 -71892.857 105962.619 -71892.857 M 106676.904 -71464.285 106676.904 -70988.095 M 106962.619 -71559.523 105962.619 -71226.19 106962.619 -70892.857 M 106962.619 -69988.095 106486.428 -70321.428 M 106962.619 -70559.523 105962.619 -70559.523 105962.619 -70178.571 106010.238 -70083.333 106057.857 -70035.714 106153.095 -69988.095 106295.952 -69988.095 106391.19 -70035.714 106438.809 -70083.333 106486.428 -70178.571 106486.428 -70559.523 M 105962.619 -69702.38 105962.619 -69130.952 M 106962.619 -69416.666 105962.619 -69416.666 M 106581.666 -68797.618 106581.666 -68035.714 M 105962.619 -67559.523 106772.142 -67559.523 106867.38 -67511.904 106915 -67464.285 106962.619 -67369.047 106962.619 -67178.571 106915 -67083.333 106867.38 -67035.714 106772.142 -66988.095 105962.619 -66988.095 M 106915 -66559.523 106962.619 -66416.666 106962.619 -66178.571 106915 -66083.333 106867.38 -66035.714 106772.142 -65988.095 106676.904 -65988.095 106581.666 -66035.714 106534.047 -66083.333 106486.428 -66178.571 106438.809 -66369.047 106391.19 -66464.285 106343.571 -66511.904 106248.333 -66559.523 106153.095 -66559.523 106057.857 -66511.904 106010.238 -66464.285 105962.619 -66369.047 105962.619 -66130.952 106010.238 -65988.095 M 106438.809 -65226.19 106486.428 -65083.333 106534.047 -65035.714 106629.285 -64988.095 106772.142 -64988.095 106867.38 -65035.714 106915 -65083.333 106962.619 -65178.571 106962.619 -65559.523 105962.619 -65559.523 105962.619 -65226.19 106010.238 -65130.952 106057.857 -65083.333 106153.095 -65035.714 106248.333 -65035.714 106343.571 -65083.333 106391.19 -65130.952 106438.809 -65226.19 106438.809 -65559.523 M 41962.619 -40190.476 41962.619 -40666.666 40962.619 -40666.666 M 41962.619 -39857.142 40962.619 -39857.142 40962.619 -39619.047 41010.238 -39476.19 41105.476 -39380.952 41200.714 -39333.333 41391.19 -39285.714 41534.047 -39285.714 41724.523 -39333.333 41819.761 -39380.952 41915 -39476.19 41962.619 -39619.047 41962.619 -39857.142 M 41962.619 -38285.714 41486.428 -38619.047 M 41962.619 -38857.142 40962.619 -38857.142 40962.619 -38476.19 41010.238 -38380.952 41057.857 -38333.333 41153.095 -38285.714 41295.952 -38285.714 41391.19 -38333.333 41438.809 -38380.952 41486.428 -38476.19 41486.428 -38857.142" fill="none" stroke-width="150"/><path d="M 115355 -50190 115025 -50190 M 112615 -50190 112945 -50190 M 115355 -56730 115355 -50190 M 115025 -56730 115355 -56730 M 112945 -56730 112615 -56730 112615 -50190 M 75957.5 -60047.5 53037.5 -60047.5 M 53037.5 -57387.5 53037.5 -60047.5 M 75957.5 -57387.5 75957.5 -60047.5 M 75957.5 -57387.5 53037.5 -57387.5 M 77227.5 -57387.5 78557.5 -57387.5 78557.5 -58717.5 M 119585 -83460 A 6100 6100 0 0 1 107385 -83460 6100 6100 0 0 1 119585 -83460 M 48870 -59825 48870 -69595 M 39100 -69595 48870 -69595 M 39100 -59825 48870 -59825 M 39100 -59825 39100 -69595 M 39405 -46240 A 920 920 0 0 1 37565 -46240 920 920 0 0 1 39405 -46240 M 38485 -47160 38485 -47780 M 102985 -61210 102985 -59710 M 101735 -57210 97235 -57210 M 97235 -63710 101735 -63710 M 95985 -59710 95985 -61210 M 47110 -86995 A 1680 1680 0 0 1 43750 -86995 1680 1680 0 0 1 47110 -86995 M 44746 -83450 A 1680.5002231 1680.5002231 0 0 1 46113.042 -83450.426 M 43750.001 -81915 A 1679.999 1679.999 0 0 1 43895.245 -82598.318 M 43895.001 -81231 A 1680.4998161 1680.4998161 0 0 1 43749.748 -81943.805 M 46964.999 -82598.999 A 1680.4929158 1680.4929158 0 0 1 46965.426 -81231.958 M 46113.999 -80380.001 A 1680.4929158 1680.4929158 0 0 1 44746.958 -80379.574 M 50691 -89595 40770 -89595 M 46499 -88270 46453 -88223 M 46705 -88065 46669 -88030 M 44191 -85961 44156 -85926 M 44407 -85768 44361 -85721 M 40770 -79315 40770 -89595 M 41330 -79315 41330 -89595 M 42830 -79315 42830 -89595 M 47731 -79315 47731 -89595 M 50691 -79315 50691 -89595 M 50691 -79315 40770 -79315 M 40530 -79075 40530 -79575 M 41270 -79075 40530 -79075 M 113455.17 -35325.001 A 2989.9990985 2989.9990985 0 0 1 113919.173 -40672.814 M 113920 -35630.316 A 2499.999988 2499.999988 0 0 1 113919.571 -40139.479 M 116080.428 -40139.478 A 2499.9991431 2499.9991431 0 0 1 116080 -35630.317 M 116080.827 -40672.814 A 2989.9989804 2989.9989804 0 0 1 116544.83 -35325.001 M 113920 -35325 113455 -35325 M 116545 -35325 116080 -35325 M 89715 -59790 82035 -59790 M 82035 -57130 82035 -59790 M 89715 -57130 89715 -59790 M 89715 -57130 82035 -57130 M 90985 -57130 92315 -57130 92315 -58460 M 43015 -52230 A 3060 3060 0 0 1 46075 -55290 M 105075 -55290 A 3060 3060 0 0 1 108135 -52230 M 46075 -25170 A 3059.999 3059.999 0 0 1 43015 -28230 M 108135 -28230 A 3059.999 3059.999 0 0 1 105075 -25170 M 105075 -55290 46075 -55290 M 50115 -54330 101035 -54330 M 50115 -54330 50115 -51730 M 101035 -54330 101035 -49130 M 43015 -52230 43015 -28230 M 50115 -51730 52715 -51730 52715 -49130 M 50115 -50460 50115 -49130 51445 -49130 M 52715 -49130 101035 -49130 M 108135 -48790 108135 -52230 M 108135 -48790 109335 -48790 109335 -31670 M 108135 -31670 108135 -28230 M 109335 -31670 108135 -31670 M 49765 -25170 46075 -25170 M 61185 -25170 61185 -24470 M 80415 -25170 61185 -25170 M 88535 -25170 88535 -23370 M 93015 -25170 88535 -25170 M 101135 -25170 101135 -23370 M 105075 -25170 101135 -25170 M 49765 -24470 49765 -25170 M 61185 -24470 49765 -24470 M 80415 -23370 80415 -25170 M 88535 -23370 80415 -23370 M 93015 -23370 93015 -25170 M 101135 -23370 93015 -23370 M 110815 -62110 110815 -72330 M 108155 -72330 110815 -72330 M 108155 -62110 110815 -62110 M 108155 -62110 108155 -72330 M 108155 -60840 108155 -59510 109485 -59510 M 40594.241 -38073.964 A 2523.8845832 2523.8845832 0 0 1 36385.001 -38060 M 36375.759 -40846.036 A 2523.8845832 2523.8845832 0 0 1 40584.999 -40860 M 40585 -40860 40585 -38060 M 36385 -40860 36385 -38060" fill="none" stroke-width="120"/></g></g><g id="dPuIM4XFvyMTnnreA2wb_top_soldermask"><use xlink:href="#r171R0hu25jbCLuNpegS_pad-10" x="113985" y="-49650"/><use xlink:href="#r171R0hu25jbCLuNpegS_pad-11" x="113985" y="-57270"/><use xlink:href="#r171R0hu25jbCLuNpegS_pad-12" x="72147.5" y="-58717.5"/><use xlink:href="#r171R0hu25jbCLuNpegS_pad-12" x="69607.5" y="-58717.5"/><use xlink:href="#r171R0hu25jbCLuNpegS_pad-13" x="77227.5" y="-58717.5"/><use xlink:href="#r171R0hu25jbCLuNpegS_pad-12" x="54367.5" y="-58717.5"/><use xlink:href="#r171R0hu25jbCLuNpegS_pad-12" x="56907.5" y="-58717.5"/><use xlink:href="#r171R0hu25jbCLuNpegS_pad-12" x="59447.5" y="-58717.5"/><use xlink:href="#r171R0hu25jbCLuNpegS_pad-12" x="61987.5" y="-58717.5"/><use xlink:href="#r171R0hu25jbCLuNpegS_pad-12" x="74687.5" y="-58717.5"/><use xlink:href="#r171R0hu25jbCLuNpegS_pad-12" x="64527.5" y="-58717.5"/><use xlink:href="#r171R0hu25jbCLuNpegS_pad-12" x="67067.5" y="-58717.5"/><use xlink:href="#r171R0hu25jbCLuNpegS_pad-14" x="113485" y="-87260"/><use xlink:href="#r171R0hu25jbCLuNpegS_pad-15" x="113485" y="-79660"/><use xlink:href="#r171R0hu25jbCLuNpegS_pad-16" x="41330" y="-62170"/><use xlink:href="#r171R0hu25jbCLuNpegS_pad-16" x="46410" y="-64710"/><use xlink:href="#r171R0hu25jbCLuNpegS_pad-16" x="41330" y="-67250"/><use xlink:href="#r171R0hu25jbCLuNpegS_pad-17" x="38485" y="-48780"/><use xlink:href="#r171R0hu25jbCLuNpegS_pad-18" x="38485" y="-46240"/><use xlink:href="#r171R0hu25jbCLuNpegS_pad-14" x="102735" y="-62710"/><use xlink:href="#r171R0hu25jbCLuNpegS_pad-14" x="96235" y="-62710"/><use xlink:href="#r171R0hu25jbCLuNpegS_pad-14" x="102735" y="-58210"/><use xlink:href="#r171R0hu25jbCLuNpegS_pad-14" x="96235" y="-58210"/><use xlink:href="#r171R0hu25jbCLuNpegS_pad-19" x="45430" y="-81915"/><use xlink:href="#r171R0hu25jbCLuNpegS_pad-20" x="45430" y="-86995"/><use xlink:href="#r171R0hu25jbCLuNpegS_pad-21" x="100945" y="-82840"/><use xlink:href="#r171R0hu25jbCLuNpegS_pad-21" x="100945" y="-85380"/><use xlink:href="#r171R0hu25jbCLuNpegS_pad-21" x="100945" y="-87920"/><use xlink:href="#r171R0hu25jbCLuNpegS_pad-21" x="100945" y="-90460"/><use xlink:href="#r171R0hu25jbCLuNpegS_pad-21" x="57765" y="-82840"/><use xlink:href="#r171R0hu25jbCLuNpegS_pad-21" x="57765" y="-85380"/><use xlink:href="#r171R0hu25jbCLuNpegS_pad-21" x="57765" y="-87920"/><use xlink:href="#r171R0hu25jbCLuNpegS_pad-21" x="57765" y="-90460"/><use xlink:href="#r171R0hu25jbCLuNpegS_pad-22" x="115000" y="-35980"/><use xlink:href="#r171R0hu25jbCLuNpegS_pad-23" x="115000" y="-37250"/><use xlink:href="#r171R0hu25jbCLuNpegS_pad-23" x="115000" y="-38520"/><use xlink:href="#r171R0hu25jbCLuNpegS_pad-23" x="115000" y="-39790"/><use xlink:href="#r171R0hu25jbCLuNpegS_pad-12" x="83365" y="-58460"/><use xlink:href="#r171R0hu25jbCLuNpegS_pad-12" x="85905" y="-58460"/><use xlink:href="#r171R0hu25jbCLuNpegS_pad-12" x="88445" y="-58460"/><use xlink:href="#r171R0hu25jbCLuNpegS_pad-13" x="90985" y="-58460"/><use xlink:href="#r171R0hu25jbCLuNpegS_pad-12" x="51445" y="-53000"/><use xlink:href="#r171R0hu25jbCLuNpegS_pad-13" x="51445" y="-50460"/><use xlink:href="#r171R0hu25jbCLuNpegS_pad-12" x="53985" y="-53000"/><use xlink:href="#r171R0hu25jbCLuNpegS_pad-12" x="53985" y="-50460"/><use xlink:href="#r171R0hu25jbCLuNpegS_pad-12" x="56525" y="-53000"/><use xlink:href="#r171R0hu25jbCLuNpegS_pad-12" x="56525" y="-50460"/><use xlink:href="#r171R0hu25jbCLuNpegS_pad-12" x="59065" y="-53000"/><use xlink:href="#r171R0hu25jbCLuNpegS_pad-12" x="59065" y="-50460"/><use xlink:href="#r171R0hu25jbCLuNpegS_pad-12" x="61605" y="-53000"/><use xlink:href="#r171R0hu25jbCLuNpegS_pad-12" x="61605" y="-50460"/><use xlink:href="#r171R0hu25jbCLuNpegS_pad-12" x="64145" y="-53000"/><use xlink:href="#r171R0hu25jbCLuNpegS_pad-12" x="64145" y="-50460"/><use xlink:href="#r171R0hu25jbCLuNpegS_pad-12" x="66685" y="-53000"/><use xlink:href="#r171R0hu25jbCLuNpegS_pad-12" x="66685" y="-50460"/><use xlink:href="#r171R0hu25jbCLuNpegS_pad-12" x="69225" y="-53000"/><use xlink:href="#r171R0hu25jbCLuNpegS_pad-12" x="69225" y="-50460"/><use xlink:href="#r171R0hu25jbCLuNpegS_pad-12" x="71765" y="-53000"/><use xlink:href="#r171R0hu25jbCLuNpegS_pad-12" x="71765" y="-50460"/><use xlink:href="#r171R0hu25jbCLuNpegS_pad-12" x="74305" y="-53000"/><use xlink:href="#r171R0hu25jbCLuNpegS_pad-12" x="74305" y="-50460"/><use xlink:href="#r171R0hu25jbCLuNpegS_pad-12" x="76845" y="-53000"/><use xlink:href="#r171R0hu25jbCLuNpegS_pad-12" x="76845" y="-50460"/><use xlink:href="#r171R0hu25jbCLuNpegS_pad-12" x="79385" y="-53000"/><use xlink:href="#r171R0hu25jbCLuNpegS_pad-12" x="79385" y="-50460"/><use xlink:href="#r171R0hu25jbCLuNpegS_pad-12" x="81925" y="-53000"/><use xlink:href="#r171R0hu25jbCLuNpegS_pad-12" x="81925" y="-50460"/><use xlink:href="#r171R0hu25jbCLuNpegS_pad-12" x="84465" y="-53000"/><use xlink:href="#r171R0hu25jbCLuNpegS_pad-12" x="84465" y="-50460"/><use xlink:href="#r171R0hu25jbCLuNpegS_pad-12" x="87005" y="-53000"/><use xlink:href="#r171R0hu25jbCLuNpegS_pad-12" x="87005" y="-50460"/><use xlink:href="#r171R0hu25jbCLuNpegS_pad-12" x="89545" y="-53000"/><use xlink:href="#r171R0hu25jbCLuNpegS_pad-12" x="89545" y="-50460"/><use xlink:href="#r171R0hu25jbCLuNpegS_pad-12" x="92085" y="-53000"/><use xlink:href="#r171R0hu25jbCLuNpegS_pad-12" x="92085" y="-50460"/><use xlink:href="#r171R0hu25jbCLuNpegS_pad-12" x="94625" y="-53000"/><use xlink:href="#r171R0hu25jbCLuNpegS_pad-12" x="94625" y="-50460"/><use xlink:href="#r171R0hu25jbCLuNpegS_pad-12" x="97165" y="-53000"/><use xlink:href="#r171R0hu25jbCLuNpegS_pad-12" x="97165" y="-50460"/><use xlink:href="#r171R0hu25jbCLuNpegS_pad-12" x="99705" y="-53000"/><use xlink:href="#r171R0hu25jbCLuNpegS_pad-12" x="99705" y="-50460"/><use xlink:href="#r171R0hu25jbCLuNpegS_pad-12" x="109485" y="-71000"/><use xlink:href="#r171R0hu25jbCLuNpegS_pad-12" x="109485" y="-68460"/><use xlink:href="#r171R0hu25jbCLuNpegS_pad-12" x="109485" y="-65920"/><use xlink:href="#r171R0hu25jbCLuNpegS_pad-12" x="109485" y="-63380"/><use xlink:href="#r171R0hu25jbCLuNpegS_pad-13" x="109485" y="-60840"/><use xlink:href="#r171R0hu25jbCLuNpegS_pad-11" x="38485" y="-37960"/><use xlink:href="#r171R0hu25jbCLuNpegS_pad-11" x="38485" y="-40960"/></g><g id="dPuIM4XFvyMTnnreA2wb_top_copper"><use xlink:href="#xxDKoyGAvSIxWM88nJmp_pad-10" x="113985" y="-49650"/><use xlink:href="#xxDKoyGAvSIxWM88nJmp_pad-11" x="113985" y="-57270"/><use xlink:href="#xxDKoyGAvSIxWM88nJmp_pad-12" x="72147.5" y="-58717.5"/><use xlink:href="#xxDKoyGAvSIxWM88nJmp_pad-12" x="69607.5" y="-58717.5"/><use xlink:href="#xxDKoyGAvSIxWM88nJmp_pad-13" x="77227.5" y="-58717.5"/><use xlink:href="#xxDKoyGAvSIxWM88nJmp_pad-12" x="54367.5" y="-58717.5"/><use xlink:href="#xxDKoyGAvSIxWM88nJmp_pad-12" x="56907.5" y="-58717.5"/><use xlink:href="#xxDKoyGAvSIxWM88nJmp_pad-12" x="59447.5" y="-58717.5"/><use xlink:href="#xxDKoyGAvSIxWM88nJmp_pad-12" x="61987.5" y="-58717.5"/><use xlink:href="#xxDKoyGAvSIxWM88nJmp_pad-12" x="74687.5" y="-58717.5"/><use xlink:href="#xxDKoyGAvSIxWM88nJmp_pad-12" x="64527.5" y="-58717.5"/><use xlink:href="#xxDKoyGAvSIxWM88nJmp_pad-12" x="67067.5" y="-58717.5"/><use xlink:href="#xxDKoyGAvSIxWM88nJmp_pad-14" x="113485" y="-87260"/><use xlink:href="#xxDKoyGAvSIxWM88nJmp_pad-15" x="113485" y="-79660"/><use xlink:href="#xxDKoyGAvSIxWM88nJmp_pad-16" x="41330" y="-62170"/><use xlink:href="#xxDKoyGAvSIxWM88nJmp_pad-16" x="46410" y="-64710"/><use xlink:href="#xxDKoyGAvSIxWM88nJmp_pad-16" x="41330" y="-67250"/><use xlink:href="#xxDKoyGAvSIxWM88nJmp_pad-17" x="38485" y="-48780"/><use xlink:href="#xxDKoyGAvSIxWM88nJmp_pad-18" x="38485" y="-46240"/><use xlink:href="#xxDKoyGAvSIxWM88nJmp_pad-14" x="102735" y="-62710"/><use xlink:href="#xxDKoyGAvSIxWM88nJmp_pad-14" x="96235" y="-62710"/><use xlink:href="#xxDKoyGAvSIxWM88nJmp_pad-14" x="102735" y="-58210"/><use xlink:href="#xxDKoyGAvSIxWM88nJmp_pad-14" x="96235" y="-58210"/><use xlink:href="#xxDKoyGAvSIxWM88nJmp_pad-19" x="45430" y="-81915"/><use xlink:href="#xxDKoyGAvSIxWM88nJmp_pad-20" x="45430" y="-86995"/><use xlink:href="#xxDKoyGAvSIxWM88nJmp_pad-21" x="100945" y="-82840"/><use xlink:href="#xxDKoyGAvSIxWM88nJmp_pad-21" x="100945" y="-85380"/><use xlink:href="#xxDKoyGAvSIxWM88nJmp_pad-21" x="100945" y="-87920"/><use xlink:href="#xxDKoyGAvSIxWM88nJmp_pad-21" x="100945" y="-90460"/><use xlink:href="#xxDKoyGAvSIxWM88nJmp_pad-21" x="57765" y="-82840"/><use xlink:href="#xxDKoyGAvSIxWM88nJmp_pad-21" x="57765" y="-85380"/><use xlink:href="#xxDKoyGAvSIxWM88nJmp_pad-21" x="57765" y="-87920"/><use xlink:href="#xxDKoyGAvSIxWM88nJmp_pad-21" x="57765" y="-90460"/><use xlink:href="#xxDKoyGAvSIxWM88nJmp_pad-22" x="115000" y="-35980"/><use xlink:href="#xxDKoyGAvSIxWM88nJmp_pad-23" x="115000" y="-37250"/><use xlink:href="#xxDKoyGAvSIxWM88nJmp_pad-23" x="115000" y="-38520"/><use xlink:href="#xxDKoyGAvSIxWM88nJmp_pad-23" x="115000" y="-39790"/><use xlink:href="#xxDKoyGAvSIxWM88nJmp_pad-12" x="83365" y="-58460"/><use xlink:href="#xxDKoyGAvSIxWM88nJmp_pad-12" x="85905" y="-58460"/><use xlink:href="#xxDKoyGAvSIxWM88nJmp_pad-12" x="88445" y="-58460"/><use xlink:href="#xxDKoyGAvSIxWM88nJmp_pad-13" x="90985" y="-58460"/><use xlink:href="#xxDKoyGAvSIxWM88nJmp_pad-12" x="51445" y="-53000"/><use xlink:href="#xxDKoyGAvSIxWM88nJmp_pad-13" x="51445" y="-50460"/><use xlink:href="#xxDKoyGAvSIxWM88nJmp_pad-12" x="53985" y="-53000"/><use xlink:href="#xxDKoyGAvSIxWM88nJmp_pad-12" x="53985" y="-50460"/><use xlink:href="#xxDKoyGAvSIxWM88nJmp_pad-12" x="56525" y="-53000"/><use xlink:href="#xxDKoyGAvSIxWM88nJmp_pad-12" x="56525" y="-50460"/><use xlink:href="#xxDKoyGAvSIxWM88nJmp_pad-12" x="59065" y="-53000"/><use xlink:href="#xxDKoyGAvSIxWM88nJmp_pad-12" x="59065" y="-50460"/><use xlink:href="#xxDKoyGAvSIxWM88nJmp_pad-12" x="61605" y="-53000"/><use xlink:href="#xxDKoyGAvSIxWM88nJmp_pad-12" x="61605" y="-50460"/><use xlink:href="#xxDKoyGAvSIxWM88nJmp_pad-12" x="64145" y="-53000"/><use xlink:href="#xxDKoyGAvSIxWM88nJmp_pad-12" x="64145" y="-50460"/><use xlink:href="#xxDKoyGAvSIxWM88nJmp_pad-12" x="66685" y="-53000"/><use xlink:href="#xxDKoyGAvSIxWM88nJmp_pad-12" x="66685" y="-50460"/><use xlink:href="#xxDKoyGAvSIxWM88nJmp_pad-12" x="69225" y="-53000"/><use xlink:href="#xxDKoyGAvSIxWM88nJmp_pad-12" x="69225" y="-50460"/><use xlink:href="#xxDKoyGAvSIxWM88nJmp_pad-12" x="71765" y="-53000"/><use xlink:href="#xxDKoyGAvSIxWM88nJmp_pad-12" x="71765" y="-50460"/><use xlink:href="#xxDKoyGAvSIxWM88nJmp_pad-12" x="74305" y="-53000"/><use xlink:href="#xxDKoyGAvSIxWM88nJmp_pad-12" x="74305" y="-50460"/><use xlink:href="#xxDKoyGAvSIxWM88nJmp_pad-12" x="76845" y="-53000"/><use xlink:href="#xxDKoyGAvSIxWM88nJmp_pad-12" x="76845" y="-50460"/><use xlink:href="#xxDKoyGAvSIxWM88nJmp_pad-12" x="79385" y="-53000"/><use xlink:href="#xxDKoyGAvSIxWM88nJmp_pad-12" x="79385" y="-50460"/><use xlink:href="#xxDKoyGAvSIxWM88nJmp_pad-12" x="81925" y="-53000"/><use xlink:href="#xxDKoyGAvSIxWM88nJmp_pad-12" x="81925" y="-50460"/><use xlink:href="#xxDKoyGAvSIxWM88nJmp_pad-12" x="84465" y="-53000"/><use xlink:href="#xxDKoyGAvSIxWM88nJmp_pad-12" x="84465" y="-50460"/><use xlink:href="#xxDKoyGAvSIxWM88nJmp_pad-12" x="87005" y="-53000"/><use xlink:href="#xxDKoyGAvSIxWM88nJmp_pad-12" x="87005" y="-50460"/><use xlink:href="#xxDKoyGAvSIxWM88nJmp_pad-12" x="89545" y="-53000"/><use xlink:href="#xxDKoyGAvSIxWM88nJmp_pad-12" x="89545" y="-50460"/><use xlink:href="#xxDKoyGAvSIxWM88nJmp_pad-12" x="92085" y="-53000"/><use xlink:href="#xxDKoyGAvSIxWM88nJmp_pad-12" x="92085" y="-50460"/><use xlink:href="#xxDKoyGAvSIxWM88nJmp_pad-12" x="94625" y="-53000"/><use xlink:href="#xxDKoyGAvSIxWM88nJmp_pad-12" x="94625" y="-50460"/><use xlink:href="#xxDKoyGAvSIxWM88nJmp_pad-12" x="97165" y="-53000"/><use xlink:href="#xxDKoyGAvSIxWM88nJmp_pad-12" x="97165" y="-50460"/><use xlink:href="#xxDKoyGAvSIxWM88nJmp_pad-12" x="99705" y="-53000"/><use xlink:href="#xxDKoyGAvSIxWM88nJmp_pad-12" x="99705" y="-50460"/><use xlink:href="#xxDKoyGAvSIxWM88nJmp_pad-12" x="109485" y="-71000"/><use xlink:href="#xxDKoyGAvSIxWM88nJmp_pad-12" x="109485" y="-68460"/><use xlink:href="#xxDKoyGAvSIxWM88nJmp_pad-12" x="109485" y="-65920"/><use xlink:href="#xxDKoyGAvSIxWM88nJmp_pad-12" x="109485" y="-63380"/><use xlink:href="#xxDKoyGAvSIxWM88nJmp_pad-13" x="109485" y="-60840"/><use xlink:href="#xxDKoyGAvSIxWM88nJmp_pad-11" x="38485" y="-37960"/><use xlink:href="#xxDKoyGAvSIxWM88nJmp_pad-11" x="38485" y="-40960"/><use xlink:href="#xxDKoyGAvSIxWM88nJmp_pad-24" x="39500" y="-27200"/><use xlink:href="#xxDKoyGAvSIxWM88nJmp_pad-24" x="115800" y="-27200"/><use xlink:href="#xxDKoyGAvSIxWM88nJmp_pad-24" x="115800" y="-94200"/><use xlink:href="#xxDKoyGAvSIxWM88nJmp_pad-24" x="39500" y="-94200"/><path d="M 83365 -58460 83235 -58330 M 85905 -58460 85805 -58360" fill="none" stroke-width="300"/></g><g id="dPuIM4XFvyMTnnreA2wb_top_drill1"><use xlink:href="#sreN-_sSd5cgbdoCxJsh_pad-1" x="38485" y="-46240"/><use xlink:href="#sreN-_sSd5cgbdoCxJsh_pad-1" x="38485" y="-48780"/><use xlink:href="#sreN-_sSd5cgbdoCxJsh_pad-2" x="38485" y="-37960"/><use xlink:href="#sreN-_sSd5cgbdoCxJsh_pad-2" x="38485" y="-40960"/><use xlink:href="#sreN-_sSd5cgbdoCxJsh_pad-2" x="41330" y="-62170"/><use xlink:href="#sreN-_sSd5cgbdoCxJsh_pad-2" x="41330" y="-67250"/><use xlink:href="#sreN-_sSd5cgbdoCxJsh_pad-2" x="46410" y="-64710"/><use xlink:href="#sreN-_sSd5cgbdoCxJsh_pad-2" x="113985" y="-49650"/><use xlink:href="#sreN-_sSd5cgbdoCxJsh_pad-2" x="113985" y="-57270"/><use xlink:href="#sreN-_sSd5cgbdoCxJsh_pad-3" x="115000" y="-35980"/><use xlink:href="#sreN-_sSd5cgbdoCxJsh_pad-3" x="115000" y="-37250"/><use xlink:href="#sreN-_sSd5cgbdoCxJsh_pad-3" x="115000" y="-38520"/><use xlink:href="#sreN-_sSd5cgbdoCxJsh_pad-3" x="115000" y="-39790"/><use xlink:href="#sreN-_sSd5cgbdoCxJsh_pad-4" x="51445" y="-50460"/><use xlink:href="#sreN-_sSd5cgbdoCxJsh_pad-4" x="51445" y="-53000"/><use xlink:href="#sreN-_sSd5cgbdoCxJsh_pad-4" x="53985" y="-50460"/><use xlink:href="#sreN-_sSd5cgbdoCxJsh_pad-4" x="53985" y="-53000"/><use xlink:href="#sreN-_sSd5cgbdoCxJsh_pad-4" x="54367" y="-58717"/><use xlink:href="#sreN-_sSd5cgbdoCxJsh_pad-4" x="56525" y="-50460"/><use xlink:href="#sreN-_sSd5cgbdoCxJsh_pad-4" x="56525" y="-53000"/><use xlink:href="#sreN-_sSd5cgbdoCxJsh_pad-4" x="56907" y="-58717"/><use xlink:href="#sreN-_sSd5cgbdoCxJsh_pad-4" x="57765" y="-82840"/><use xlink:href="#sreN-_sSd5cgbdoCxJsh_pad-4" x="57765" y="-85380"/><use xlink:href="#sreN-_sSd5cgbdoCxJsh_pad-4" x="57765" y="-87920"/><use xlink:href="#sreN-_sSd5cgbdoCxJsh_pad-4" x="57765" y="-90460"/><use xlink:href="#sreN-_sSd5cgbdoCxJsh_pad-4" x="59065" y="-50460"/><use xlink:href="#sreN-_sSd5cgbdoCxJsh_pad-4" x="59065" y="-53000"/><use xlink:href="#sreN-_sSd5cgbdoCxJsh_pad-4" x="59447" y="-58717"/><use xlink:href="#sreN-_sSd5cgbdoCxJsh_pad-4" x="61605" y="-50460"/><use xlink:href="#sreN-_sSd5cgbdoCxJsh_pad-4" x="61605" y="-53000"/><use xlink:href="#sreN-_sSd5cgbdoCxJsh_pad-4" x="61987" y="-58717"/><use xlink:href="#sreN-_sSd5cgbdoCxJsh_pad-4" x="64145" y="-50460"/><use xlink:href="#sreN-_sSd5cgbdoCxJsh_pad-4" x="64145" y="-53000"/><use xlink:href="#sreN-_sSd5cgbdoCxJsh_pad-4" x="64528" y="-58717"/><use xlink:href="#sreN-_sSd5cgbdoCxJsh_pad-4" x="66685" y="-50460"/><use xlink:href="#sreN-_sSd5cgbdoCxJsh_pad-4" x="66685" y="-53000"/><use xlink:href="#sreN-_sSd5cgbdoCxJsh_pad-4" x="67067" y="-58717"/><use xlink:href="#sreN-_sSd5cgbdoCxJsh_pad-4" x="69225" y="-50460"/><use xlink:href="#sreN-_sSd5cgbdoCxJsh_pad-4" x="69225" y="-53000"/><use xlink:href="#sreN-_sSd5cgbdoCxJsh_pad-4" x="69608" y="-58717"/><use xlink:href="#sreN-_sSd5cgbdoCxJsh_pad-4" x="71765" y="-50460"/><use xlink:href="#sreN-_sSd5cgbdoCxJsh_pad-4" x="71765" y="-53000"/><use xlink:href="#sreN-_sSd5cgbdoCxJsh_pad-4" x="72147" y="-58717"/><use xlink:href="#sreN-_sSd5cgbdoCxJsh_pad-4" x="74305" y="-50460"/><use xlink:href="#sreN-_sSd5cgbdoCxJsh_pad-4" x="74305" y="-53000"/><use xlink:href="#sreN-_sSd5cgbdoCxJsh_pad-4" x="74688" y="-58717"/><use xlink:href="#sreN-_sSd5cgbdoCxJsh_pad-4" x="76845" y="-50460"/><use xlink:href="#sreN-_sSd5cgbdoCxJsh_pad-4" x="76845" y="-53000"/><use xlink:href="#sreN-_sSd5cgbdoCxJsh_pad-4" x="77227" y="-58717"/><use xlink:href="#sreN-_sSd5cgbdoCxJsh_pad-4" x="79385" y="-50460"/><use xlink:href="#sreN-_sSd5cgbdoCxJsh_pad-4" x="79385" y="-53000"/><use xlink:href="#sreN-_sSd5cgbdoCxJsh_pad-4" x="81925" y="-50460"/><use xlink:href="#sreN-_sSd5cgbdoCxJsh_pad-4" x="81925" y="-53000"/><use xlink:href="#sreN-_sSd5cgbdoCxJsh_pad-4" x="83365" y="-58460"/><use xlink:href="#sreN-_sSd5cgbdoCxJsh_pad-4" x="84465" y="-50460"/><use xlink:href="#sreN-_sSd5cgbdoCxJsh_pad-4" x="84465" y="-53000"/><use xlink:href="#sreN-_sSd5cgbdoCxJsh_pad-4" x="85905" y="-58460"/><use xlink:href="#sreN-_sSd5cgbdoCxJsh_pad-4" x="87005" y="-50460"/><use xlink:href="#sreN-_sSd5cgbdoCxJsh_pad-4" x="87005" y="-53000"/><use xlink:href="#sreN-_sSd5cgbdoCxJsh_pad-4" x="88445" y="-58460"/><use xlink:href="#sreN-_sSd5cgbdoCxJsh_pad-4" x="89545" y="-50460"/><use xlink:href="#sreN-_sSd5cgbdoCxJsh_pad-4" x="89545" y="-53000"/><use xlink:href="#sreN-_sSd5cgbdoCxJsh_pad-4" x="90985" y="-58460"/><use xlink:href="#sreN-_sSd5cgbdoCxJsh_pad-4" x="92085" y="-50460"/><use xlink:href="#sreN-_sSd5cgbdoCxJsh_pad-4" x="92085" y="-53000"/><use xlink:href="#sreN-_sSd5cgbdoCxJsh_pad-4" x="94625" y="-50460"/><use xlink:href="#sreN-_sSd5cgbdoCxJsh_pad-4" x="94625" y="-53000"/><use xlink:href="#sreN-_sSd5cgbdoCxJsh_pad-4" x="97165" y="-50460"/><use xlink:href="#sreN-_sSd5cgbdoCxJsh_pad-4" x="97165" y="-53000"/><use xlink:href="#sreN-_sSd5cgbdoCxJsh_pad-4" x="99705" y="-50460"/><use xlink:href="#sreN-_sSd5cgbdoCxJsh_pad-4" x="99705" y="-53000"/><use xlink:href="#sreN-_sSd5cgbdoCxJsh_pad-4" x="100945" y="-82840"/><use xlink:href="#sreN-_sSd5cgbdoCxJsh_pad-4" x="100945" y="-85380"/><use xlink:href="#sreN-_sSd5cgbdoCxJsh_pad-4" x="100945" y="-87920"/><use xlink:href="#sreN-_sSd5cgbdoCxJsh_pad-4" x="100945" y="-90460"/><use xlink:href="#sreN-_sSd5cgbdoCxJsh_pad-4" x="109485" y="-60840"/><use xlink:href="#sreN-_sSd5cgbdoCxJsh_pad-4" x="109485" y="-63380"/><use xlink:href="#sreN-_sSd5cgbdoCxJsh_pad-4" x="109485" y="-65920"/><use xlink:href="#sreN-_sSd5cgbdoCxJsh_pad-4" x="109485" y="-68460"/><use xlink:href="#sreN-_sSd5cgbdoCxJsh_pad-4" x="109485" y="-71000"/><use xlink:href="#sreN-_sSd5cgbdoCxJsh_pad-4" x="113485" y="-79660"/><use xlink:href="#sreN-_sSd5cgbdoCxJsh_pad-4" x="113485" y="-87260"/><use xlink:href="#sreN-_sSd5cgbdoCxJsh_pad-5" x="96235" y="-58210"/><use xlink:href="#sreN-_sSd5cgbdoCxJsh_pad-5" x="96235" y="-62710"/><use xlink:href="#sreN-_sSd5cgbdoCxJsh_pad-5" x="102735" y="-58210"/><use xlink:href="#sreN-_sSd5cgbdoCxJsh_pad-5" x="102735" y="-62710"/><use xlink:href="#sreN-_sSd5cgbdoCxJsh_pad-6" x="45430" y="-81915"/><use xlink:href="#sreN-_sSd5cgbdoCxJsh_pad-6" x="45430" y="-86995"/><use xlink:href="#sreN-_sSd5cgbdoCxJsh_pad-7" x="39500" y="-27200"/><use xlink:href="#sreN-_sSd5cgbdoCxJsh_pad-7" x="39500" y="-94200"/><use xlink:href="#sreN-_sSd5cgbdoCxJsh_pad-7" x="115800" y="-27200"/><use xlink:href="#sreN-_sSd5cgbdoCxJsh_pad-7" x="115800" y="-94200"/></g><clipPath id="dPuIM4XFvyMTnnreA2wb_top_outline"><path d="M 35500 -23200 119800 -23200 119800 -98200 35500 -98200 35500 -23200" fill="none" stroke-width="100"/></clipPath><mask id="dPuIM4XFvyMTnnreA2wb_top_mech-mask"><g fill="#000" stroke="#000"><rect x="35500" y="-98200" width="84300" height="75000" fill="#fff"/><use xlink:href="#dPuIM4XFvyMTnnreA2wb_top_drill1"/></g></mask><mask id="dPuIM4XFvyMTnnreA2wb_top_cf-mask"><g fill="#fff" stroke="#fff"><use xlink:href="#dPuIM4XFvyMTnnreA2wb_top_soldermask"/></g></mask><mask id="dPuIM4XFvyMTnnreA2wb_top_sm-mask"><g fill="#000" stroke="#000"><rect x="35500" y="-98200" width="84300" height="75000" fill="#fff"/><use xlink:href="#dPuIM4XFvyMTnnreA2wb_top_soldermask"/></g></mask></defs><g transform="translate(0,-121400) scale(1,-1)"><g mask="url(#dPuIM4XFvyMTnnreA2wb_top_mech-mask)" clip-path="url(#dPuIM4XFvyMTnnreA2wb_top_outline)"><rect x="35500" y="-98200" width="84300" height="75000" fill="currentColor" class="dPuIM4XFvyMTnnreA2wb_fr4"/><use xlink:href="#dPuIM4XFvyMTnnreA2wb_top_copper" fill="currentColor" stroke="currentColor" class="dPuIM4XFvyMTnnreA2wb_cu"/><use xlink:href="#dPuIM4XFvyMTnnreA2wb_top_copper" fill="currentColor" stroke="currentColor" class="dPuIM4XFvyMTnnreA2wb_cf" mask="url(#dPuIM4XFvyMTnnreA2wb_top_cf-mask)"/><g mask="url(#dPuIM4XFvyMTnnreA2wb_top_sm-mask)"><rect x="35500" y="-98200" width="84300" height="75000" fill="currentColor" class="dPuIM4XFvyMTnnreA2wb_sm"/><use xlink:href="#dPuIM4XFvyMTnnreA2wb_top_silkscreen" fill="currentColor" stroke="currentColor" class="dPuIM4XFvyMTnnreA2wb_ss"/></g></g></g></svg>