M48
; DRILL file {KiCad 7.0.1-0} date 2023 December 26, Tuesday 23:08:48
; FORMAT={-:-/ absolute / metric / decimal}
; #@! TF.CreationDate,2023-12-26T23:08:48-03:00
; #@! TF.GenerationSoftware,Kicad,Pcbnew,7.0.1-0
; #@! TF.FileFunction,Plated,1,2,PTH
FMAT,2
METRIC
; #@! TA.AperFunction,Plated,PTH,ComponentDrill
T1C0.700
; #@! TA.AperFunction,Plated,PTH,ComponentDrill
T2C0.800
; #@! TA.AperFunction,Plated,PTH,ComponentDrill
T3C0.900
; #@! TA.AperFunction,Plated,PTH,ComponentDrill
T4C1.000
; #@! TA.AperFunction,Plated,PTH,ComponentDrill
T5C1.100
; #@! TA.AperFunction,Plated,PTH,ComponentDrill
T6C1.300
; #@! TA.AperFunction,Plated,PTH,ViaDrill
T7C3.000
%
G90
G05
T1
X38.485Y-46.24
X38.485Y-48.78
T2
X38.485Y-37.96
X38.485Y-40.96
X41.33Y-62.17
X41.33Y-67.25
X46.41Y-64.71
X113.985Y-49.65
X113.985Y-57.27
T3
X115.0Y-35.98
X115.0Y-37.25
X115.0Y-38.52
X115.0Y-39.79
T4
X51.445Y-50.46
X51.445Y-53.0
X53.985Y-50.46
X53.985Y-53.0
X54.367Y-58.717
X56.525Y-50.46
X56.525Y-53.0
X56.907Y-58.717
X57.765Y-82.84
X57.765Y-85.38
X57.765Y-87.92
X57.765Y-90.46
X59.065Y-50.46
X59.065Y-53.0
X59.447Y-58.717
X61.605Y-50.46
X61.605Y-53.0
X61.987Y-58.717
X64.145Y-50.46
X64.145Y-53.0
X64.528Y-58.717
X66.685Y-50.46
X66.685Y-53.0
X67.067Y-58.717
X69.225Y-50.46
X69.225Y-53.0
X69.608Y-58.717
X71.765Y-50.46
X71.765Y-53.0
X72.147Y-58.717
X74.305Y-50.46
X74.305Y-53.0
X74.688Y-58.717
X76.845Y-50.46
X76.845Y-53.0
X77.227Y-58.717
X79.385Y-50.46
X79.385Y-53.0
X81.925Y-50.46
X81.925Y-53.0
X83.365Y-58.46
X84.465Y-50.46
X84.465Y-53.0
X85.905Y-58.46
X87.005Y-50.46
X87.005Y-53.0
X88.445Y-58.46
X89.545Y-50.46
X89.545Y-53.0
X90.985Y-58.46
X92.085Y-50.46
X92.085Y-53.0
X94.625Y-50.46
X94.625Y-53.0
X97.165Y-50.46
X97.165Y-53.0
X99.705Y-50.46
X99.705Y-53.0
X100.945Y-82.84
X100.945Y-85.38
X100.945Y-87.92
X100.945Y-90.46
X109.485Y-60.84
X109.485Y-63.38
X109.485Y-65.92
X109.485Y-68.46
X109.485Y-71.0
X113.485Y-79.66
X113.485Y-87.26
T5
X96.235Y-58.21
X96.235Y-62.71
X102.735Y-58.21
X102.735Y-62.71
T6
X45.43Y-81.915
X45.43Y-86.995
T7
X39.5Y-27.2
X39.5Y-94.2
X115.8Y-27.2
X115.8Y-94.2
T0
M30
