%TF.GenerationSoftware,KiCad,Pcbnew,7.0.1-0*%
%TF.CreationDate,2023-12-26T23:08:58-03:00*%
%TF.ProjectId,rpizerow_kit_desarrollo,7270697a-6572-46f7-975f-6b69745f6465,2*%
%TF.SameCoordinates,Original*%
%TF.FileFunction,Soldermask,Top*%
%TF.FilePolarity,Negative*%
%FSLAX46Y46*%
G04 Gerber Fmt 4.6, Leading zero omitted, Abs format (unit mm)*
G04 Created by KiCad (PCBNEW 7.0.1-0) date 2023-12-26 23:08:58*
%MOMM*%
%LPD*%
G01*
G04 APERTURE LIST*
%ADD10O,1.600000X1.600000*%
%ADD11C,1.600000*%
%ADD12O,1.700000X1.700000*%
%ADD13R,1.700000X1.700000*%
%ADD14C,2.000000*%
%ADD15R,2.000000X2.000000*%
%ADD16C,1.440000*%
%ADD17O,1.400000X1.400000*%
%ADD18C,1.400000*%
%ADD19R,2.600000X2.600000*%
%ADD20C,2.600000*%
%ADD21C,1.700000*%
%ADD22R,1.800000X1.070000*%
%ADD23O,1.800000X1.070000*%
G04 APERTURE END LIST*
D10*
%TO.C,R6*%
X113985000Y-49650000D03*
D11*
X113985000Y-57270000D03*
%TD*%
D12*
%TO.C,ADC Externo*%
X72147500Y-58717500D03*
X69607500Y-58717500D03*
D13*
X77227500Y-58717500D03*
D12*
X54367500Y-58717500D03*
X56907500Y-58717500D03*
X59447500Y-58717500D03*
X61987500Y-58717500D03*
X74687500Y-58717500D03*
X64527500Y-58717500D03*
X67067500Y-58717500D03*
%TD*%
D14*
%TO.C,Buzzer*%
X113485000Y-87260000D03*
D15*
X113485000Y-79660000D03*
%TD*%
D16*
%TO.C,RV*%
X41330000Y-62170000D03*
X46410000Y-64710000D03*
X41330000Y-67250000D03*
%TD*%
D17*
%TO.C,NTC*%
X38485000Y-48780000D03*
D18*
X38485000Y-46240000D03*
%TD*%
D14*
%TO.C,SW*%
X102735000Y-62710000D03*
X96235000Y-62710000D03*
X102735000Y-58210000D03*
X96235000Y-58210000D03*
%TD*%
D19*
%TO.C,J2*%
X45430000Y-81915000D03*
D20*
X45430000Y-86995000D03*
%TD*%
D21*
%TO.C,4-Digit LED Display*%
X100945000Y-82840000D03*
X100945000Y-85380000D03*
X100945000Y-87920000D03*
X100945000Y-90460000D03*
X57765000Y-82840000D03*
X57765000Y-85380000D03*
X57765000Y-87920000D03*
X57765000Y-90460000D03*
%TD*%
D22*
%TO.C,RGB*%
X115000000Y-35980000D03*
D23*
X115000000Y-37250000D03*
X115000000Y-38520000D03*
X115000000Y-39790000D03*
%TD*%
D12*
%TO.C,BMP180*%
X83365000Y-58460000D03*
X85905000Y-58460000D03*
X88445000Y-58460000D03*
D13*
X90985000Y-58460000D03*
%TD*%
D12*
%TO.C,RPiZeroW*%
X51445000Y-53000000D03*
D13*
X51445000Y-50460000D03*
D12*
X53985000Y-53000000D03*
X53985000Y-50460000D03*
X56525000Y-53000000D03*
X56525000Y-50460000D03*
X59065000Y-53000000D03*
X59065000Y-50460000D03*
X61605000Y-53000000D03*
X61605000Y-50460000D03*
X64145000Y-53000000D03*
X64145000Y-50460000D03*
X66685000Y-53000000D03*
X66685000Y-50460000D03*
X69225000Y-53000000D03*
X69225000Y-50460000D03*
X71765000Y-53000000D03*
X71765000Y-50460000D03*
X74305000Y-53000000D03*
X74305000Y-50460000D03*
X76845000Y-53000000D03*
X76845000Y-50460000D03*
X79385000Y-53000000D03*
X79385000Y-50460000D03*
X81925000Y-53000000D03*
X81925000Y-50460000D03*
X84465000Y-53000000D03*
X84465000Y-50460000D03*
X87005000Y-53000000D03*
X87005000Y-50460000D03*
X89545000Y-53000000D03*
X89545000Y-50460000D03*
X92085000Y-53000000D03*
X92085000Y-50460000D03*
X94625000Y-53000000D03*
X94625000Y-50460000D03*
X97165000Y-53000000D03*
X97165000Y-50460000D03*
X99705000Y-53000000D03*
X99705000Y-50460000D03*
%TD*%
%TO.C,UART-USB*%
X109485000Y-71000000D03*
X109485000Y-68460000D03*
X109485000Y-65920000D03*
X109485000Y-63380000D03*
D13*
X109485000Y-60840000D03*
%TD*%
D11*
%TO.C,LDR*%
X38485000Y-37960000D03*
X38485000Y-40960000D03*
%TD*%
M02*
