%TF.GenerationSoftware,KiCad,Pcbnew,7.0.1-0*%
%TF.CreationDate,2023-12-26T23:08:58-03:00*%
%TF.ProjectId,rpizerow_kit_desarrollo,7270697a-6572-46f7-975f-6b69745f6465,2*%
%TF.SameCoordinates,Original*%
%TF.FileFunction,Legend,Bot*%
%TF.FilePolarity,Positive*%
%FSLAX46Y46*%
G04 Gerber Fmt 4.6, Leading zero omitted, Abs format (unit mm)*
G04 Created by KiCad (PCBNEW 7.0.1-0) date 2023-12-26 23:08:58*
%MOMM*%
%LPD*%
G01*
G04 APERTURE LIST*
G04 Aperture macros list*
%AMRoundRect*
0 Rectangle with rounded corners*
0 $1 Rounding radius*
0 $2 $3 $4 $5 $6 $7 $8 $9 X,Y pos of 4 corners*
0 Add a 4 corners polygon primitive as box body*
4,1,4,$2,$3,$4,$5,$6,$7,$8,$9,$2,$3,0*
0 Add four circle primitives for the rounded corners*
1,1,$1+$1,$2,$3*
1,1,$1+$1,$4,$5*
1,1,$1+$1,$6,$7*
1,1,$1+$1,$8,$9*
0 Add four rect primitives between the rounded corners*
20,1,$1+$1,$2,$3,$4,$5,0*
20,1,$1+$1,$4,$5,$6,$7,0*
20,1,$1+$1,$6,$7,$8,$9,0*
20,1,$1+$1,$8,$9,$2,$3,0*%
G04 Aperture macros list end*
%ADD10C,0.300000*%
%ADD11C,0.150000*%
%ADD12C,0.120000*%
%ADD13O,1.600000X1.600000*%
%ADD14C,1.600000*%
%ADD15O,1.700000X1.700000*%
%ADD16R,1.700000X1.700000*%
%ADD17C,2.000000*%
%ADD18R,2.000000X2.000000*%
%ADD19C,1.440000*%
%ADD20O,1.400000X1.400000*%
%ADD21C,1.400000*%
%ADD22R,2.600000X2.600000*%
%ADD23C,2.600000*%
%ADD24C,1.700000*%
%ADD25R,1.800000X1.070000*%
%ADD26O,1.800000X1.070000*%
%ADD27RoundRect,0.381000X0.381000X-0.762000X0.381000X0.762000X-0.381000X0.762000X-0.381000X-0.762000X0*%
%ADD28RoundRect,0.381000X-0.762000X-0.381000X0.762000X-0.381000X0.762000X0.381000X-0.762000X0.381000X0*%
G04 APERTURE END LIST*
D10*
X101923809Y-31455238D02*
X101923809Y-29455238D01*
X101923809Y-29455238D02*
X101161904Y-29455238D01*
X101161904Y-29455238D02*
X100971428Y-29550476D01*
X100971428Y-29550476D02*
X100876190Y-29645714D01*
X100876190Y-29645714D02*
X100780952Y-29836190D01*
X100780952Y-29836190D02*
X100780952Y-30121904D01*
X100780952Y-30121904D02*
X100876190Y-30312380D01*
X100876190Y-30312380D02*
X100971428Y-30407619D01*
X100971428Y-30407619D02*
X101161904Y-30502857D01*
X101161904Y-30502857D02*
X101923809Y-30502857D01*
X99638095Y-31455238D02*
X99828571Y-31360000D01*
X99828571Y-31360000D02*
X99923809Y-31169523D01*
X99923809Y-31169523D02*
X99923809Y-29455238D01*
X98019047Y-31455238D02*
X98019047Y-30407619D01*
X98019047Y-30407619D02*
X98114285Y-30217142D01*
X98114285Y-30217142D02*
X98304761Y-30121904D01*
X98304761Y-30121904D02*
X98685714Y-30121904D01*
X98685714Y-30121904D02*
X98876190Y-30217142D01*
X98019047Y-31360000D02*
X98209523Y-31455238D01*
X98209523Y-31455238D02*
X98685714Y-31455238D01*
X98685714Y-31455238D02*
X98876190Y-31360000D01*
X98876190Y-31360000D02*
X98971428Y-31169523D01*
X98971428Y-31169523D02*
X98971428Y-30979047D01*
X98971428Y-30979047D02*
X98876190Y-30788571D01*
X98876190Y-30788571D02*
X98685714Y-30693333D01*
X98685714Y-30693333D02*
X98209523Y-30693333D01*
X98209523Y-30693333D02*
X98019047Y-30598095D01*
X96209523Y-31360000D02*
X96399999Y-31455238D01*
X96399999Y-31455238D02*
X96780952Y-31455238D01*
X96780952Y-31455238D02*
X96971428Y-31360000D01*
X96971428Y-31360000D02*
X97066666Y-31264761D01*
X97066666Y-31264761D02*
X97161904Y-31074285D01*
X97161904Y-31074285D02*
X97161904Y-30502857D01*
X97161904Y-30502857D02*
X97066666Y-30312380D01*
X97066666Y-30312380D02*
X96971428Y-30217142D01*
X96971428Y-30217142D02*
X96780952Y-30121904D01*
X96780952Y-30121904D02*
X96399999Y-30121904D01*
X96399999Y-30121904D02*
X96209523Y-30217142D01*
X94495237Y-31455238D02*
X94495237Y-30407619D01*
X94495237Y-30407619D02*
X94590475Y-30217142D01*
X94590475Y-30217142D02*
X94780951Y-30121904D01*
X94780951Y-30121904D02*
X95161904Y-30121904D01*
X95161904Y-30121904D02*
X95352380Y-30217142D01*
X94495237Y-31360000D02*
X94685713Y-31455238D01*
X94685713Y-31455238D02*
X95161904Y-31455238D01*
X95161904Y-31455238D02*
X95352380Y-31360000D01*
X95352380Y-31360000D02*
X95447618Y-31169523D01*
X95447618Y-31169523D02*
X95447618Y-30979047D01*
X95447618Y-30979047D02*
X95352380Y-30788571D01*
X95352380Y-30788571D02*
X95161904Y-30693333D01*
X95161904Y-30693333D02*
X94685713Y-30693333D01*
X94685713Y-30693333D02*
X94495237Y-30598095D01*
X91161903Y-31455238D02*
X91161903Y-29455238D01*
X91161903Y-31360000D02*
X91352379Y-31455238D01*
X91352379Y-31455238D02*
X91733332Y-31455238D01*
X91733332Y-31455238D02*
X91923808Y-31360000D01*
X91923808Y-31360000D02*
X92019046Y-31264761D01*
X92019046Y-31264761D02*
X92114284Y-31074285D01*
X92114284Y-31074285D02*
X92114284Y-30502857D01*
X92114284Y-30502857D02*
X92019046Y-30312380D01*
X92019046Y-30312380D02*
X91923808Y-30217142D01*
X91923808Y-30217142D02*
X91733332Y-30121904D01*
X91733332Y-30121904D02*
X91352379Y-30121904D01*
X91352379Y-30121904D02*
X91161903Y-30217142D01*
X89447617Y-31360000D02*
X89638093Y-31455238D01*
X89638093Y-31455238D02*
X90019046Y-31455238D01*
X90019046Y-31455238D02*
X90209522Y-31360000D01*
X90209522Y-31360000D02*
X90304760Y-31169523D01*
X90304760Y-31169523D02*
X90304760Y-30407619D01*
X90304760Y-30407619D02*
X90209522Y-30217142D01*
X90209522Y-30217142D02*
X90019046Y-30121904D01*
X90019046Y-30121904D02*
X89638093Y-30121904D01*
X89638093Y-30121904D02*
X89447617Y-30217142D01*
X89447617Y-30217142D02*
X89352379Y-30407619D01*
X89352379Y-30407619D02*
X89352379Y-30598095D01*
X89352379Y-30598095D02*
X90304760Y-30788571D01*
X86114283Y-31455238D02*
X86114283Y-29455238D01*
X86114283Y-31360000D02*
X86304759Y-31455238D01*
X86304759Y-31455238D02*
X86685712Y-31455238D01*
X86685712Y-31455238D02*
X86876188Y-31360000D01*
X86876188Y-31360000D02*
X86971426Y-31264761D01*
X86971426Y-31264761D02*
X87066664Y-31074285D01*
X87066664Y-31074285D02*
X87066664Y-30502857D01*
X87066664Y-30502857D02*
X86971426Y-30312380D01*
X86971426Y-30312380D02*
X86876188Y-30217142D01*
X86876188Y-30217142D02*
X86685712Y-30121904D01*
X86685712Y-30121904D02*
X86304759Y-30121904D01*
X86304759Y-30121904D02*
X86114283Y-30217142D01*
X84399997Y-31360000D02*
X84590473Y-31455238D01*
X84590473Y-31455238D02*
X84971426Y-31455238D01*
X84971426Y-31455238D02*
X85161902Y-31360000D01*
X85161902Y-31360000D02*
X85257140Y-31169523D01*
X85257140Y-31169523D02*
X85257140Y-30407619D01*
X85257140Y-30407619D02*
X85161902Y-30217142D01*
X85161902Y-30217142D02*
X84971426Y-30121904D01*
X84971426Y-30121904D02*
X84590473Y-30121904D01*
X84590473Y-30121904D02*
X84399997Y-30217142D01*
X84399997Y-30217142D02*
X84304759Y-30407619D01*
X84304759Y-30407619D02*
X84304759Y-30598095D01*
X84304759Y-30598095D02*
X85257140Y-30788571D01*
X83542854Y-31360000D02*
X83352378Y-31455238D01*
X83352378Y-31455238D02*
X82971426Y-31455238D01*
X82971426Y-31455238D02*
X82780949Y-31360000D01*
X82780949Y-31360000D02*
X82685711Y-31169523D01*
X82685711Y-31169523D02*
X82685711Y-31074285D01*
X82685711Y-31074285D02*
X82780949Y-30883809D01*
X82780949Y-30883809D02*
X82971426Y-30788571D01*
X82971426Y-30788571D02*
X83257140Y-30788571D01*
X83257140Y-30788571D02*
X83447616Y-30693333D01*
X83447616Y-30693333D02*
X83542854Y-30502857D01*
X83542854Y-30502857D02*
X83542854Y-30407619D01*
X83542854Y-30407619D02*
X83447616Y-30217142D01*
X83447616Y-30217142D02*
X83257140Y-30121904D01*
X83257140Y-30121904D02*
X82971426Y-30121904D01*
X82971426Y-30121904D02*
X82780949Y-30217142D01*
X80971425Y-31455238D02*
X80971425Y-30407619D01*
X80971425Y-30407619D02*
X81066663Y-30217142D01*
X81066663Y-30217142D02*
X81257139Y-30121904D01*
X81257139Y-30121904D02*
X81638092Y-30121904D01*
X81638092Y-30121904D02*
X81828568Y-30217142D01*
X80971425Y-31360000D02*
X81161901Y-31455238D01*
X81161901Y-31455238D02*
X81638092Y-31455238D01*
X81638092Y-31455238D02*
X81828568Y-31360000D01*
X81828568Y-31360000D02*
X81923806Y-31169523D01*
X81923806Y-31169523D02*
X81923806Y-30979047D01*
X81923806Y-30979047D02*
X81828568Y-30788571D01*
X81828568Y-30788571D02*
X81638092Y-30693333D01*
X81638092Y-30693333D02*
X81161901Y-30693333D01*
X81161901Y-30693333D02*
X80971425Y-30598095D01*
X80019044Y-31455238D02*
X80019044Y-30121904D01*
X80019044Y-30502857D02*
X79923806Y-30312380D01*
X79923806Y-30312380D02*
X79828568Y-30217142D01*
X79828568Y-30217142D02*
X79638092Y-30121904D01*
X79638092Y-30121904D02*
X79447615Y-30121904D01*
X78780949Y-31455238D02*
X78780949Y-30121904D01*
X78780949Y-30502857D02*
X78685711Y-30312380D01*
X78685711Y-30312380D02*
X78590473Y-30217142D01*
X78590473Y-30217142D02*
X78399997Y-30121904D01*
X78399997Y-30121904D02*
X78209520Y-30121904D01*
X77257140Y-31455238D02*
X77447616Y-31360000D01*
X77447616Y-31360000D02*
X77542854Y-31264761D01*
X77542854Y-31264761D02*
X77638092Y-31074285D01*
X77638092Y-31074285D02*
X77638092Y-30502857D01*
X77638092Y-30502857D02*
X77542854Y-30312380D01*
X77542854Y-30312380D02*
X77447616Y-30217142D01*
X77447616Y-30217142D02*
X77257140Y-30121904D01*
X77257140Y-30121904D02*
X76971425Y-30121904D01*
X76971425Y-30121904D02*
X76780949Y-30217142D01*
X76780949Y-30217142D02*
X76685711Y-30312380D01*
X76685711Y-30312380D02*
X76590473Y-30502857D01*
X76590473Y-30502857D02*
X76590473Y-31074285D01*
X76590473Y-31074285D02*
X76685711Y-31264761D01*
X76685711Y-31264761D02*
X76780949Y-31360000D01*
X76780949Y-31360000D02*
X76971425Y-31455238D01*
X76971425Y-31455238D02*
X77257140Y-31455238D01*
X75447616Y-31455238D02*
X75638092Y-31360000D01*
X75638092Y-31360000D02*
X75733330Y-31169523D01*
X75733330Y-31169523D02*
X75733330Y-29455238D01*
X74399997Y-31455238D02*
X74590473Y-31360000D01*
X74590473Y-31360000D02*
X74685711Y-31169523D01*
X74685711Y-31169523D02*
X74685711Y-29455238D01*
X73352378Y-31455238D02*
X73542854Y-31360000D01*
X73542854Y-31360000D02*
X73638092Y-31264761D01*
X73638092Y-31264761D02*
X73733330Y-31074285D01*
X73733330Y-31074285D02*
X73733330Y-30502857D01*
X73733330Y-30502857D02*
X73638092Y-30312380D01*
X73638092Y-30312380D02*
X73542854Y-30217142D01*
X73542854Y-30217142D02*
X73352378Y-30121904D01*
X73352378Y-30121904D02*
X73066663Y-30121904D01*
X73066663Y-30121904D02*
X72876187Y-30217142D01*
X72876187Y-30217142D02*
X72780949Y-30312380D01*
X72780949Y-30312380D02*
X72685711Y-30502857D01*
X72685711Y-30502857D02*
X72685711Y-31074285D01*
X72685711Y-31074285D02*
X72780949Y-31264761D01*
X72780949Y-31264761D02*
X72876187Y-31360000D01*
X72876187Y-31360000D02*
X73066663Y-31455238D01*
X73066663Y-31455238D02*
X73352378Y-31455238D01*
X69161901Y-31455238D02*
X69828568Y-30502857D01*
X70304758Y-31455238D02*
X70304758Y-29455238D01*
X70304758Y-29455238D02*
X69542853Y-29455238D01*
X69542853Y-29455238D02*
X69352377Y-29550476D01*
X69352377Y-29550476D02*
X69257139Y-29645714D01*
X69257139Y-29645714D02*
X69161901Y-29836190D01*
X69161901Y-29836190D02*
X69161901Y-30121904D01*
X69161901Y-30121904D02*
X69257139Y-30312380D01*
X69257139Y-30312380D02*
X69352377Y-30407619D01*
X69352377Y-30407619D02*
X69542853Y-30502857D01*
X69542853Y-30502857D02*
X70304758Y-30502857D01*
X68304758Y-31455238D02*
X68304758Y-29455238D01*
X68304758Y-29455238D02*
X67542853Y-29455238D01*
X67542853Y-29455238D02*
X67352377Y-29550476D01*
X67352377Y-29550476D02*
X67257139Y-29645714D01*
X67257139Y-29645714D02*
X67161901Y-29836190D01*
X67161901Y-29836190D02*
X67161901Y-30121904D01*
X67161901Y-30121904D02*
X67257139Y-30312380D01*
X67257139Y-30312380D02*
X67352377Y-30407619D01*
X67352377Y-30407619D02*
X67542853Y-30502857D01*
X67542853Y-30502857D02*
X68304758Y-30502857D01*
X66304758Y-31455238D02*
X66304758Y-30121904D01*
X66304758Y-29455238D02*
X66399996Y-29550476D01*
X66399996Y-29550476D02*
X66304758Y-29645714D01*
X66304758Y-29645714D02*
X66209520Y-29550476D01*
X66209520Y-29550476D02*
X66304758Y-29455238D01*
X66304758Y-29455238D02*
X66304758Y-29645714D01*
X65542853Y-29455238D02*
X64209520Y-29455238D01*
X64209520Y-29455238D02*
X65542853Y-31455238D01*
X65542853Y-31455238D02*
X64209520Y-31455238D01*
X62685710Y-31360000D02*
X62876186Y-31455238D01*
X62876186Y-31455238D02*
X63257139Y-31455238D01*
X63257139Y-31455238D02*
X63447615Y-31360000D01*
X63447615Y-31360000D02*
X63542853Y-31169523D01*
X63542853Y-31169523D02*
X63542853Y-30407619D01*
X63542853Y-30407619D02*
X63447615Y-30217142D01*
X63447615Y-30217142D02*
X63257139Y-30121904D01*
X63257139Y-30121904D02*
X62876186Y-30121904D01*
X62876186Y-30121904D02*
X62685710Y-30217142D01*
X62685710Y-30217142D02*
X62590472Y-30407619D01*
X62590472Y-30407619D02*
X62590472Y-30598095D01*
X62590472Y-30598095D02*
X63542853Y-30788571D01*
X61733329Y-31455238D02*
X61733329Y-30121904D01*
X61733329Y-30502857D02*
X61638091Y-30312380D01*
X61638091Y-30312380D02*
X61542853Y-30217142D01*
X61542853Y-30217142D02*
X61352377Y-30121904D01*
X61352377Y-30121904D02*
X61161900Y-30121904D01*
X60209520Y-31455238D02*
X60399996Y-31360000D01*
X60399996Y-31360000D02*
X60495234Y-31264761D01*
X60495234Y-31264761D02*
X60590472Y-31074285D01*
X60590472Y-31074285D02*
X60590472Y-30502857D01*
X60590472Y-30502857D02*
X60495234Y-30312380D01*
X60495234Y-30312380D02*
X60399996Y-30217142D01*
X60399996Y-30217142D02*
X60209520Y-30121904D01*
X60209520Y-30121904D02*
X59923805Y-30121904D01*
X59923805Y-30121904D02*
X59733329Y-30217142D01*
X59733329Y-30217142D02*
X59638091Y-30312380D01*
X59638091Y-30312380D02*
X59542853Y-30502857D01*
X59542853Y-30502857D02*
X59542853Y-31074285D01*
X59542853Y-31074285D02*
X59638091Y-31264761D01*
X59638091Y-31264761D02*
X59733329Y-31360000D01*
X59733329Y-31360000D02*
X59923805Y-31455238D01*
X59923805Y-31455238D02*
X60209520Y-31455238D01*
X58876186Y-29455238D02*
X58399996Y-31455238D01*
X58399996Y-31455238D02*
X58019043Y-30026666D01*
X58019043Y-30026666D02*
X57638091Y-31455238D01*
X57638091Y-31455238D02*
X57161901Y-29455238D01*
X55066662Y-30121904D02*
X54590472Y-31455238D01*
X54590472Y-31455238D02*
X54114281Y-30121904D01*
X53447614Y-29645714D02*
X53352376Y-29550476D01*
X53352376Y-29550476D02*
X53161900Y-29455238D01*
X53161900Y-29455238D02*
X52685709Y-29455238D01*
X52685709Y-29455238D02*
X52495233Y-29550476D01*
X52495233Y-29550476D02*
X52399995Y-29645714D01*
X52399995Y-29645714D02*
X52304757Y-29836190D01*
X52304757Y-29836190D02*
X52304757Y-30026666D01*
X52304757Y-30026666D02*
X52399995Y-30312380D01*
X52399995Y-30312380D02*
X53542852Y-31455238D01*
X53542852Y-31455238D02*
X52304757Y-31455238D01*
X97380952Y-27164761D02*
X97476190Y-27260000D01*
X97476190Y-27260000D02*
X97761904Y-27355238D01*
X97761904Y-27355238D02*
X97952380Y-27355238D01*
X97952380Y-27355238D02*
X98238095Y-27260000D01*
X98238095Y-27260000D02*
X98428571Y-27069523D01*
X98428571Y-27069523D02*
X98523809Y-26879047D01*
X98523809Y-26879047D02*
X98619047Y-26498095D01*
X98619047Y-26498095D02*
X98619047Y-26212380D01*
X98619047Y-26212380D02*
X98523809Y-25831428D01*
X98523809Y-25831428D02*
X98428571Y-25640952D01*
X98428571Y-25640952D02*
X98238095Y-25450476D01*
X98238095Y-25450476D02*
X97952380Y-25355238D01*
X97952380Y-25355238D02*
X97761904Y-25355238D01*
X97761904Y-25355238D02*
X97476190Y-25450476D01*
X97476190Y-25450476D02*
X97380952Y-25545714D01*
X96238095Y-27355238D02*
X96428571Y-27260000D01*
X96428571Y-27260000D02*
X96523809Y-27164761D01*
X96523809Y-27164761D02*
X96619047Y-26974285D01*
X96619047Y-26974285D02*
X96619047Y-26402857D01*
X96619047Y-26402857D02*
X96523809Y-26212380D01*
X96523809Y-26212380D02*
X96428571Y-26117142D01*
X96428571Y-26117142D02*
X96238095Y-26021904D01*
X96238095Y-26021904D02*
X95952380Y-26021904D01*
X95952380Y-26021904D02*
X95761904Y-26117142D01*
X95761904Y-26117142D02*
X95666666Y-26212380D01*
X95666666Y-26212380D02*
X95571428Y-26402857D01*
X95571428Y-26402857D02*
X95571428Y-26974285D01*
X95571428Y-26974285D02*
X95666666Y-27164761D01*
X95666666Y-27164761D02*
X95761904Y-27260000D01*
X95761904Y-27260000D02*
X95952380Y-27355238D01*
X95952380Y-27355238D02*
X96238095Y-27355238D01*
X94714285Y-27355238D02*
X94714285Y-26021904D01*
X94714285Y-26212380D02*
X94619047Y-26117142D01*
X94619047Y-26117142D02*
X94428571Y-26021904D01*
X94428571Y-26021904D02*
X94142856Y-26021904D01*
X94142856Y-26021904D02*
X93952380Y-26117142D01*
X93952380Y-26117142D02*
X93857142Y-26307619D01*
X93857142Y-26307619D02*
X93857142Y-27355238D01*
X93857142Y-26307619D02*
X93761904Y-26117142D01*
X93761904Y-26117142D02*
X93571428Y-26021904D01*
X93571428Y-26021904D02*
X93285714Y-26021904D01*
X93285714Y-26021904D02*
X93095237Y-26117142D01*
X93095237Y-26117142D02*
X92999999Y-26307619D01*
X92999999Y-26307619D02*
X92999999Y-27355238D01*
X92047618Y-26021904D02*
X92047618Y-28021904D01*
X92047618Y-26117142D02*
X91857142Y-26021904D01*
X91857142Y-26021904D02*
X91476189Y-26021904D01*
X91476189Y-26021904D02*
X91285713Y-26117142D01*
X91285713Y-26117142D02*
X91190475Y-26212380D01*
X91190475Y-26212380D02*
X91095237Y-26402857D01*
X91095237Y-26402857D02*
X91095237Y-26974285D01*
X91095237Y-26974285D02*
X91190475Y-27164761D01*
X91190475Y-27164761D02*
X91285713Y-27260000D01*
X91285713Y-27260000D02*
X91476189Y-27355238D01*
X91476189Y-27355238D02*
X91857142Y-27355238D01*
X91857142Y-27355238D02*
X92047618Y-27260000D01*
X89380951Y-26021904D02*
X89380951Y-27355238D01*
X90238094Y-26021904D02*
X90238094Y-27069523D01*
X90238094Y-27069523D02*
X90142856Y-27260000D01*
X90142856Y-27260000D02*
X89952380Y-27355238D01*
X89952380Y-27355238D02*
X89666665Y-27355238D01*
X89666665Y-27355238D02*
X89476189Y-27260000D01*
X89476189Y-27260000D02*
X89380951Y-27164761D01*
X88714284Y-26021904D02*
X87952380Y-26021904D01*
X88428570Y-25355238D02*
X88428570Y-27069523D01*
X88428570Y-27069523D02*
X88333332Y-27260000D01*
X88333332Y-27260000D02*
X88142856Y-27355238D01*
X88142856Y-27355238D02*
X87952380Y-27355238D01*
X86428570Y-27355238D02*
X86428570Y-26307619D01*
X86428570Y-26307619D02*
X86523808Y-26117142D01*
X86523808Y-26117142D02*
X86714284Y-26021904D01*
X86714284Y-26021904D02*
X87095237Y-26021904D01*
X87095237Y-26021904D02*
X87285713Y-26117142D01*
X86428570Y-27260000D02*
X86619046Y-27355238D01*
X86619046Y-27355238D02*
X87095237Y-27355238D01*
X87095237Y-27355238D02*
X87285713Y-27260000D01*
X87285713Y-27260000D02*
X87380951Y-27069523D01*
X87380951Y-27069523D02*
X87380951Y-26879047D01*
X87380951Y-26879047D02*
X87285713Y-26688571D01*
X87285713Y-26688571D02*
X87095237Y-26593333D01*
X87095237Y-26593333D02*
X86619046Y-26593333D01*
X86619046Y-26593333D02*
X86428570Y-26498095D01*
X84619046Y-27355238D02*
X84619046Y-25355238D01*
X84619046Y-27260000D02*
X84809522Y-27355238D01*
X84809522Y-27355238D02*
X85190475Y-27355238D01*
X85190475Y-27355238D02*
X85380951Y-27260000D01*
X85380951Y-27260000D02*
X85476189Y-27164761D01*
X85476189Y-27164761D02*
X85571427Y-26974285D01*
X85571427Y-26974285D02*
X85571427Y-26402857D01*
X85571427Y-26402857D02*
X85476189Y-26212380D01*
X85476189Y-26212380D02*
X85380951Y-26117142D01*
X85380951Y-26117142D02*
X85190475Y-26021904D01*
X85190475Y-26021904D02*
X84809522Y-26021904D01*
X84809522Y-26021904D02*
X84619046Y-26117142D01*
X83380951Y-27355238D02*
X83571427Y-27260000D01*
X83571427Y-27260000D02*
X83666665Y-27164761D01*
X83666665Y-27164761D02*
X83761903Y-26974285D01*
X83761903Y-26974285D02*
X83761903Y-26402857D01*
X83761903Y-26402857D02*
X83666665Y-26212380D01*
X83666665Y-26212380D02*
X83571427Y-26117142D01*
X83571427Y-26117142D02*
X83380951Y-26021904D01*
X83380951Y-26021904D02*
X83095236Y-26021904D01*
X83095236Y-26021904D02*
X82904760Y-26117142D01*
X82904760Y-26117142D02*
X82809522Y-26212380D01*
X82809522Y-26212380D02*
X82714284Y-26402857D01*
X82714284Y-26402857D02*
X82714284Y-26974285D01*
X82714284Y-26974285D02*
X82809522Y-27164761D01*
X82809522Y-27164761D02*
X82904760Y-27260000D01*
X82904760Y-27260000D02*
X83095236Y-27355238D01*
X83095236Y-27355238D02*
X83380951Y-27355238D01*
X81857141Y-27355238D02*
X81857141Y-26021904D01*
X81857141Y-26402857D02*
X81761903Y-26212380D01*
X81761903Y-26212380D02*
X81666665Y-26117142D01*
X81666665Y-26117142D02*
X81476189Y-26021904D01*
X81476189Y-26021904D02*
X81285712Y-26021904D01*
X79761903Y-27355238D02*
X79761903Y-26307619D01*
X79761903Y-26307619D02*
X79857141Y-26117142D01*
X79857141Y-26117142D02*
X80047617Y-26021904D01*
X80047617Y-26021904D02*
X80428570Y-26021904D01*
X80428570Y-26021904D02*
X80619046Y-26117142D01*
X79761903Y-27260000D02*
X79952379Y-27355238D01*
X79952379Y-27355238D02*
X80428570Y-27355238D01*
X80428570Y-27355238D02*
X80619046Y-27260000D01*
X80619046Y-27260000D02*
X80714284Y-27069523D01*
X80714284Y-27069523D02*
X80714284Y-26879047D01*
X80714284Y-26879047D02*
X80619046Y-26688571D01*
X80619046Y-26688571D02*
X80428570Y-26593333D01*
X80428570Y-26593333D02*
X79952379Y-26593333D01*
X79952379Y-26593333D02*
X79761903Y-26498095D01*
X78904760Y-27260000D02*
X78714284Y-27355238D01*
X78714284Y-27355238D02*
X78333332Y-27355238D01*
X78333332Y-27355238D02*
X78142855Y-27260000D01*
X78142855Y-27260000D02*
X78047617Y-27069523D01*
X78047617Y-27069523D02*
X78047617Y-26974285D01*
X78047617Y-26974285D02*
X78142855Y-26783809D01*
X78142855Y-26783809D02*
X78333332Y-26688571D01*
X78333332Y-26688571D02*
X78619046Y-26688571D01*
X78619046Y-26688571D02*
X78809522Y-26593333D01*
X78809522Y-26593333D02*
X78904760Y-26402857D01*
X78904760Y-26402857D02*
X78904760Y-26307619D01*
X78904760Y-26307619D02*
X78809522Y-26117142D01*
X78809522Y-26117142D02*
X78619046Y-26021904D01*
X78619046Y-26021904D02*
X78333332Y-26021904D01*
X78333332Y-26021904D02*
X78142855Y-26117142D01*
X74809521Y-27355238D02*
X74809521Y-25355238D01*
X74809521Y-27260000D02*
X74999997Y-27355238D01*
X74999997Y-27355238D02*
X75380950Y-27355238D01*
X75380950Y-27355238D02*
X75571426Y-27260000D01*
X75571426Y-27260000D02*
X75666664Y-27164761D01*
X75666664Y-27164761D02*
X75761902Y-26974285D01*
X75761902Y-26974285D02*
X75761902Y-26402857D01*
X75761902Y-26402857D02*
X75666664Y-26212380D01*
X75666664Y-26212380D02*
X75571426Y-26117142D01*
X75571426Y-26117142D02*
X75380950Y-26021904D01*
X75380950Y-26021904D02*
X74999997Y-26021904D01*
X74999997Y-26021904D02*
X74809521Y-26117142D01*
X73095235Y-27260000D02*
X73285711Y-27355238D01*
X73285711Y-27355238D02*
X73666664Y-27355238D01*
X73666664Y-27355238D02*
X73857140Y-27260000D01*
X73857140Y-27260000D02*
X73952378Y-27069523D01*
X73952378Y-27069523D02*
X73952378Y-26307619D01*
X73952378Y-26307619D02*
X73857140Y-26117142D01*
X73857140Y-26117142D02*
X73666664Y-26021904D01*
X73666664Y-26021904D02*
X73285711Y-26021904D01*
X73285711Y-26021904D02*
X73095235Y-26117142D01*
X73095235Y-26117142D02*
X72999997Y-26307619D01*
X72999997Y-26307619D02*
X72999997Y-26498095D01*
X72999997Y-26498095D02*
X73952378Y-26688571D01*
X70714282Y-26783809D02*
X69761901Y-26783809D01*
X70904758Y-27355238D02*
X70238092Y-25355238D01*
X70238092Y-25355238D02*
X69571425Y-27355238D01*
X68142853Y-27260000D02*
X68333329Y-27355238D01*
X68333329Y-27355238D02*
X68714282Y-27355238D01*
X68714282Y-27355238D02*
X68904758Y-27260000D01*
X68904758Y-27260000D02*
X68999996Y-27069523D01*
X68999996Y-27069523D02*
X68999996Y-26307619D01*
X68999996Y-26307619D02*
X68904758Y-26117142D01*
X68904758Y-26117142D02*
X68714282Y-26021904D01*
X68714282Y-26021904D02*
X68333329Y-26021904D01*
X68333329Y-26021904D02*
X68142853Y-26117142D01*
X68142853Y-26117142D02*
X68047615Y-26307619D01*
X68047615Y-26307619D02*
X68047615Y-26498095D01*
X68047615Y-26498095D02*
X68999996Y-26688571D01*
X67190472Y-27355238D02*
X67190472Y-26021904D01*
X67190472Y-26402857D02*
X67095234Y-26212380D01*
X67095234Y-26212380D02*
X66999996Y-26117142D01*
X66999996Y-26117142D02*
X66809520Y-26021904D01*
X66809520Y-26021904D02*
X66619043Y-26021904D01*
X65666663Y-27355238D02*
X65857139Y-27260000D01*
X65857139Y-27260000D02*
X65952377Y-27164761D01*
X65952377Y-27164761D02*
X66047615Y-26974285D01*
X66047615Y-26974285D02*
X66047615Y-26402857D01*
X66047615Y-26402857D02*
X65952377Y-26212380D01*
X65952377Y-26212380D02*
X65857139Y-26117142D01*
X65857139Y-26117142D02*
X65666663Y-26021904D01*
X65666663Y-26021904D02*
X65380948Y-26021904D01*
X65380948Y-26021904D02*
X65190472Y-26117142D01*
X65190472Y-26117142D02*
X65095234Y-26212380D01*
X65095234Y-26212380D02*
X64999996Y-26402857D01*
X64999996Y-26402857D02*
X64999996Y-26974285D01*
X64999996Y-26974285D02*
X65095234Y-27164761D01*
X65095234Y-27164761D02*
X65190472Y-27260000D01*
X65190472Y-27260000D02*
X65380948Y-27355238D01*
X65380948Y-27355238D02*
X65666663Y-27355238D01*
X64142853Y-26021904D02*
X64142853Y-27355238D01*
X64142853Y-26212380D02*
X64047615Y-26117142D01*
X64047615Y-26117142D02*
X63857139Y-26021904D01*
X63857139Y-26021904D02*
X63571424Y-26021904D01*
X63571424Y-26021904D02*
X63380948Y-26117142D01*
X63380948Y-26117142D02*
X63285710Y-26307619D01*
X63285710Y-26307619D02*
X63285710Y-27355238D01*
X61476186Y-27355238D02*
X61476186Y-26307619D01*
X61476186Y-26307619D02*
X61571424Y-26117142D01*
X61571424Y-26117142D02*
X61761900Y-26021904D01*
X61761900Y-26021904D02*
X62142853Y-26021904D01*
X62142853Y-26021904D02*
X62333329Y-26117142D01*
X61476186Y-27260000D02*
X61666662Y-27355238D01*
X61666662Y-27355238D02*
X62142853Y-27355238D01*
X62142853Y-27355238D02*
X62333329Y-27260000D01*
X62333329Y-27260000D02*
X62428567Y-27069523D01*
X62428567Y-27069523D02*
X62428567Y-26879047D01*
X62428567Y-26879047D02*
X62333329Y-26688571D01*
X62333329Y-26688571D02*
X62142853Y-26593333D01*
X62142853Y-26593333D02*
X61666662Y-26593333D01*
X61666662Y-26593333D02*
X61476186Y-26498095D01*
X60714281Y-26021904D02*
X60238091Y-27355238D01*
X60238091Y-27355238D02*
X59761900Y-26021904D01*
X58238090Y-27260000D02*
X58428566Y-27355238D01*
X58428566Y-27355238D02*
X58809519Y-27355238D01*
X58809519Y-27355238D02*
X58999995Y-27260000D01*
X58999995Y-27260000D02*
X59095233Y-27069523D01*
X59095233Y-27069523D02*
X59095233Y-26307619D01*
X59095233Y-26307619D02*
X58999995Y-26117142D01*
X58999995Y-26117142D02*
X58809519Y-26021904D01*
X58809519Y-26021904D02*
X58428566Y-26021904D01*
X58428566Y-26021904D02*
X58238090Y-26117142D01*
X58238090Y-26117142D02*
X58142852Y-26307619D01*
X58142852Y-26307619D02*
X58142852Y-26498095D01*
X58142852Y-26498095D02*
X59095233Y-26688571D01*
X57380947Y-27260000D02*
X57190471Y-27355238D01*
X57190471Y-27355238D02*
X56809519Y-27355238D01*
X56809519Y-27355238D02*
X56619042Y-27260000D01*
X56619042Y-27260000D02*
X56523804Y-27069523D01*
X56523804Y-27069523D02*
X56523804Y-26974285D01*
X56523804Y-26974285D02*
X56619042Y-26783809D01*
X56619042Y-26783809D02*
X56809519Y-26688571D01*
X56809519Y-26688571D02*
X57095233Y-26688571D01*
X57095233Y-26688571D02*
X57285709Y-26593333D01*
X57285709Y-26593333D02*
X57380947Y-26402857D01*
X57380947Y-26402857D02*
X57380947Y-26307619D01*
X57380947Y-26307619D02*
X57285709Y-26117142D01*
X57285709Y-26117142D02*
X57095233Y-26021904D01*
X57095233Y-26021904D02*
X56809519Y-26021904D01*
X56809519Y-26021904D02*
X56619042Y-26117142D01*
D11*
%TO.C,R1*%
X48317619Y-47293333D02*
X47841428Y-46960000D01*
X48317619Y-46721905D02*
X47317619Y-46721905D01*
X47317619Y-46721905D02*
X47317619Y-47102857D01*
X47317619Y-47102857D02*
X47365238Y-47198095D01*
X47365238Y-47198095D02*
X47412857Y-47245714D01*
X47412857Y-47245714D02*
X47508095Y-47293333D01*
X47508095Y-47293333D02*
X47650952Y-47293333D01*
X47650952Y-47293333D02*
X47746190Y-47245714D01*
X47746190Y-47245714D02*
X47793809Y-47198095D01*
X47793809Y-47198095D02*
X47841428Y-47102857D01*
X47841428Y-47102857D02*
X47841428Y-46721905D01*
X48317619Y-48245714D02*
X48317619Y-47674286D01*
X48317619Y-47960000D02*
X47317619Y-47960000D01*
X47317619Y-47960000D02*
X47460476Y-47864762D01*
X47460476Y-47864762D02*
X47555714Y-47769524D01*
X47555714Y-47769524D02*
X47603333Y-47674286D01*
%TO.C,R5*%
X96916666Y-36462619D02*
X97249999Y-35986428D01*
X97488094Y-36462619D02*
X97488094Y-35462619D01*
X97488094Y-35462619D02*
X97107142Y-35462619D01*
X97107142Y-35462619D02*
X97011904Y-35510238D01*
X97011904Y-35510238D02*
X96964285Y-35557857D01*
X96964285Y-35557857D02*
X96916666Y-35653095D01*
X96916666Y-35653095D02*
X96916666Y-35795952D01*
X96916666Y-35795952D02*
X96964285Y-35891190D01*
X96964285Y-35891190D02*
X97011904Y-35938809D01*
X97011904Y-35938809D02*
X97107142Y-35986428D01*
X97107142Y-35986428D02*
X97488094Y-35986428D01*
X96011904Y-35462619D02*
X96488094Y-35462619D01*
X96488094Y-35462619D02*
X96535713Y-35938809D01*
X96535713Y-35938809D02*
X96488094Y-35891190D01*
X96488094Y-35891190D02*
X96392856Y-35843571D01*
X96392856Y-35843571D02*
X96154761Y-35843571D01*
X96154761Y-35843571D02*
X96059523Y-35891190D01*
X96059523Y-35891190D02*
X96011904Y-35938809D01*
X96011904Y-35938809D02*
X95964285Y-36034047D01*
X95964285Y-36034047D02*
X95964285Y-36272142D01*
X95964285Y-36272142D02*
X96011904Y-36367380D01*
X96011904Y-36367380D02*
X96059523Y-36415000D01*
X96059523Y-36415000D02*
X96154761Y-36462619D01*
X96154761Y-36462619D02*
X96392856Y-36462619D01*
X96392856Y-36462619D02*
X96488094Y-36415000D01*
X96488094Y-36415000D02*
X96535713Y-36367380D01*
%TO.C,R2*%
X39212619Y-47083333D02*
X38736428Y-46750000D01*
X39212619Y-46511905D02*
X38212619Y-46511905D01*
X38212619Y-46511905D02*
X38212619Y-46892857D01*
X38212619Y-46892857D02*
X38260238Y-46988095D01*
X38260238Y-46988095D02*
X38307857Y-47035714D01*
X38307857Y-47035714D02*
X38403095Y-47083333D01*
X38403095Y-47083333D02*
X38545952Y-47083333D01*
X38545952Y-47083333D02*
X38641190Y-47035714D01*
X38641190Y-47035714D02*
X38688809Y-46988095D01*
X38688809Y-46988095D02*
X38736428Y-46892857D01*
X38736428Y-46892857D02*
X38736428Y-46511905D01*
X38307857Y-47464286D02*
X38260238Y-47511905D01*
X38260238Y-47511905D02*
X38212619Y-47607143D01*
X38212619Y-47607143D02*
X38212619Y-47845238D01*
X38212619Y-47845238D02*
X38260238Y-47940476D01*
X38260238Y-47940476D02*
X38307857Y-47988095D01*
X38307857Y-47988095D02*
X38403095Y-48035714D01*
X38403095Y-48035714D02*
X38498333Y-48035714D01*
X38498333Y-48035714D02*
X38641190Y-47988095D01*
X38641190Y-47988095D02*
X39212619Y-47416667D01*
X39212619Y-47416667D02*
X39212619Y-48035714D01*
%TO.C,R4*%
X96916666Y-39962619D02*
X97249999Y-39486428D01*
X97488094Y-39962619D02*
X97488094Y-38962619D01*
X97488094Y-38962619D02*
X97107142Y-38962619D01*
X97107142Y-38962619D02*
X97011904Y-39010238D01*
X97011904Y-39010238D02*
X96964285Y-39057857D01*
X96964285Y-39057857D02*
X96916666Y-39153095D01*
X96916666Y-39153095D02*
X96916666Y-39295952D01*
X96916666Y-39295952D02*
X96964285Y-39391190D01*
X96964285Y-39391190D02*
X97011904Y-39438809D01*
X97011904Y-39438809D02*
X97107142Y-39486428D01*
X97107142Y-39486428D02*
X97488094Y-39486428D01*
X96059523Y-39295952D02*
X96059523Y-39962619D01*
X96297618Y-38915000D02*
X96535713Y-39629285D01*
X96535713Y-39629285D02*
X95916666Y-39629285D01*
%TO.C,R3*%
X96916666Y-43712619D02*
X97249999Y-43236428D01*
X97488094Y-43712619D02*
X97488094Y-42712619D01*
X97488094Y-42712619D02*
X97107142Y-42712619D01*
X97107142Y-42712619D02*
X97011904Y-42760238D01*
X97011904Y-42760238D02*
X96964285Y-42807857D01*
X96964285Y-42807857D02*
X96916666Y-42903095D01*
X96916666Y-42903095D02*
X96916666Y-43045952D01*
X96916666Y-43045952D02*
X96964285Y-43141190D01*
X96964285Y-43141190D02*
X97011904Y-43188809D01*
X97011904Y-43188809D02*
X97107142Y-43236428D01*
X97107142Y-43236428D02*
X97488094Y-43236428D01*
X96583332Y-42712619D02*
X95964285Y-42712619D01*
X95964285Y-42712619D02*
X96297618Y-43093571D01*
X96297618Y-43093571D02*
X96154761Y-43093571D01*
X96154761Y-43093571D02*
X96059523Y-43141190D01*
X96059523Y-43141190D02*
X96011904Y-43188809D01*
X96011904Y-43188809D02*
X95964285Y-43284047D01*
X95964285Y-43284047D02*
X95964285Y-43522142D01*
X95964285Y-43522142D02*
X96011904Y-43617380D01*
X96011904Y-43617380D02*
X96059523Y-43665000D01*
X96059523Y-43665000D02*
X96154761Y-43712619D01*
X96154761Y-43712619D02*
X96440475Y-43712619D01*
X96440475Y-43712619D02*
X96535713Y-43665000D01*
X96535713Y-43665000D02*
X96583332Y-43617380D01*
D12*
%TO.C,R1*%
X46855000Y-44190000D02*
X46525000Y-44190000D01*
X44115000Y-44190000D02*
X44445000Y-44190000D01*
X46855000Y-50730000D02*
X46855000Y-44190000D01*
X46525000Y-50730000D02*
X46855000Y-50730000D01*
X44445000Y-50730000D02*
X44115000Y-50730000D01*
X44115000Y-50730000D02*
X44115000Y-44190000D01*
%TO.C,R5*%
X106255000Y-37330000D02*
X106255000Y-37000000D01*
X106255000Y-34590000D02*
X106255000Y-34920000D01*
X99715000Y-37330000D02*
X106255000Y-37330000D01*
X99715000Y-37000000D02*
X99715000Y-37330000D01*
X99715000Y-34920000D02*
X99715000Y-34590000D01*
X99715000Y-34590000D02*
X106255000Y-34590000D01*
%TO.C,R2*%
X42855000Y-44190000D02*
X42525000Y-44190000D01*
X40115000Y-44190000D02*
X40445000Y-44190000D01*
X42855000Y-50730000D02*
X42855000Y-44190000D01*
X42525000Y-50730000D02*
X42855000Y-50730000D01*
X40445000Y-50730000D02*
X40115000Y-50730000D01*
X40115000Y-50730000D02*
X40115000Y-44190000D01*
%TO.C,R4*%
X106255000Y-40950000D02*
X106255000Y-40620000D01*
X106255000Y-38210000D02*
X106255000Y-38540000D01*
X99715000Y-40950000D02*
X106255000Y-40950000D01*
X99715000Y-40620000D02*
X99715000Y-40950000D01*
X99715000Y-38540000D02*
X99715000Y-38210000D01*
X99715000Y-38210000D02*
X106255000Y-38210000D01*
%TO.C,R3*%
X106255000Y-44580000D02*
X106255000Y-44250000D01*
X106255000Y-41840000D02*
X106255000Y-42170000D01*
X99715000Y-44580000D02*
X106255000Y-44580000D01*
X99715000Y-44250000D02*
X99715000Y-44580000D01*
X99715000Y-42170000D02*
X99715000Y-41840000D01*
X99715000Y-41840000D02*
X106255000Y-41840000D01*
%TD*%
%LPC*%
D13*
%TO.C,R6*%
X113985000Y-49650000D03*
D14*
X113985000Y-57270000D03*
%TD*%
D15*
%TO.C,ADC Externo*%
X72147500Y-58717500D03*
X69607500Y-58717500D03*
D16*
X77227500Y-58717500D03*
D15*
X54367500Y-58717500D03*
X56907500Y-58717500D03*
X59447500Y-58717500D03*
X61987500Y-58717500D03*
X74687500Y-58717500D03*
X64527500Y-58717500D03*
X67067500Y-58717500D03*
%TD*%
D17*
%TO.C,Buzzer*%
X113485000Y-87260000D03*
D18*
X113485000Y-79660000D03*
%TD*%
D19*
%TO.C,RV*%
X41330000Y-62170000D03*
X46410000Y-64710000D03*
X41330000Y-67250000D03*
%TD*%
D20*
%TO.C,NTC*%
X38485000Y-48780000D03*
D21*
X38485000Y-46240000D03*
%TD*%
D17*
%TO.C,SW*%
X102735000Y-62710000D03*
X96235000Y-62710000D03*
X102735000Y-58210000D03*
X96235000Y-58210000D03*
%TD*%
D22*
%TO.C,J2*%
X45430000Y-81915000D03*
D23*
X45430000Y-86995000D03*
%TD*%
D24*
%TO.C,4-Digit LED Display*%
X100945000Y-82840000D03*
X100945000Y-85380000D03*
X100945000Y-87920000D03*
X100945000Y-90460000D03*
X57765000Y-82840000D03*
X57765000Y-85380000D03*
X57765000Y-87920000D03*
X57765000Y-90460000D03*
%TD*%
D25*
%TO.C,RGB*%
X115000000Y-35980000D03*
D26*
X115000000Y-37250000D03*
X115000000Y-38520000D03*
X115000000Y-39790000D03*
%TD*%
D15*
%TO.C,BMP180*%
X83365000Y-58460000D03*
X85905000Y-58460000D03*
X88445000Y-58460000D03*
D16*
X90985000Y-58460000D03*
%TD*%
D15*
%TO.C,RPiZeroW*%
X51445000Y-53000000D03*
D16*
X51445000Y-50460000D03*
D15*
X53985000Y-53000000D03*
X53985000Y-50460000D03*
X56525000Y-53000000D03*
X56525000Y-50460000D03*
X59065000Y-53000000D03*
X59065000Y-50460000D03*
X61605000Y-53000000D03*
X61605000Y-50460000D03*
X64145000Y-53000000D03*
X64145000Y-50460000D03*
X66685000Y-53000000D03*
X66685000Y-50460000D03*
X69225000Y-53000000D03*
X69225000Y-50460000D03*
X71765000Y-53000000D03*
X71765000Y-50460000D03*
X74305000Y-53000000D03*
X74305000Y-50460000D03*
X76845000Y-53000000D03*
X76845000Y-50460000D03*
X79385000Y-53000000D03*
X79385000Y-50460000D03*
X81925000Y-53000000D03*
X81925000Y-50460000D03*
X84465000Y-53000000D03*
X84465000Y-50460000D03*
X87005000Y-53000000D03*
X87005000Y-50460000D03*
X89545000Y-53000000D03*
X89545000Y-50460000D03*
X92085000Y-53000000D03*
X92085000Y-50460000D03*
X94625000Y-53000000D03*
X94625000Y-50460000D03*
X97165000Y-53000000D03*
X97165000Y-50460000D03*
X99705000Y-53000000D03*
X99705000Y-50460000D03*
%TD*%
%TO.C,UART-USB*%
X109485000Y-71000000D03*
X109485000Y-68460000D03*
X109485000Y-65920000D03*
X109485000Y-63380000D03*
D16*
X109485000Y-60840000D03*
%TD*%
D14*
%TO.C,LDR*%
X38485000Y-37960000D03*
X38485000Y-40960000D03*
%TD*%
D27*
%TO.C,R1*%
X45485000Y-43650000D03*
X45485000Y-51270000D03*
%TD*%
D28*
%TO.C,R5*%
X106795000Y-35960000D03*
X99175000Y-35960000D03*
%TD*%
D27*
%TO.C,R2*%
X41485000Y-43650000D03*
X41485000Y-51270000D03*
%TD*%
D28*
%TO.C,R4*%
X106795000Y-39580000D03*
X99175000Y-39580000D03*
%TD*%
%TO.C,R3*%
X106795000Y-43210000D03*
X99175000Y-43210000D03*
%TD*%
M02*
